<svg width="40" height="41" viewBox="0 0 40 41" fill="none" xmlns="http://www.w3.org/2000/svg">
<g filter="url(#filter0_d_1_1458)">
<rect x="0.585327" y="0.851105" width="38.8069" height="38.8069" rx="4.25028" fill="#ABB0BC"/>
</g>
<path d="M18.8009 17.5058C18.5303 17.2352 18.5303 16.7965 18.8009 16.5258C19.0716 16.2552 19.5103 16.2552 19.7809 16.5258L22.0677 18.8126L24.3544 16.5258C24.625 16.2552 25.0638 16.2552 25.3345 16.5258C25.6051 16.7964 25.6051 17.2352 25.3345 17.5058L23.0477 19.7925L25.3345 22.0793C25.6051 22.3499 25.6051 22.7887 25.3345 23.0593C25.0638 23.3299 24.625 23.3299 24.3544 23.0593L22.0677 20.7726L19.7809 23.0593C19.5103 23.3299 19.0716 23.3299 18.801 23.0593C18.5303 22.7886 18.5303 22.3499 18.801 22.0792L21.0877 19.7926L18.8009 17.5058Z" fill="black"/>
<path fill-rule="evenodd" clip-rule="evenodd" d="M15.943 12.7506L8.90112 19.7925L15.943 26.8345C16.4629 27.3543 17.1679 27.6463 17.9031 27.6463H27.3806C28.9115 27.6463 30.1525 26.4053 30.1525 24.8744V14.7107C30.1525 13.1798 28.9115 11.9388 27.3806 11.9388H17.9031C17.1679 11.9388 16.4629 12.2308 15.943 12.7506ZM27.3806 26.4452H17.9031C17.4865 26.4452 17.0869 26.2796 16.7923 25.9851L10.5998 19.7925L16.7923 13.6C17.0869 13.3054 17.4865 13.1399 17.9031 13.1399H27.3806C28.2481 13.1399 28.9513 13.8432 28.9513 14.7107V24.8744C28.9513 25.7419 28.2481 26.4452 27.3806 26.4452Z" fill="black"/>
<defs>
<filter id="filter0_d_1_1458" x="0.585327" y="0.851105" width="38.8069" height="39.7309" filterUnits="userSpaceOnUse" color-interpolation-filters="sRGB">
<feFlood flood-opacity="0" result="BackgroundImageFix"/>
<feColorMatrix in="SourceAlpha" type="matrix" values="0 0 0 0 0 0 0 0 0 0 0 0 0 0 0 0 0 0 127 0" result="hardAlpha"/>
<feOffset dy="0.923973"/>
<feColorMatrix type="matrix" values="0 0 0 0 0 0 0 0 0 0 0 0 0 0 0 0 0 0 0.3 0"/>
<feBlend mode="normal" in2="BackgroundImageFix" result="effect1_dropShadow_1_1458"/>
<feBlend mode="normal" in="SourceGraphic" in2="effect1_dropShadow_1_1458" result="shape"/>
</filter>
</defs>
</svg>
