<svg width="40" height="41" viewBox="0 0 40 41" fill="none" xmlns="http://www.w3.org/2000/svg">
<g filter="url(#filter0_d_1_1775)">
<rect x="0.891724" y="0.851105" width="38.8069" height="38.8069" rx="4.25028" fill="#ABB0BC"/>
</g>
<path d="M19.1073 17.5058C18.8367 17.2352 18.8367 16.7965 19.1073 16.5258C19.378 16.2552 19.8167 16.2552 20.0873 16.5258L22.3741 18.8126L24.6608 16.5258C24.9314 16.2552 25.3702 16.2552 25.6409 16.5258C25.9114 16.7964 25.9114 17.2352 25.6409 17.5058L23.3541 19.7925L25.6409 22.0793C25.9114 22.3499 25.9114 22.7887 25.6409 23.0593C25.3702 23.3299 24.9314 23.3299 24.6608 23.0593L22.3741 20.7726L20.0873 23.0593C19.8167 23.3299 19.378 23.3299 19.1074 23.0593C18.8367 22.7886 18.8367 22.3499 19.1074 22.0792L21.3941 19.7926L19.1073 17.5058Z" fill="black"/>
<path fill-rule="evenodd" clip-rule="evenodd" d="M16.2494 12.7506L9.20752 19.7925L16.2494 26.8345C16.7693 27.3543 17.4743 27.6463 18.2095 27.6463H27.687C29.2179 27.6463 30.4589 26.4053 30.4589 24.8744V14.7107C30.4589 13.1798 29.2179 11.9388 27.687 11.9388H18.2095C17.4743 11.9388 16.7693 12.2308 16.2494 12.7506ZM27.687 26.4452H18.2095C17.7928 26.4452 17.3933 26.2796 17.0987 25.9851L10.9062 19.7925L17.0987 13.6C17.3933 13.3054 17.7928 13.1399 18.2095 13.1399H27.687C28.5545 13.1399 29.2577 13.8432 29.2577 14.7107V24.8744C29.2577 25.7419 28.5545 26.4452 27.687 26.4452Z" fill="black"/>
<defs>
<filter id="filter0_d_1_1775" x="0.891724" y="0.851105" width="38.8069" height="39.7309" filterUnits="userSpaceOnUse" color-interpolation-filters="sRGB">
<feFlood flood-opacity="0" result="BackgroundImageFix"/>
<feColorMatrix in="SourceAlpha" type="matrix" values="0 0 0 0 0 0 0 0 0 0 0 0 0 0 0 0 0 0 127 0" result="hardAlpha"/>
<feOffset dy="0.923973"/>
<feColorMatrix type="matrix" values="0 0 0 0 0 0 0 0 0 0 0 0 0 0 0 0 0 0 0.3 0"/>
<feBlend mode="normal" in2="BackgroundImageFix" result="effect1_dropShadow_1_1775"/>
<feBlend mode="normal" in="SourceGraphic" in2="effect1_dropShadow_1_1775" result="shape"/>
</filter>
</defs>
</svg>
