<svg width="118" height="46" viewBox="0 0 118 46" fill="none" xmlns="http://www.w3.org/2000/svg">
<path d="M58.0477 20.0251C57.7548 19.7322 57.7548 19.2574 58.0477 18.9645C58.3406 18.6716 58.8155 18.6716 59.1083 18.9645L61.5833 21.4394L64.0582 18.9645C64.351 18.6716 64.8259 18.6716 65.1188 18.9645C65.4117 19.2573 65.4117 19.7322 65.1188 20.0251L62.6439 22.5L65.1188 24.9749C65.4117 25.2678 65.4117 25.7427 65.1188 26.0355C64.8259 26.3284 64.351 26.3284 64.0582 26.0355L61.5833 23.5607L59.1083 26.0355C58.8155 26.3284 58.3406 26.3284 58.0478 26.0355C57.7548 25.7426 57.7548 25.2678 58.0478 24.9749L60.5226 22.5001L58.0477 20.0251Z" fill="black"/>
<path fill-rule="evenodd" clip-rule="evenodd" d="M54.9547 14.8787L47.3333 22.5L54.9547 30.1213C55.5173 30.684 56.2803 31 57.076 31H67.3333C68.9902 31 70.3333 29.6569 70.3333 28V17C70.3333 15.3431 68.9902 14 67.3333 14H57.076C56.2803 14 55.5173 14.3161 54.9547 14.8787ZM67.3333 29.7H57.076C56.6251 29.7 56.1927 29.5209 55.8738 29.2021L49.1718 22.5L55.8738 15.7979C56.1927 15.4791 56.6251 15.3 57.076 15.3H67.3333C68.2722 15.3 69.0333 16.0611 69.0333 17V28C69.0333 28.9389 68.2722 29.7 67.3333 29.7Z" fill="black"/>
</svg>
