<svg width="23" height="23" viewBox="0 0 23 23" fill="none" xmlns="http://www.w3.org/2000/svg">
<path d="M11.6354 14.0619C11.1557 14.0619 10.6867 13.9196 10.2879 13.6531C9.889 13.3866 9.57813 13.0078 9.39456 12.5646C9.21098 12.1214 9.16295 11.6337 9.25653 11.1632C9.35012 10.6928 9.58112 10.2606 9.92032 9.92138C10.2595 9.58218 10.6917 9.35118 11.1622 9.25759C11.6327 9.16401 12.1203 9.21204 12.5635 9.39561C13.0067 9.57919 13.3855 9.89006 13.652 10.2889C13.9185 10.6878 14.0608 11.1567 14.0608 11.6364C14.0585 12.279 13.8022 12.8946 13.3479 13.3489C12.8935 13.8033 12.2779 14.0596 11.6354 14.0619ZM14.0608 4.70662C14.0608 4.22692 13.9185 3.75798 13.652 3.35912C13.3855 2.96026 13.0067 2.64939 12.5635 2.46581C12.1203 2.28224 11.6327 2.23421 11.1622 2.32779C10.6917 2.42138 10.2595 2.65238 9.92032 2.99158C9.58112 3.33078 9.35012 3.76295 9.25653 4.23344C9.16295 4.70393 9.21098 5.1916 9.39456 5.63479C9.57813 6.07798 9.889 6.45678 10.2879 6.72329C10.6867 6.9898 11.1557 7.13205 11.6354 7.13205C12.2779 7.12977 12.8935 6.8735 13.3479 6.41914C13.8022 5.96477 14.0585 5.34918 14.0608 4.70662ZM14.0608 18.5662C14.0608 18.0865 13.9185 17.6176 13.652 17.2187C13.3855 16.8199 13.0067 16.509 12.5635 16.3254C12.1203 16.1418 11.6327 16.0938 11.1622 16.1874C10.6917 16.281 10.2595 16.512 9.92032 16.8512C9.58112 17.1904 9.35012 17.6226 9.25653 18.093C9.16295 18.5635 9.21098 19.0512 9.39456 19.4944C9.57813 19.9376 9.889 20.3164 10.2879 20.5829C10.6867 20.8494 11.1557 20.9916 11.6354 20.9916C12.2779 20.9894 12.8935 20.7331 13.3479 20.2787C13.8022 19.8244 14.0585 19.2088 14.0608 18.5662Z" fill="white"/>
</svg>
