<svg width="44" height="45" viewBox="0 0 44 45" fill="none" xmlns="http://www.w3.org/2000/svg">
<path d="M22 0.5L28.1185 3.66908L34.9313 4.70163L38.0185 10.8619L42.9232 15.7016L41.8 22.5L42.9232 29.2984L38.0185 34.1381L34.9313 40.2984L28.1185 41.3309L22 44.5L15.8815 41.3309L9.06872 40.2984L5.98146 34.1381L1.07676 29.2984L2.2 22.5L1.07676 15.7016L5.98146 10.8619L9.06872 4.70163L15.8815 3.66908L22 0.5Z" fill="#27AE60"/>
<path d="M31 14L14 31" stroke="white" stroke-width="3" stroke-linecap="round" stroke-linejoin="round"/>
<path d="M16.5 20C18.433 20 20 18.433 20 16.5C20 14.567 18.433 13 16.5 13C14.567 13 13 14.567 13 16.5C13 18.433 14.567 20 16.5 20Z" stroke="white" stroke-width="3" stroke-linecap="round" stroke-linejoin="round"/>
<path d="M28.5 32C30.433 32 32 30.433 32 28.5C32 26.567 30.433 25 28.5 25C26.567 25 25 26.567 25 28.5C25 30.433 26.567 32 28.5 32Z" stroke="white" stroke-width="3" stroke-linecap="round" stroke-linejoin="round"/>
</svg>
