<svg width="59" height="115" viewBox="0 0 59 115" fill="none" xmlns="http://www.w3.org/2000/svg">
<path d="M0 0H49C54.5228 0 59 4.47715 59 10V105C59 110.523 54.5228 115 49 115H0V0Z" fill="#EB5757"/>
<path fill-rule="evenodd" clip-rule="evenodd" d="M38.2871 51.243C38.6761 51.243 39 51.566 39 51.977V52.357C39 52.758 38.6761 53.0909 38.2871 53.0909H21.7139C21.3239 53.0909 21 52.758 21 52.357V51.977C21 51.566 21.3239 51.243 21.7139 51.243H24.6296C25.2218 51.243 25.7373 50.822 25.8705 50.228L26.0232 49.546C26.2605 48.617 27.0415 48 27.9353 48H32.0647C32.9488 48 33.7385 48.617 33.967 49.497L34.1304 50.227C34.2627 50.822 34.7781 51.243 35.3714 51.243H38.2871ZM36.8058 65.134C37.1102 62.2971 37.6432 55.5571 37.6432 55.4891C37.6626 55.2831 37.5955 55.0881 37.4623 54.9311C37.3193 54.7841 37.1384 54.6971 36.9391 54.6971H23.0685C22.8682 54.6971 22.6776 54.7841 22.5453 54.9311C22.4111 55.0881 22.3449 55.2831 22.3547 55.4891C22.3565 55.5016 22.3756 55.739 22.4076 56.1359C22.5496 57.8992 22.9452 62.8102 23.2008 65.134C23.3817 66.846 24.505 67.922 26.1321 67.961C27.3876 67.99 28.6811 68 30.0038 68C31.2496 68 32.5149 67.99 33.8094 67.961C35.4929 67.932 36.6152 66.875 36.8058 65.134Z" fill="white"/>
</svg>
