<svg width="62" height="62" viewBox="0 0 62 62" fill="none" xmlns="http://www.w3.org/2000/svg">
<rect width="62" height="62" rx="10" fill="#F2F2F2"/>
<g filter="url(#filter0_d_41_5423)">
<path d="M46.5208 34.8706C44.3836 43.442 35.7012 48.6585 27.1279 46.521C18.5581 44.384 13.3411 35.7021 15.4793 27.1312C17.6155 18.5588 26.2978 13.3418 34.8687 15.4788C43.4415 17.6158 48.658 26.2987 46.5208 34.8706Z" fill="#F7931A"/>
<path d="M38.0548 28.7206C38.3734 26.5916 36.7522 25.4472 34.5355 24.6837L35.2546 21.7997L33.4989 21.3622L32.7988 24.1702C32.3373 24.0552 31.8632 23.9467 31.3922 23.8392L32.0973 21.0127L30.3426 20.5752L29.623 23.4582C29.241 23.3712 28.866 23.2852 28.5019 23.1947L28.5039 23.1857L26.0827 22.5812L25.6157 24.4562C25.6157 24.4562 26.9183 24.7547 26.8908 24.7732C27.6018 24.9506 27.7303 25.4211 27.7088 25.7941L26.8898 29.0796C26.9388 29.0921 27.0023 29.1101 27.0723 29.1381C27.0138 29.1236 26.9513 29.1076 26.8868 29.0921L25.7387 33.6946C25.6516 33.9106 25.4311 34.2346 24.9341 34.1116C24.9516 34.1371 23.658 33.7931 23.658 33.7931L22.7864 35.8026L25.0711 36.372C25.4961 36.4785 25.9127 36.59 26.3227 36.695L25.5962 39.612L27.3498 40.0495L28.0694 37.1635C28.5484 37.2935 29.0135 37.4135 29.4685 37.5265L28.7515 40.399L30.5071 40.8365L31.2337 37.925C34.2275 38.4915 36.4787 38.263 37.4263 35.5555C38.1899 33.3756 37.3883 32.1181 35.8131 31.2981C36.9602 31.0336 37.8243 30.2791 38.0548 28.7206ZM34.0435 34.3451C33.5009 36.525 29.8301 35.3465 28.6399 35.051L29.604 31.1866C30.7941 31.4836 34.6105 32.0716 34.0435 34.3451ZM34.5865 28.6891C34.0915 30.6721 31.0362 29.6646 30.0451 29.4176L30.9192 25.9127C31.9103 26.1596 35.1021 26.6206 34.5865 28.6891Z" fill="white"/>
</g>
<defs>
<filter id="filter0_d_41_5423" x="12" y="13" width="37.9998" height="38" filterUnits="userSpaceOnUse" color-interpolation-filters="sRGB">
<feFlood flood-opacity="0" result="BackgroundImageFix"/>
<feColorMatrix in="SourceAlpha" type="matrix" values="0 0 0 0 0 0 0 0 0 0 0 0 0 0 0 0 0 0 127 0" result="hardAlpha"/>
<feOffset dy="1"/>
<feGaussianBlur stdDeviation="1.5"/>
<feColorMatrix type="matrix" values="0 0 0 0 0.129412 0 0 0 0 0.105882 0 0 0 0 0.305882 0 0 0 0.15 0"/>
<feBlend mode="normal" in2="BackgroundImageFix" result="effect1_dropShadow_41_5423"/>
<feBlend mode="normal" in="SourceGraphic" in2="effect1_dropShadow_41_5423" result="shape"/>
</filter>
</defs>
</svg>
