<svg width="62" height="62" viewBox="0 0 62 62" fill="none" xmlns="http://www.w3.org/2000/svg">
<rect width="62" height="62" rx="10" fill="#F2F2F2"/>
<path d="M38.029 21.1785C36.9361 19.9329 34.9607 19.3988 32.4336 19.3988H25.099C24.8489 19.3987 24.6069 19.4879 24.4166 19.6503C24.2263 19.8127 24.1002 20.0376 24.061 20.2847L21.0084 39.6548C20.9942 39.7447 20.9997 39.8365 21.0245 39.9241C21.0493 40.0116 21.0927 40.0927 21.1518 40.1619C21.211 40.231 21.2844 40.2865 21.367 40.3245C21.4497 40.3625 21.5396 40.3821 21.6305 40.3821H26.1586L27.2958 33.169L27.2605 33.3948C27.299 33.1483 27.4242 32.9235 27.6137 32.7611C27.8032 32.5987 28.0444 32.5092 28.294 32.509H30.4457C34.6728 32.509 37.9826 30.792 38.9495 25.8253C38.9782 25.6784 39.003 25.5354 39.0245 25.3957C39.3118 23.56 39.0226 22.3105 38.0296 21.1791" fill="#003087"/>
<path d="M38.029 21.1785C36.9361 19.9329 34.9607 19.3988 32.4336 19.3988H25.099C24.8489 19.3987 24.6069 19.4879 24.4166 19.6503C24.2263 19.8127 24.1002 20.0376 24.061 20.2847L21.0084 39.6548C20.9942 39.7447 20.9997 39.8365 21.0245 39.9241C21.0493 40.0116 21.0927 40.0927 21.1518 40.1619C21.211 40.231 21.2844 40.2865 21.367 40.3245C21.4497 40.3625 21.5396 40.3821 21.6305 40.3821H26.1586L27.2958 33.169L27.2605 33.3948C27.299 33.1483 27.4242 32.9235 27.6137 32.7611C27.8032 32.5987 28.0444 32.5092 28.294 32.509H30.4457C34.6728 32.509 37.9826 30.792 38.9495 25.8253C38.9782 25.6784 39.003 25.5354 39.0245 25.3957C39.3118 23.56 39.0226 22.3105 38.0296 21.1791" fill="#003087"/>
<path d="M28.5173 25.4201C28.5516 25.2042 28.6617 25.0076 28.8279 24.8655C28.9941 24.7235 29.2054 24.6454 29.424 24.6451H35.1742C35.8551 24.6451 36.4903 24.6895 37.0706 24.7822C37.3879 24.8333 37.7019 24.9035 38.0107 24.9924C38.3614 25.0911 38.7008 25.2263 39.0232 25.3959C39.3118 23.5595 39.0219 22.3106 38.029 21.1786C36.9355 19.9337 34.9607 19.3997 32.4336 19.3997H25.0984C24.8485 19.3998 24.6068 19.4891 24.4168 19.6515C24.2267 19.8139 24.1008 20.0387 24.0617 20.2856L21.0078 39.6537C20.9935 39.7435 20.9989 39.8354 21.0236 39.923C21.0483 40.0105 21.0916 40.0917 21.1507 40.1609C21.2098 40.2301 21.2832 40.2857 21.3658 40.3237C21.4484 40.3618 21.5383 40.3816 21.6293 40.3816H26.1579L27.2952 33.1678L28.5173 25.4201Z" fill="#003087"/>
<path d="M39.0237 25.3952C39.0013 25.5388 38.9763 25.682 38.9487 25.8247C37.9818 30.7908 34.672 32.5084 30.4449 32.5084H28.2925C28.043 32.5086 27.8018 32.5979 27.6124 32.7604C27.423 32.9229 27.2979 33.1477 27.2598 33.3943L26.1578 40.3808L25.8444 42.3628C25.832 42.4415 25.8367 42.522 25.8584 42.5986C25.88 42.6753 25.918 42.7464 25.9697 42.807C26.0215 42.8675 26.0858 42.9161 26.1581 42.9495C26.2305 42.9828 26.3092 43 26.3889 43H30.206C30.6577 43 31.0416 42.671 31.1128 42.2251L31.15 42.0305L31.8694 37.4712L31.9151 37.2192C31.9493 37.0031 32.0595 36.8064 32.2258 36.6643C32.3922 36.5223 32.6038 36.4442 32.8225 36.4443H33.3937C37.0914 36.4443 39.9867 34.9428 40.8327 30.5975C41.1853 28.7827 41.0025 27.2662 40.0689 26.2014C39.7725 25.8713 39.4183 25.5981 39.0237 25.3952Z" fill="#009CDE"/>
<path d="M38.0112 24.9924C37.8637 24.9486 37.7116 24.9095 37.5549 24.8749C37.3982 24.8403 37.2363 24.8096 37.0705 24.7835C36.4895 24.6888 35.8549 24.6444 35.1734 24.6444H29.4239C29.2051 24.6441 28.9933 24.7222 28.827 24.8644C28.6607 25.0067 28.5508 25.2037 28.5171 25.42L27.295 33.1691L27.2598 33.3943C27.2979 33.1477 27.423 32.9229 27.6124 32.7604C27.8018 32.598 28.043 32.5086 28.2925 32.5084H30.4449C34.672 32.5084 37.9818 30.7915 38.9487 25.8247C38.9774 25.6778 39.0016 25.5355 39.0238 25.3952C38.7684 25.2616 38.5025 25.1493 38.2286 25.0596C38.1574 25.0361 38.085 25.0146 38.0112 24.9924Z" fill="#012169"/>
</svg>
