<svg width="24" height="24" viewBox="0 0 24 24" fill="none" xmlns="http://www.w3.org/2000/svg">
<path opacity="0.4" fill-rule="evenodd" clip-rule="evenodd" d="M12 2.25C4.802 2.25 2.25 4.802 2.25 12C2.25 19.198 4.802 21.75 12 21.75C19.198 21.75 21.75 19.198 21.75 12C21.75 4.802 19.198 2.25 12 2.25Z" fill="#FE9370"/>
<path d="M11.9961 9.25H12.0051C12.4191 9.25 12.7511 8.914 12.7511 8.5C12.7511 8.086 12.4101 7.75 11.9961 7.75C11.5821 7.75 11.2461 8.086 11.2461 8.5C11.2461 8.914 11.5821 9.25 11.9961 9.25Z" fill="#FE9370"/>
<path d="M12.0001 16.645C12.4141 16.645 12.7501 16.309 12.7501 15.895V12C12.7501 11.586 12.4141 11.25 12.0001 11.25C11.5861 11.25 11.2501 11.586 11.2501 12V15.895C11.2501 16.309 11.5861 16.645 12.0001 16.645Z" fill="#FE9370"/>
</svg>
