<svg width="18" height="18" viewBox="0 0 18 18" fill="none" xmlns="http://www.w3.org/2000/svg">
<path d="M13.4387 10.7401C13.2444 10.9284 13.1552 11.2006 13.1994 11.4676L13.8662 15.1576C13.9224 15.4704 13.7904 15.7869 13.5287 15.9676C13.2722 16.1551 12.9309 16.1776 12.6512 16.0276L9.32942 14.2951C9.21392 14.2336 9.08567 14.2006 8.95442 14.1969H8.75117C8.68067 14.2074 8.61167 14.2299 8.54867 14.2644L5.22617 16.0051C5.06192 16.0876 4.87592 16.1169 4.69367 16.0876C4.24967 16.0036 3.95342 15.5806 4.02617 15.1344L4.69367 11.4444C4.73792 11.1751 4.64867 10.9014 4.45442 10.7101L1.74617 8.08512C1.51967 7.86537 1.44092 7.53537 1.54442 7.23762C1.64492 6.94062 1.90142 6.72387 2.21117 6.67512L5.93867 6.13437C6.22217 6.10512 6.47117 5.93262 6.59867 5.67762L8.24117 2.31012C8.28017 2.23512 8.33042 2.16612 8.39117 2.10762L8.45867 2.05512C8.49392 2.01612 8.53442 1.98387 8.57942 1.95762L8.66117 1.92762L8.78867 1.87512H9.10442C9.38642 1.90437 9.63467 2.07312 9.76442 2.32512L11.4287 5.67762C11.5487 5.92287 11.7819 6.09312 12.0512 6.13437L15.7787 6.67512C16.0937 6.72012 16.3569 6.93762 16.4612 7.23762C16.5594 7.53837 16.4747 7.86837 16.2437 8.08512L13.4387 10.7401Z" fill="#F2C94C"/>
</svg>
