<svg width="23" height="23" viewBox="0 0 23 23" fill="none" xmlns="http://www.w3.org/2000/svg">
<path d="M8.93478 19.2506V16.417C8.93476 15.6963 9.52234 15.1107 10.2503 15.1058H12.917C13.6485 15.1058 14.2414 15.6929 14.2414 16.417V16.417V19.2594C14.2413 19.8713 14.7346 20.3714 15.3525 20.3858H17.1303C18.9025 20.3858 20.3392 18.9635 20.3392 17.209V17.209V9.14828C20.3297 8.45806 20.0024 7.80991 19.4503 7.38829L13.3703 2.53953C12.3052 1.69526 10.791 1.69526 9.72589 2.53953L3.67258 7.39709C3.11841 7.817 2.79052 8.46623 2.78369 9.15708V17.209C2.78369 18.9635 4.22035 20.3858 5.99257 20.3858H7.77034C8.40362 20.3858 8.917 19.8775 8.917 19.2506V19.2506" stroke="#BDBDBD" stroke-width="1.38596" stroke-linecap="round" stroke-linejoin="round"/>
</svg>
