<svg width="17" height="18" viewBox="0 0 17 18" fill="none" xmlns="http://www.w3.org/2000/svg">
<path d="M12.6147 10.3878C12.4352 10.5617 12.3528 10.8133 12.3937 11.06L13.0097 14.4695C13.0617 14.7584 12.9397 15.0509 12.6979 15.2179C12.4609 15.3911 12.1456 15.4119 11.8871 15.2733L8.81788 13.6725C8.71116 13.6157 8.59266 13.5852 8.47139 13.5817H8.28359C8.21845 13.5914 8.1547 13.6122 8.09649 13.6441L5.02658 15.2525C4.87482 15.3287 4.70296 15.3558 4.53457 15.3287C4.12432 15.2511 3.8506 14.8603 3.91782 14.448L4.53457 11.0385C4.57545 10.7897 4.49299 10.5368 4.31351 10.3601L1.81116 7.93465C1.60188 7.73161 1.52911 7.4267 1.62474 7.15158C1.7176 6.87716 1.9546 6.67689 2.2408 6.63185L5.68491 6.13221C5.94686 6.10518 6.17693 5.9458 6.29474 5.71019L7.81236 2.59871C7.8484 2.52941 7.89483 2.46565 7.95096 2.4116L8.01333 2.36309C8.0459 2.32706 8.08332 2.29726 8.1249 2.27301L8.20043 2.24529L8.31824 2.19678H8.60998C8.87054 2.2238 9.09992 2.37972 9.21981 2.61257L10.7575 5.71019C10.8684 5.93679 11.0839 6.0941 11.3327 6.13221L14.7768 6.63185C15.0679 6.67343 15.3111 6.87439 15.4074 7.15158C15.4982 7.42947 15.4199 7.73438 15.2065 7.93465L12.6147 10.3878Z" fill="#F2C94C"/>
</svg>
