<svg width="18" height="27" viewBox="0 0 18 27" fill="none" xmlns="http://www.w3.org/2000/svg">
<path d="M4.59006 13.1472C4.59006 15.9278 6.40572 17.8862 9.05561 17.8862C11.6932 17.8862 13.5089 15.9278 13.5089 13.1472V5.54299C13.5089 2.75034 11.6932 0.803955 9.05561 0.803955C6.40572 0.803955 4.59006 2.75034 4.59006 5.54299V13.1472ZM6.44253 13.1472V5.54299C6.44253 3.75376 7.48531 2.60527 9.05561 2.60527C10.6259 2.60527 11.6564 3.75376 11.6564 5.54299V13.1472C11.6564 14.9364 10.6259 16.0849 9.05561 16.0849C7.48531 16.0849 6.44253 14.9364 6.44253 13.1472ZM0.271729 13.5824C0.271729 18.3215 3.44914 21.646 8.12324 22.0329V24.8497H3.57182C3.05656 24.8497 2.63945 25.2608 2.63945 25.7685C2.63945 26.2763 3.05656 26.6752 3.57182 26.6752H14.5271C15.0424 26.6752 15.4595 26.2763 15.4595 25.7685C15.4595 25.2608 15.0424 24.8497 14.5271 24.8497H9.97571V22.0329C14.6621 21.646 17.8272 18.3215 17.8272 13.5824V11.1283C17.8272 10.6205 17.4224 10.2216 16.9071 10.2216C16.3919 10.2216 15.9748 10.6205 15.9748 11.1283V13.5099C15.9748 17.6324 13.2513 20.3646 9.05561 20.3646C4.84769 20.3646 2.12419 17.6324 2.12419 13.5099V11.1283C2.12419 10.6205 1.71935 10.2216 1.19183 10.2216C0.676572 10.2216 0.271729 10.6205 0.271729 11.1283V13.5824Z" fill="#50555C"/>
</svg>
