<svg width="24" height="23" viewBox="0 0 24 23" fill="none" xmlns="http://www.w3.org/2000/svg">
<path d="M19.3196 11.5918C19.3196 11.9426 19.0589 12.2326 18.7206 12.2785L18.6266 12.2848L4.767 12.2848C4.38428 12.2848 4.07402 11.9745 4.07402 11.5918C4.07402 11.241 4.33472 10.951 4.67297 10.9052L4.767 10.8988L18.6266 10.8988C19.0093 10.8988 19.3196 11.2091 19.3196 11.5918Z" fill="#2B2B53"/>
<path d="M10.8458 16.6671C11.117 16.9372 11.1179 17.376 10.8479 17.6472C10.6024 17.8937 10.2175 17.9169 9.94574 17.7162L9.86787 17.6493L4.27783 12.0833C4.03054 11.837 4.00805 11.4507 4.21035 11.179L4.27779 11.1012L9.86783 5.53423C10.139 5.26417 10.5778 5.26507 10.8478 5.53626C11.0934 5.78279 11.1149 6.16782 10.9131 6.4387L10.8458 6.51628L5.74915 11.5925L10.8458 16.6671Z" fill="#2B2B53"/>
</svg>
