<svg width="19" height="19" viewBox="0 0 19 19" fill="none" xmlns="http://www.w3.org/2000/svg">
<path fill-rule="evenodd" clip-rule="evenodd" d="M7.98011 14.7192H2.99182C2.66407 14.7192 2.39807 14.4532 2.39807 14.1255C2.39807 13.7977 2.66407 13.5317 2.99182 13.5317H7.98011C8.30786 13.5317 8.57386 13.7977 8.57386 14.1255C8.57386 14.4532 8.30786 14.7192 7.98011 14.7192" fill="white"/>
<path fill-rule="evenodd" clip-rule="evenodd" d="M15.1928 7.04614H10.2053C9.87757 7.04614 9.61157 6.78014 9.61157 6.45239C9.61157 6.12464 9.87757 5.85864 10.2053 5.85864H15.1928C15.5206 5.85864 15.7866 6.12464 15.7866 6.45239C15.7866 6.78014 15.5206 7.04614 15.1928 7.04614" fill="white"/>
<mask id="mask0_42_3042" style="mask-type:luminance" maskUnits="userSpaceOnUse" x="2" y="3" width="6" height="6">
<path fill-rule="evenodd" clip-rule="evenodd" d="M2.375 3.95862H7.30376V8.8603H2.375V3.95862Z" fill="white"/>
</mask>
<g mask="url(#mask0_42_3042)">
<path fill-rule="evenodd" clip-rule="evenodd" d="M4.83934 5.14575C4.13554 5.14575 3.56238 5.71259 3.56238 6.41004C3.56238 7.10671 4.13554 7.67275 4.83934 7.67275C5.54392 7.67275 6.11629 7.10671 6.11629 6.41004C6.11629 5.71259 5.54392 5.14575 4.83934 5.14575M4.83934 8.86025C3.48084 8.86025 2.37488 7.76142 2.37488 6.41004C2.37488 5.05867 3.48084 3.95825 4.83934 3.95825C6.19863 3.95825 7.30379 5.05867 7.30379 6.41004C7.30379 7.76142 6.19863 8.86025 4.83934 8.86025" fill="white"/>
</g>
<path fill-rule="evenodd" clip-rule="evenodd" d="M13.7653 12.8313C13.0607 12.8313 12.4875 13.3981 12.4875 14.0948C12.4875 14.7923 13.0607 15.3583 13.7653 15.3583C14.4691 15.3583 15.0415 14.7923 15.0415 14.0948C15.0415 13.3981 14.4691 12.8313 13.7653 12.8313M13.7653 16.5458C12.406 16.5458 11.3 15.4462 11.3 14.0948C11.3 12.7434 12.406 11.6438 13.7653 11.6438C15.1238 11.6438 16.229 12.7434 16.229 14.0948C16.229 15.4462 15.1238 16.5458 13.7653 16.5458" fill="white"/>
</svg>
