<svg width="14" height="15" viewBox="0 0 14 15" fill="none" xmlns="http://www.w3.org/2000/svg">
<path d="M11.7617 5.55484L6.63631 12.1829C6.40109 12.4839 6.05445 12.6532 5.68304 12.6595L3.64031 12.6846C3.52889 12.6846 3.43604 12.6093 3.41128 12.5027L2.94702 10.4899C2.86655 10.1199 2.94702 9.73738 3.18225 9.44266L6.81583 4.73965C6.87773 4.6644 6.98915 4.65249 7.06343 4.7083L8.59238 5.92481C8.69142 6.00633 8.8276 6.05022 8.96998 6.03141C9.27329 5.99379 9.47756 5.71788 9.44661 5.42315C9.42804 5.27266 9.35376 5.14724 9.25472 5.05318C9.22377 5.0281 7.7691 3.86176 7.7691 3.86176C7.67625 3.78651 7.65768 3.64855 7.73196 3.55512L8.30764 2.80828C8.83998 2.12478 9.7685 2.06207 10.5175 2.65779L11.3779 3.34129C11.7308 3.6172 11.966 3.9809 12.0464 4.36341C12.1393 4.78417 12.0403 5.19741 11.7617 5.55484Z" fill="white"/>
</svg>
