<svg width="25" height="25" viewBox="0 0 25 25" fill="none" xmlns="http://www.w3.org/2000/svg">
<path fill-rule="evenodd" clip-rule="evenodd" d="M19.5714 19.5699C16.5152 22.6263 11.9898 23.2867 8.28642 21.574C7.73971 21.3539 7.29148 21.176 6.86537 21.176C5.67849 21.183 4.20117 22.3339 3.43336 21.567C2.66555 20.7991 3.81726 19.3206 3.81726 18.1266C3.81726 17.7004 3.64642 17.2602 3.42632 16.7124C1.71283 13.0096 2.37411 8.48269 5.43026 5.42721C9.3316 1.52443 15.67 1.52443 19.5714 5.4262C23.4797 9.33501 23.4727 15.6681 19.5714 19.5699Z" stroke="#BDBDBD" stroke-width="1.5" stroke-linecap="round" stroke-linejoin="round"/>
<path d="M16.4393 12.9131H16.4483" stroke="#BDBDBD" stroke-width="2" stroke-linecap="round" stroke-linejoin="round"/>
<path d="M12.4306 12.9131H12.4396" stroke="#BDBDBD" stroke-width="2" stroke-linecap="round" stroke-linejoin="round"/>
<path d="M8.42128 12.9131H8.43028" stroke="#BDBDBD" stroke-width="2" stroke-linecap="round" stroke-linejoin="round"/>
</svg>
