<svg width="18" height="18" viewBox="0 0 18 18" fill="none" xmlns="http://www.w3.org/2000/svg">
<path d="M13.1814 10.5038C13.0019 10.6777 12.9194 10.9293 12.9603 11.176L13.5764 14.5854C13.6283 14.8744 13.5064 15.1668 13.2645 15.3338C13.0275 15.5071 12.7122 15.5279 12.4537 15.3893L9.38453 13.7885C9.27781 13.7317 9.15931 13.7012 9.03804 13.6977H8.85024C8.7851 13.7074 8.72135 13.7282 8.66314 13.7601L5.59323 15.3685C5.44147 15.4447 5.26961 15.4717 5.10122 15.4447C4.69097 15.3671 4.41725 14.9763 4.48447 14.5639L5.10122 11.1545C5.1421 10.9057 5.05964 10.6528 4.88016 10.476L2.37781 8.05062C2.16853 7.84758 2.09576 7.54266 2.1914 7.26755C2.28425 6.99313 2.52125 6.79286 2.80745 6.74782L6.25156 6.24818C6.51351 6.22115 6.74358 6.06177 6.86139 5.82615L8.37901 2.71467C8.41505 2.64537 8.46148 2.58162 8.51761 2.52757L8.57998 2.47906C8.61255 2.44302 8.64997 2.41323 8.69155 2.38897L8.76708 2.36125L8.88489 2.31274H9.17663C9.43719 2.33977 9.66657 2.49569 9.78646 2.72853L11.3242 5.82615C11.4351 6.05276 11.6506 6.21006 11.8994 6.24818L15.3435 6.74782C15.6345 6.78939 15.8777 6.99036 15.9741 7.26755C16.0649 7.54544 15.9865 7.85035 15.7731 8.05062L13.1814 10.5038Z" fill="#F2C94C"/>
</svg>
