<svg width="42" height="42" viewBox="0 0 42 42" fill="none" xmlns="http://www.w3.org/2000/svg">
<rect width="42" height="42" rx="10" fill="white"/>
<path opacity="0.4" d="M24.0633 16.9803V13.4456C23.3694 13.4456 22.794 12.8866 22.794 12.2125V8.00373C22.794 7.44311 22.337 7.00085 21.7616 7.00085H10.1344C6.47872 7.00085 3.5 9.89276 3.5 13.4456V17.702C3.5 18.0325 3.6354 18.3449 3.87234 18.575C4.10928 18.8036 4.43085 18.9351 4.76934 18.9351C6.05561 18.9351 7.03723 19.8229 7.03723 20.9902C7.03723 22.2084 6.03868 23.1784 4.78627 23.1932C4.09236 23.1932 3.5 23.67 3.5 24.3605V28.5709C3.5 32.1221 6.47872 34.9992 10.1175 34.9992H21.7616C22.337 34.9992 22.794 34.5537 22.794 33.9963V30.4435C22.794 29.7547 23.3694 29.2105 24.0633 29.2105V26.0226C23.3694 26.0226 22.794 25.462 22.794 24.7896V18.2134C22.794 17.5393 23.3694 16.9803 24.0633 16.9803Z" fill="white"/>
<path d="M34.9628 20.991C34.9628 22.2076 35.9782 23.1776 37.2137 23.194C37.9076 23.194 38.5 23.6708 38.5 24.3448V28.5701C38.5 32.1229 35.5382 35 31.8825 35H26.3651C25.8066 35 25.3327 34.5545 25.3327 33.9955V30.4443C25.3327 29.7538 24.7742 29.2113 24.0634 29.2113V26.0234C24.7742 26.0234 25.3327 25.4628 25.3327 24.7904V18.2141C25.3327 17.5384 24.7742 16.9811 24.0634 16.9811V13.4447C24.7742 13.4447 25.3327 12.8857 25.3327 12.2117V8.00452C25.3327 7.4439 25.8066 7 26.3651 7H31.8825C35.5382 7 38.5 9.87711 38.5 13.4283V17.5713C38.5 17.9001 38.3646 18.2141 38.1277 18.4427C37.8907 18.6728 37.5692 18.8044 37.2307 18.8044C35.9782 18.8044 34.9628 19.7924 34.9628 20.991Z" fill="white"/>
</svg>
