<svg width="27" height="27" viewBox="0 0 27 27" fill="none" xmlns="http://www.w3.org/2000/svg">
<path fill-rule="evenodd" clip-rule="evenodd" d="M13.9026 0.564209C21.0908 0.564209 26.918 6.3914 26.918 13.5796C26.918 20.7678 21.0908 26.595 13.9026 26.595C6.71439 26.595 0.887207 20.7678 0.887207 13.5796C0.887207 6.3914 6.71439 0.564209 13.9026 0.564209ZM13.9026 2.0805C20.2532 2.08122 25.4009 7.22986 25.4004 13.5805C25.3999 19.9311 20.2515 25.0789 13.9009 25.0787C7.55025 25.0784 2.4022 19.9302 2.4022 13.5796C2.40228 10.5296 3.614 7.60466 5.77076 5.44814C7.92752 3.29163 10.8526 2.08024 13.9026 2.0805ZM9.78517 7.93417C9.38288 7.92938 8.99547 8.08611 8.70968 8.36927C8.42388 8.65244 8.26358 9.03838 8.26465 9.4407C8.26465 10.2805 8.94541 10.9612 9.78517 10.9612C10.6249 10.9612 11.3057 10.2805 11.3057 9.4407C11.3068 9.03838 11.1465 8.65244 10.8607 8.36927C10.5749 8.08611 10.1875 7.92938 9.78517 7.93417ZM22.5764 15.8215C21.8833 19.5667 18.2686 22.6936 13.901 22.6936C9.56814 22.6936 5.9746 19.6122 5.24085 15.9093C5.09215 14.9853 5.849 14.7672 6.56191 14.9397C8.94684 15.6293 11.4201 15.9648 13.9026 15.9354C16.3794 15.9641 18.8471 15.6297 21.227 14.943C21.9201 14.7672 22.6623 14.9657 22.5764 15.8215ZM20.2235 16.3421C20.1558 16.3681 20.0872 16.3877 20.0179 16.4104C20.0107 16.4137 20.2398 16.3389 20.233 16.3421C18.175 16.9087 16.0477 17.1836 13.9133 17.1588C11.3662 17.1588 9.0882 16.8757 7.5205 16.3128C6.38393 15.9744 6.60194 17.3118 7.40076 17.7217C9.44435 18.6521 11.6678 19.1209 13.913 19.0949C16.5838 19.0949 18.9636 18.4734 20.5356 17.6697C21.2794 17.1914 21.4265 15.9093 20.2235 16.3421ZM18.0285 7.93417C17.6261 7.92938 17.2387 8.0861 16.9529 8.36925C16.667 8.65241 16.5066 9.03835 16.5076 9.4407C16.4996 9.98929 16.7877 10.4997 17.2615 10.7763C17.7353 11.053 18.3213 11.053 18.7951 10.7763C19.2689 10.4997 19.557 9.98929 19.549 9.4407C19.55 9.03841 19.3896 8.65252 19.1039 8.36937C18.8181 8.08623 18.4307 7.92947 18.0285 7.93417Z" fill="#50555C"/>
</svg>
