<svg width="18" height="17" viewBox="0 0 18 17" fill="none" xmlns="http://www.w3.org/2000/svg">
<path d="M13.3949 10.2641C13.2154 10.438 13.133 10.6896 13.1739 10.9363L13.7899 14.3457C13.8419 14.6347 13.7199 14.9271 13.4781 15.0942C13.2411 15.2674 12.9258 15.2882 12.6673 15.1496L9.59809 13.5488C9.49137 13.492 9.37287 13.4615 9.2516 13.458H9.0638C8.99866 13.4677 8.93491 13.4885 8.8767 13.5204L5.8068 15.1288C5.65503 15.205 5.48317 15.2321 5.31478 15.205C4.90454 15.1274 4.63081 14.7366 4.69803 14.3243L5.31478 10.9148C5.35567 10.666 5.2732 10.4131 5.09372 10.2364L2.59137 7.81093C2.38209 7.60789 2.30933 7.30298 2.40496 7.02787C2.49782 6.75345 2.73482 6.55317 3.02102 6.50813L6.46513 6.00849C6.72707 5.98147 6.95714 5.82208 7.07495 5.58647L8.59258 2.47499C8.62861 2.40569 8.67504 2.34194 8.73117 2.28788L8.79354 2.23937C8.82611 2.20334 8.86353 2.17354 8.90511 2.14929L8.98064 2.12157L9.09845 2.07306H9.3902C9.65076 2.10009 9.88013 2.25601 10 2.48885L11.5377 5.58647C11.6486 5.81307 11.8641 5.97038 12.1129 6.00849L15.557 6.50813C15.8481 6.54971 16.0913 6.75067 16.1876 7.02787C16.2784 7.30575 16.2001 7.61066 15.9867 7.81093L13.3949 10.2641Z" fill="#F2C94C"/>
</svg>
