<svg width="24" height="25" viewBox="0 0 24 25" fill="none" xmlns="http://www.w3.org/2000/svg">
<path fill-rule="evenodd" clip-rule="evenodd" d="M16.2966 16.0383C16.3775 17.8704 14.8989 19.4196 12.9944 19.4975C12.8541 19.5034 6.01507 19.4896 6.01507 19.4896C4.11972 19.6335 2.46091 18.2715 2.31141 16.4463C2.30014 16.3103 2.30322 8.97219 2.30322 8.97219C2.21925 7.13815 3.6958 5.58499 5.60139 5.50418C5.74372 5.49728 12.5735 5.51009 12.5735 5.51009C14.4781 5.36818 16.142 6.74001 16.2895 8.57405C16.2997 8.7061 16.2966 16.0383 16.2966 16.0383Z" stroke="#2B2B53" stroke-width="1.5" stroke-linecap="round" stroke-linejoin="round"/>
<path d="M16.2998 10.4798L19.5928 7.78484C20.4088 7.11684 21.6328 7.69884 21.6318 8.75184L21.6198 16.1008C21.6188 17.1538 20.3938 17.7308 19.5798 17.0628L16.2998 14.3678" stroke="#2B2B53" stroke-width="1.5" stroke-linecap="round" stroke-linejoin="round"/>
</svg>
