<svg width="28" height="28" viewBox="0 0 28 28" fill="none" xmlns="http://www.w3.org/2000/svg">
<path fill-rule="evenodd" clip-rule="evenodd" d="M25.3574 19.6233C24.4708 16.8116 22.0908 15.2016 18.8241 15.2016H18.7774C17.3424 15.2016 16.0941 15.5166 15.0441 16.0883C17.6808 17.0449 19.6408 19.0166 20.5508 21.7583C22.2891 21.5716 23.8174 21.0816 25.1008 20.2999L25.4974 20.0549L25.3574 19.6233Z" fill="#4F4F4F"/>
<path fill-rule="evenodd" clip-rule="evenodd" d="M16.2808 12.8216C16.9924 13.3233 17.8674 13.6266 18.8008 13.6266C21.2041 13.6266 23.1641 11.6666 23.1641 9.2516C23.1641 6.84827 21.2041 4.88827 18.8008 4.88827C18.1241 4.88827 17.4941 5.03993 16.9224 5.31993C17.4708 6.28827 17.7858 7.40827 17.7858 8.59827C17.7858 10.1966 17.2258 11.6666 16.2808 12.8216Z" fill="#4F4F4F"/>
<path fill-rule="evenodd" clip-rule="evenodd" d="M19.3491 21.8399C18.4274 19.3316 16.5141 17.6283 13.9008 16.9399C13.0491 16.7066 12.1041 16.5899 11.1008 16.5899H11.0424C6.84244 16.5899 3.78577 18.6549 2.64244 22.2599L2.50244 22.6916L2.89911 22.9249C5.11577 24.2899 7.77577 24.9433 11.0074 24.9433H11.0658C14.3791 24.9549 17.0158 24.2899 19.2441 22.9249L19.6408 22.6916L19.5008 22.2599C19.4541 22.1199 19.4074 21.9799 19.3491 21.8399Z" fill="#4F4F4F"/>
<path fill-rule="evenodd" clip-rule="evenodd" d="M11.0657 14.1516C12.8391 14.1516 14.4141 13.3116 15.4291 12.0166C16.1757 11.0833 16.6191 9.89326 16.6191 8.59826C16.6191 7.64159 16.3741 6.74326 15.9541 5.96159C15.0091 4.23492 13.1774 3.05659 11.0657 3.05659C8.00907 3.05659 5.52407 5.54159 5.52407 8.59826C5.52407 11.6549 8.00907 14.1516 11.0657 14.1516Z" fill="#4F4F4F"/>
</svg>
