<svg width="18" height="18" viewBox="0 0 18 18" fill="none" xmlns="http://www.w3.org/2000/svg">
<path opacity="0.4" d="M16.4998 8.99988C16.4998 13.1429 13.1421 16.4999 8.99985 16.4999C4.8576 16.4999 1.49985 13.1429 1.49985 8.99988C1.49985 4.85838 4.8576 1.49988 8.99985 1.49988C13.1421 1.49988 16.4998 4.85838 16.4998 8.99988Z" fill="#FE9370"/>
<path d="M11.6801 11.8607C11.5819 11.8607 11.4829 11.8352 11.3921 11.782L8.44761 10.0255C8.27811 9.92347 8.17386 9.73972 8.17386 9.54172V5.75647C8.17386 5.44597 8.42586 5.19397 8.73636 5.19397C9.04686 5.19397 9.29886 5.44597 9.29886 5.75647V9.22222L11.9689 10.8145C12.2351 10.9742 12.3229 11.3192 12.1639 11.5862C12.0581 11.7625 11.8714 11.8607 11.6801 11.8607Z" fill="#FE9370"/>
</svg>
