<svg width="18" height="17" viewBox="0 0 18 17" fill="none" xmlns="http://www.w3.org/2000/svg">
<path d="M13.4104 10.2641C13.2309 10.438 13.1484 10.6896 13.1893 10.9363L13.8054 14.3457C13.8573 14.6347 13.7354 14.9271 13.4935 15.0942C13.2565 15.2674 12.9412 15.2882 12.6827 15.1496L9.61353 13.5488C9.50681 13.492 9.38831 13.4615 9.26704 13.458H9.07924C9.0141 13.4677 8.95035 13.4885 8.89214 13.5204L5.82224 15.1288C5.67048 15.205 5.49862 15.2321 5.33022 15.205C4.91998 15.1274 4.64625 14.7366 4.71347 14.3243L5.33022 10.9148C5.37111 10.666 5.28864 10.4131 5.10916 10.2364L2.60681 7.81093C2.39753 7.60789 2.32477 7.30298 2.4204 7.02787C2.51326 6.75345 2.75026 6.55317 3.03646 6.50813L6.48057 6.00849C6.74252 5.98147 6.97258 5.82208 7.09039 5.58647L8.60802 2.47499C8.64405 2.40569 8.69048 2.34194 8.74661 2.28788L8.80898 2.23937C8.84155 2.20334 8.87897 2.17354 8.92055 2.14929L8.99609 2.12157L9.11389 2.07306H9.40564C9.6662 2.10009 9.89557 2.25601 10.0155 2.48885L11.5532 5.58647C11.6641 5.81307 11.8796 5.97038 12.1284 6.00849L15.5725 6.50813C15.8635 6.54971 16.1068 6.75067 16.2031 7.02787C16.2939 7.30575 16.2156 7.61066 16.0021 7.81093L13.4104 10.2641Z" fill="#F2C94C"/>
</svg>
