<svg width="29" height="29" viewBox="0 0 29 29" fill="none" xmlns="http://www.w3.org/2000/svg">
<path fill-rule="evenodd" clip-rule="evenodd" d="M10.3091 3.54856C12.9492 2.01458 16.1942 2.04139 18.8095 3.61879C21.399 5.22831 22.9729 8.10084 22.9582 11.1909C22.8979 14.2606 21.2103 17.1462 19.1008 19.3769C17.8832 20.6702 16.5212 21.8138 15.0424 22.7843C14.8901 22.8724 14.7233 22.9314 14.5502 22.9583C14.3836 22.9512 14.2213 22.902 14.0781 22.815C11.8205 21.3567 9.83994 19.4953 8.23165 17.3202C6.88588 15.5045 6.1213 13.311 6.04175 11.0374C6.04 7.94142 7.66909 5.08253 10.3091 3.54856ZM11.8347 12.3187C12.2788 13.4135 13.327 14.1276 14.4899 14.1276C15.2518 14.1331 15.9841 13.8279 16.5238 13.2801C17.0635 12.7323 17.3656 11.9874 17.3629 11.2113C17.367 10.0268 16.6696 8.9565 15.5964 8.50031C14.5231 8.04412 13.2858 8.29197 12.462 9.12813C11.6383 9.96429 11.3906 11.2238 11.8347 12.3187Z" fill="#EB5757"/>
<ellipse opacity="0.4" cx="14.5002" cy="25.375" rx="6.04167" ry="1.20833" fill="#EB5757"/>
</svg>
