<svg width="18" height="17" viewBox="0 0 18 17" fill="none" xmlns="http://www.w3.org/2000/svg">
<path d="M12.8438 10.2641C12.6643 10.438 12.5818 10.6896 12.6227 10.9363L13.2388 14.3457C13.2908 14.6347 13.1688 14.9271 12.9269 15.0942C12.6899 15.2674 12.3746 15.2882 12.1161 15.1496L9.04694 13.5488C8.94022 13.492 8.82172 13.4615 8.70045 13.458H8.51265C8.44751 13.4677 8.38376 13.4885 8.32555 13.5204L5.25565 15.1288C5.10389 15.205 4.93203 15.2321 4.76363 15.205C4.35339 15.1274 4.07966 14.7366 4.14688 14.3243L4.76363 10.9148C4.80452 10.666 4.72205 10.4131 4.54257 10.2364L2.04022 7.81093C1.83094 7.60789 1.75818 7.30298 1.85381 7.02787C1.94667 6.75345 2.18367 6.55317 2.46987 6.50813L5.91398 6.00849C6.17593 5.98147 6.406 5.82208 6.5238 5.58647L8.04143 2.47499C8.07746 2.40569 8.12389 2.34194 8.18002 2.28788L8.24239 2.23937C8.27496 2.20334 8.31238 2.17354 8.35396 2.14929L8.4295 2.12157L8.5473 2.07306H8.83905C9.09961 2.10009 9.32898 2.25601 9.44887 2.48885L10.9866 5.58647C11.0975 5.81307 11.313 5.97038 11.5618 6.00849L15.0059 6.50813C15.2969 6.54971 15.5402 6.75067 15.6365 7.02787C15.7273 7.30575 15.649 7.61066 15.4355 7.81093L12.8438 10.2641Z" fill="#F2C94C"/>
</svg>
