<svg width="25" height="25" viewBox="0 0 25 25" fill="none" xmlns="http://www.w3.org/2000/svg">
<path opacity="0.4" d="M16.691 2.5H8.31C5.27 2.5 3.5 4.28 3.5 7.33V17.66C3.5 20.76 5.27 22.5 8.31 22.5H16.691C19.78 22.5 21.5 20.76 21.5 17.66V7.33C21.5 4.28 19.78 2.5 16.691 2.5Z" fill="#FE9370"/>
<path fill-rule="evenodd" clip-rule="evenodd" d="M8.57996 7.1499V7.1599C8.14896 7.1599 7.79996 7.5099 7.79996 7.9399C7.79996 8.3699 8.14896 8.7199 8.57996 8.7199H11.569C12 8.7199 12.35 8.3699 12.35 7.9289C12.35 7.4999 12 7.1499 11.569 7.1499H8.57996ZM16.42 13.2399H8.57996C8.14896 13.2399 7.79996 12.8899 7.79996 12.4599C7.79996 12.0299 8.14896 11.6789 8.57996 11.6789H16.42C16.85 11.6789 17.2 12.0299 17.2 12.4599C17.2 12.8899 16.85 13.2399 16.42 13.2399ZM16.42 17.8099H8.57996C8.27996 17.8499 7.98996 17.6999 7.82996 17.4499C7.66996 17.1899 7.66996 16.8599 7.82996 16.6099C7.98996 16.3499 8.27996 16.2099 8.57996 16.2399H16.42C16.819 16.2799 17.12 16.6199 17.12 17.0299C17.12 17.4289 16.819 17.7699 16.42 17.8099Z" fill="#FE9370"/>
</svg>
