<svg width="19" height="19" viewBox="0 0 19 19" fill="none" xmlns="http://www.w3.org/2000/svg">
<path d="M8.43711 13.0269H3.58569" stroke="white" stroke-width="1.38596" stroke-linecap="round" stroke-linejoin="round"/>
<path d="M10.6011 5.56388H15.4525" stroke="white" stroke-width="1.38596" stroke-linecap="round" stroke-linejoin="round"/>
<path fill-rule="evenodd" clip-rule="evenodd" d="M7.20225 5.5222C7.20225 4.52457 6.38749 3.71564 5.38268 3.71564C4.37787 3.71564 3.56311 4.52457 3.56311 5.5222C3.56311 6.51983 4.37787 7.32876 5.38268 7.32876C6.38749 7.32876 7.20225 6.51983 7.20225 5.5222Z" stroke="white" stroke-width="1.38596" stroke-linecap="round" stroke-linejoin="round"/>
<path fill-rule="evenodd" clip-rule="evenodd" d="M15.8827 12.9967C15.8827 11.9991 15.0685 11.1902 14.0637 11.1902C13.0583 11.1902 12.2435 11.9991 12.2435 12.9967C12.2435 13.9944 13.0583 14.8033 14.0637 14.8033C15.0685 14.8033 15.8827 13.9944 15.8827 12.9967Z" stroke="white" stroke-width="1.38596" stroke-linecap="round" stroke-linejoin="round"/>
</svg>
