<svg width="17" height="18" viewBox="0 0 17 18" fill="none" xmlns="http://www.w3.org/2000/svg">
<path d="M12.6147 10.5038C12.4352 10.6777 12.3528 10.9293 12.3937 11.176L13.0097 14.5854C13.0617 14.8744 12.9397 15.1668 12.6979 15.3338C12.4609 15.5071 12.1456 15.5279 11.8871 15.3893L8.81788 13.7885C8.71116 13.7317 8.59266 13.7012 8.47139 13.6977H8.28359C8.21845 13.7074 8.1547 13.7282 8.09649 13.7601L5.02658 15.3685C4.87482 15.4447 4.70296 15.4717 4.53457 15.4447C4.12432 15.3671 3.8506 14.9763 3.91782 14.5639L4.53457 11.1545C4.57545 10.9057 4.49299 10.6528 4.31351 10.476L1.81116 8.05062C1.60188 7.84758 1.52911 7.54266 1.62474 7.26755C1.7176 6.99313 1.9546 6.79286 2.2408 6.74782L5.68491 6.24818C5.94686 6.22115 6.17693 6.06177 6.29474 5.82615L7.81236 2.71467C7.8484 2.64537 7.89483 2.58162 7.95096 2.52757L8.01333 2.47906C8.0459 2.44302 8.08332 2.41323 8.1249 2.38897L8.20043 2.36125L8.31824 2.31274H8.60998C8.87054 2.33977 9.09992 2.49569 9.21981 2.72853L10.7575 5.82615C10.8684 6.05276 11.0839 6.21006 11.3327 6.24818L14.7768 6.74782C15.0679 6.78939 15.3111 6.99036 15.4074 7.26755C15.4982 7.54544 15.4199 7.85035 15.2065 8.05062L12.6147 10.5038Z" fill="#F2C94C"/>
</svg>
