<svg width="38" height="38" viewBox="0 0 38 38" fill="none" xmlns="http://www.w3.org/2000/svg">
<rect x="0.840088" y="0.529877" width="36.9589" height="36.9589" rx="18.4795" fill="#B7FFD5"/>
<path fill-rule="evenodd" clip-rule="evenodd" d="M15.8478 9.93731C18.0348 8.66658 20.7229 8.68879 22.8894 9.99549C25.0345 11.3288 26.3383 13.7084 26.3262 16.2681C26.2762 18.8111 24.8782 21.2015 23.1307 23.0493C22.1221 24.1207 20.9938 25.068 19.7688 25.872C19.6427 25.945 19.5045 25.9938 19.3611 26.0161C19.223 26.0103 19.0886 25.9695 18.97 25.8975C17.0998 24.6894 15.4591 23.1474 14.1268 21.3456C13.012 19.8415 12.3786 18.0244 12.3127 16.141C12.3113 13.5763 13.6608 11.208 15.8478 9.93731ZM17.1116 17.2024C17.4794 18.1093 18.3478 18.7009 19.3111 18.7009C19.9422 18.7054 20.5489 18.4526 20.996 17.9988C21.443 17.545 21.6933 16.928 21.6911 16.2851C21.6944 15.3038 21.1167 14.4172 20.2277 14.0393C19.3386 13.6614 18.3136 13.8667 17.6312 14.5594C16.9488 15.252 16.7437 16.2954 17.1116 17.2024Z" fill="#27AE60"/>
</svg>
