<svg width="19" height="27" viewBox="0 0 19 27" fill="none" xmlns="http://www.w3.org/2000/svg">
<path d="M5.28373 13.1472C5.28373 15.9278 7.09939 17.8862 9.74927 17.8862C12.3869 17.8862 14.2026 15.9278 14.2026 13.1472V5.54299C14.2026 2.75034 12.3869 0.803955 9.74927 0.803955C7.09939 0.803955 5.28373 2.75034 5.28373 5.54299V13.1472ZM7.13619 13.1472V5.54299C7.13619 3.75376 8.17897 2.60527 9.74927 2.60527C11.3196 2.60527 12.3501 3.75376 12.3501 5.54299V13.1472C12.3501 14.9364 11.3196 16.0849 9.74927 16.0849C8.17897 16.0849 7.13619 14.9364 7.13619 13.1472ZM0.965393 13.5824C0.965393 18.3215 4.1428 21.646 8.81691 22.0329V24.8497H4.26548C3.75023 24.8497 3.33311 25.2608 3.33311 25.7685C3.33311 26.2763 3.75023 26.6752 4.26548 26.6752H15.2208C15.7361 26.6752 16.1532 26.2763 16.1532 25.7685C16.1532 25.2608 15.7361 24.8497 15.2208 24.8497H10.6694V22.0329C15.3557 21.646 18.5209 18.3215 18.5209 13.5824V11.1283C18.5209 10.6205 18.116 10.2216 17.6008 10.2216C17.0855 10.2216 16.6684 10.6205 16.6684 11.1283V13.5099C16.6684 17.6324 13.9449 20.3646 9.74927 20.3646C5.54135 20.3646 2.81786 17.6324 2.81786 13.5099V11.1283C2.81786 10.6205 2.41302 10.2216 1.88549 10.2216C1.37024 10.2216 0.965393 10.6205 0.965393 11.1283V13.5824Z" fill="#50555C"/>
</svg>
