<svg width="18" height="17" viewBox="0 0 18 17" fill="none" xmlns="http://www.w3.org/2000/svg">
<path d="M12.9769 10.2641C12.7975 10.438 12.715 10.6896 12.7559 10.9363L13.3719 14.3457C13.4239 14.6347 13.3019 14.9271 13.0601 15.0942C12.8231 15.2674 12.5078 15.2882 12.2493 15.1496L9.1801 13.5488C9.07338 13.492 8.95488 13.4615 8.83361 13.458H8.64581C8.58067 13.4677 8.51692 13.4885 8.45871 13.5204L5.3888 15.1288C5.23704 15.205 5.06518 15.2321 4.89679 15.205C4.48654 15.1274 4.21282 14.7366 4.28004 14.3243L4.89679 10.9148C4.93767 10.666 4.85521 10.4131 4.67573 10.2364L2.17338 7.81093C1.9641 7.60789 1.89133 7.30298 1.98697 7.02787C2.07982 6.75345 2.31682 6.55317 2.60302 6.50813L6.04714 6.00849C6.30908 5.98147 6.53915 5.82208 6.65696 5.58647L8.17458 2.47499C8.21062 2.40569 8.25705 2.34194 8.31318 2.28788L8.37555 2.23937C8.40812 2.20334 8.44554 2.17354 8.48712 2.14929L8.56265 2.12157L8.68046 2.07306H8.9722C9.23276 2.10009 9.46214 2.25601 9.58203 2.48885L11.1197 5.58647C11.2306 5.81307 11.4461 5.97038 11.6949 6.00849L15.139 6.50813C15.4301 6.54971 15.6733 6.75067 15.7696 7.02787C15.8604 7.30575 15.7821 7.61066 15.5687 7.81093L12.9769 10.2641Z" fill="#F2C94C"/>
</svg>
