<svg width="23" height="23" viewBox="0 0 23 23" fill="none" xmlns="http://www.w3.org/2000/svg">
<path opacity="0.4" d="M20.7628 11.3382C20.7628 16.4422 16.6262 20.5779 11.5231 20.5779C6.41995 20.5779 2.28333 16.4422 2.28333 11.3382C2.28333 6.236 6.41995 2.09845 11.5231 2.09845C16.6262 2.09845 20.7628 6.236 20.7628 11.3382Z" fill="white"/>
<path fill-rule="evenodd" clip-rule="evenodd" d="M12.327 11.9211C12.327 12.3665 11.9639 12.7296 11.5186 12.7296C11.0732 12.7296 10.7101 12.3665 10.7101 11.9211V7.83716C10.7101 7.39181 11.0732 7.02869 11.5186 7.02869C11.9639 7.02869 12.327 7.39181 12.327 7.83716V11.9211ZM10.7147 14.8527C10.7147 14.4074 11.076 14.0442 11.5186 14.0442C11.9741 14.0442 12.3363 14.4074 12.3363 14.8527C12.3363 15.2981 11.9741 15.6612 11.5278 15.6612C11.0797 15.6612 10.7147 15.2981 10.7147 14.8527Z" fill="white"/>
</svg>
