<svg width="17" height="18" viewBox="0 0 17 18" fill="none" xmlns="http://www.w3.org/2000/svg">
<path d="M12.7479 10.3878C12.5684 10.5617 12.4859 10.8133 12.5268 11.06L13.1429 14.4695C13.1949 14.7584 13.0729 15.0509 12.8311 15.2179C12.5941 15.3911 12.2787 15.4119 12.0203 15.2733L8.95106 13.6725C8.84434 13.6157 8.72584 13.5852 8.60457 13.5817H8.41677C8.35163 13.5914 8.28787 13.6122 8.22966 13.6441L5.15976 15.2525C5.008 15.3287 4.83614 15.3558 4.66775 15.3287C4.2575 15.2511 3.98378 14.8603 4.05099 14.448L4.66775 11.0385C4.70863 10.7897 4.62617 10.5368 4.44669 10.3601L1.94434 7.93465C1.73506 7.73161 1.66229 7.4267 1.75792 7.15158C1.85078 6.87716 2.08778 6.67689 2.37398 6.63185L5.81809 6.13221C6.08004 6.10518 6.31011 5.9458 6.42792 5.71019L7.94554 2.59871C7.98158 2.52941 8.02801 2.46565 8.08414 2.4116L8.14651 2.36309C8.17908 2.32706 8.2165 2.29726 8.25808 2.27301L8.33361 2.24529L8.45142 2.19678H8.74316C9.00372 2.2238 9.2331 2.37972 9.35298 2.61257L10.8907 5.71019C11.0016 5.93679 11.2171 6.0941 11.4659 6.13221L14.91 6.63185C15.201 6.67343 15.4443 6.87439 15.5406 7.15158C15.6314 7.42947 15.5531 7.73438 15.3396 7.93465L12.7479 10.3878Z" fill="#F2C94C"/>
</svg>
