<svg width="25" height="25" viewBox="0 0 25 25" fill="none" xmlns="http://www.w3.org/2000/svg">
<path opacity="0.4" d="M12.52 2.5C6.71 2.5 2.5 7.24 2.5 12.5C2.5 14.18 2.99 15.91 3.85 17.49C4.01 17.75 4.03 18.08 3.92 18.39L3.25 20.63C3.1 21.17 3.56 21.57 4.07 21.41L6.09 20.81C6.64 20.63 7.07 20.86 7.581 21.17C9.041 22.03 10.86 22.47 12.5 22.47C17.46 22.47 22.5 18.64 22.5 12.47C22.5 7.15 18.2 2.5 12.52 2.5Z" fill="#FE9370"/>
<path fill-rule="evenodd" clip-rule="evenodd" d="M12.4807 13.7901C11.7707 13.7801 11.2007 13.2101 11.2007 12.5001C11.2007 11.8001 11.7807 11.2201 12.4807 11.2301C13.1907 11.2301 13.7607 11.8001 13.7607 12.5101C13.7607 13.2101 13.1907 13.7901 12.4807 13.7901ZM7.87033 13.7901C7.17033 13.7901 6.59033 13.2101 6.59033 12.5101C6.59033 11.8001 7.16033 11.2301 7.87033 11.2301C8.58033 11.2301 9.15033 11.8001 9.15033 12.5101C9.15033 13.2101 8.58033 13.7801 7.87033 13.7901ZM15.8105 12.5101C15.8105 13.2101 16.3805 13.7901 17.0905 13.7901C17.8005 13.7901 18.3705 13.2101 18.3705 12.5101C18.3705 11.8001 17.8005 11.2301 17.0905 11.2301C16.3805 11.2301 15.8105 11.8001 15.8105 12.5101Z" fill="#FE9370"/>
</svg>
