<svg width="28" height="28" viewBox="0 0 28 28" fill="none" xmlns="http://www.w3.org/2000/svg">
<path fill-rule="evenodd" clip-rule="evenodd" d="M23.6683 6.1168C24.1222 6.1168 24.5 6.49363 24.5 6.97312V7.41645C24.5 7.88428 24.1222 8.27278 23.6683 8.27278H4.33283C3.87784 8.27278 3.5 7.88428 3.5 7.41645V6.97312C3.5 6.49363 3.87784 6.1168 4.33283 6.1168H7.73449C8.42549 6.1168 9.02685 5.62564 9.1823 4.93264L9.36044 4.13698C9.63729 3.05316 10.5484 2.33334 11.5911 2.33334H16.4088C17.4402 2.33334 18.3616 3.05316 18.6282 4.07982L18.8188 4.93148C18.9731 5.62564 19.5745 6.1168 20.2666 6.1168H23.6683ZM21.9401 22.323C22.2953 19.0132 22.9171 11.15 22.9171 11.0706C22.9398 10.8303 22.8615 10.6028 22.706 10.4197C22.5392 10.2482 22.3282 10.1467 22.0956 10.1467H5.91328C5.67954 10.1467 5.45715 10.2482 5.30284 10.4197C5.14626 10.6028 5.0691 10.8303 5.08045 11.0706C5.08253 11.0852 5.10484 11.3622 5.14214 11.8253C5.30785 13.8824 5.76936 19.6119 6.06759 22.323C6.27863 24.3203 7.58915 25.5757 9.48741 25.6212C10.9522 25.655 12.4613 25.6667 14.0044 25.6667C15.4579 25.6667 16.9341 25.655 18.4443 25.6212C20.4084 25.5873 21.7177 24.3542 21.9401 22.323Z" fill="#4F4F4F"/>
</svg>
