<svg width="18" height="18" viewBox="0 0 18 18" fill="none" xmlns="http://www.w3.org/2000/svg">
<path opacity="0.4" fill-rule="evenodd" clip-rule="evenodd" d="M13.2106 3.489C12.0623 2.30475 10.5668 1.65225 9.00008 1.65225C7.43183 1.65225 5.93633 2.30475 4.78733 3.48975C3.62108 4.69275 2.98058 6.309 3.03083 7.9245C3.17258 12.5025 8.56508 16.0673 8.79533 16.2165L8.99708 16.3478L9.20108 16.2188C9.43058 16.0733 14.8268 12.5948 14.9693 7.92375C15.0188 6.309 14.3776 4.692 13.2106 3.489Z" fill="white"/>
<path d="M6.94727 8.06914C6.94727 9.20089 7.86827 10.1211 9.00002 10.1211C10.1318 10.1211 11.052 9.20089 11.052 8.06914C11.052 6.93739 10.1318 6.01639 9.00002 6.01639C7.86827 6.01639 6.94727 6.93739 6.94727 8.06914Z" fill="white"/>
</svg>
