<svg width="18" height="18" viewBox="0 0 18 18" fill="none" xmlns="http://www.w3.org/2000/svg">
<path d="M13.2824 2.09299C12.8331 1.94224 12.3606 1.87549 11.8874 1.87549C10.8449 1.86799 9.83314 2.21299 8.99989 2.84974C8.93239 2.79799 8.84989 2.75224 8.77489 2.70799C8.69989 2.66224 8.56489 2.55049 8.45239 2.49049L8.16739 2.36299C8.01739 2.28049 7.86064 2.22049 7.69489 2.16724C7.67989 2.15299 7.65739 2.13724 7.62739 2.12299H7.58314C7.13989 1.97224 6.68239 1.88974 6.20989 1.87549H6.12739C5.91739 1.87549 5.70814 1.88974 5.49739 1.92049H5.40739C5.18239 1.94974 4.95814 2.00224 4.74064 2.07724C1.94239 2.99299 0.94489 6.03049 1.79239 8.68549C2.27239 10.0422 3.04564 11.273 4.05064 12.2847C5.51239 13.6947 7.11064 14.9397 8.82739 16.0047L9.02239 16.1255L9.20989 16.0122C10.9206 14.9397 12.5099 13.6947 13.9581 12.2922C14.9699 11.2805 15.7424 10.0422 16.2149 8.68549C17.0481 6.03049 16.0506 2.99299 13.2824 2.09299Z" fill="#EB5757"/>
</svg>
