<svg width="24" height="24" viewBox="0 0 24 24" fill="none" xmlns="http://www.w3.org/2000/svg">
<path d="M9.33101 20.1129V17.2792C9.331 16.5611 9.91491 15.9777 10.6382 15.9732H13.2938C14.0203 15.9732 14.6092 16.5579 14.6092 17.2792V20.1047C14.6092 20.7275 15.1154 21.2337 15.7427 21.2382H17.5545C18.4006 21.2403 19.2129 20.9081 19.812 20.3149C20.4112 19.7216 20.7479 18.916 20.7479 18.0759V10.0266C20.7479 9.34794 20.4449 8.70423 19.9206 8.26884L13.7654 3.38173C12.6895 2.52692 11.1528 2.55454 10.1087 3.44744L4.08588 8.26884C3.53679 8.6914 3.2086 9.33701 3.19238 10.0266V18.0677C3.19238 19.8187 4.62212 21.2382 6.38579 21.2382H8.15624C8.45827 21.2404 8.74868 21.1228 8.96303 20.9115C9.17738 20.7002 9.29793 20.4128 9.29792 20.1129H9.33101Z" fill="#BDBDBD"/>
</svg>
