<svg width="17" height="17" viewBox="0 0 17 17" fill="none" xmlns="http://www.w3.org/2000/svg">
<path d="M12.6461 9.79654C12.475 9.96236 12.3964 10.2022 12.4354 10.4374L13.0227 13.6877C13.0722 13.9632 12.956 14.242 12.7254 14.4012C12.4995 14.5663 12.1989 14.5862 11.9525 14.454L9.0265 12.928C8.92476 12.8738 8.81179 12.8447 8.69618 12.8414H8.51715C8.45505 12.8507 8.39427 12.8705 8.33877 12.9009L5.41215 14.4342C5.26747 14.5069 5.10363 14.5327 4.94309 14.5069C4.552 14.4329 4.29104 14.0603 4.35512 13.6672L4.94309 10.4169C4.98207 10.1797 4.90346 9.93857 4.73235 9.77011L2.34678 7.45788C2.14727 7.26431 2.0779 6.97363 2.16907 6.71136C2.2576 6.44974 2.48354 6.25882 2.75638 6.21588L6.03975 5.73956C6.28947 5.71379 6.50881 5.56185 6.62111 5.33723L8.06791 2.37096C8.10227 2.3049 8.14653 2.24412 8.20004 2.19259L8.2595 2.14635C8.29055 2.11199 8.32622 2.08359 8.36586 2.06046L8.43787 2.03404L8.55018 1.98779H8.82831C9.07671 2.01356 9.29538 2.1622 9.40967 2.38418L10.8756 5.33723C10.9813 5.55326 11.1868 5.70322 11.424 5.73956L14.7073 6.21588C14.9848 6.25552 15.2167 6.4471 15.3085 6.71136C15.3951 6.97627 15.3204 7.26695 15.1169 7.45788L12.6461 9.79654Z" fill="#F2C94C"/>
</svg>
