<svg width="18" height="18" viewBox="0 0 18 18" fill="none" xmlns="http://www.w3.org/2000/svg">
<path d="M13.4389 10.7401C13.2446 10.9284 13.1554 11.2006 13.1996 11.4676L13.8664 15.1576C13.9226 15.4704 13.7906 15.7869 13.5289 15.9676C13.2724 16.1551 12.9311 16.1776 12.6514 16.0276L9.3296 14.2951C9.2141 14.2336 9.08585 14.2006 8.9546 14.1969H8.75135C8.68085 14.2074 8.61185 14.2299 8.54885 14.2644L5.22635 16.0051C5.0621 16.0876 4.8761 16.1169 4.69385 16.0876C4.24985 16.0036 3.9536 15.5806 4.02635 15.1344L4.69385 11.4444C4.7381 11.1751 4.64885 10.9014 4.4546 10.7101L1.74635 8.08512C1.51985 7.86537 1.4411 7.53537 1.5446 7.23762C1.6451 6.94062 1.9016 6.72387 2.21135 6.67512L5.93885 6.13437C6.22235 6.10512 6.47135 5.93262 6.59885 5.67762L8.24135 2.31012C8.28035 2.23512 8.3306 2.16612 8.39135 2.10762L8.45885 2.05512C8.4941 2.01612 8.5346 1.98387 8.5796 1.95762L8.66135 1.92762L8.78885 1.87512H9.1046C9.3866 1.90437 9.63485 2.07312 9.7646 2.32512L11.4289 5.67762C11.5489 5.92287 11.7821 6.09312 12.0514 6.13437L15.7789 6.67512C16.0939 6.72012 16.3571 6.93762 16.4614 7.23762C16.5596 7.53837 16.4749 7.86837 16.2439 8.08512L13.4389 10.7401Z" fill="#F2C94C"/>
</svg>
