<svg width="25" height="25" viewBox="0 0 25 25" fill="none" xmlns="http://www.w3.org/2000/svg">
<path opacity="0.4" d="M22.4999 12.5C22.4999 18.023 18.0229 22.5 12.4999 22.5C6.97688 22.5 2.49988 18.023 2.49988 12.5C2.49988 6.978 6.97688 2.5 12.4999 2.5C18.0229 2.5 22.4999 6.978 22.4999 12.5Z" fill="#FE9370"/>
<path d="M16.3597 9.20505L14.7397 14.3251C14.6797 14.5351 14.5097 14.7051 14.2997 14.7661L9.19972 16.3651C8.85972 16.4761 8.52972 16.1451 8.63972 15.8051L10.2397 10.6751C10.2997 10.4651 10.4697 10.3051 10.6797 10.2351L15.7997 8.63505C16.1497 8.52505 16.4697 8.85505 16.3597 9.20505Z" fill="#FE9370"/>
</svg>
