<svg width="18" height="18" viewBox="0 0 18 18" fill="none" xmlns="http://www.w3.org/2000/svg">
<path d="M13.4389 10.74C13.2446 10.9282 13.1554 11.2005 13.1996 11.4675L13.8664 15.1575C13.9226 15.4702 13.7906 15.7868 13.5289 15.9675C13.2724 16.155 12.9311 16.1775 12.6514 16.0275L9.3296 14.295C9.2141 14.2335 9.08585 14.2005 8.9546 14.1968H8.75135C8.68085 14.2073 8.61185 14.2297 8.54885 14.2642L5.22635 16.005C5.0621 16.0875 4.8761 16.1168 4.69385 16.0875C4.24985 16.0035 3.9536 15.5805 4.02635 15.1343L4.69385 11.4443C4.7381 11.175 4.64885 10.9012 4.4546 10.71L1.74635 8.085C1.51985 7.86525 1.4411 7.53525 1.5446 7.2375C1.6451 6.9405 1.9016 6.72375 2.21135 6.675L5.93885 6.13425C6.22235 6.105 6.47135 5.9325 6.59885 5.6775L8.24135 2.31C8.28035 2.235 8.3306 2.166 8.39135 2.1075L8.45885 2.055C8.4941 2.016 8.5346 1.98375 8.5796 1.9575L8.66135 1.9275L8.78885 1.875H9.1046C9.3866 1.90425 9.63485 2.073 9.7646 2.325L11.4289 5.6775C11.5489 5.92275 11.7821 6.093 12.0514 6.13425L15.7789 6.675C16.0939 6.72 16.3571 6.9375 16.4614 7.2375C16.5596 7.53825 16.4749 7.86825 16.2439 8.085L13.4389 10.74Z" fill="#F2C94C"/>
</svg>
