<svg width="19" height="19" viewBox="0 0 19 19" fill="none" xmlns="http://www.w3.org/2000/svg">
<path d="M8.39682 13.0546H3.54541" stroke="white" stroke-width="1.38596" stroke-linecap="round" stroke-linejoin="round"/>
<path d="M10.5608 5.59156H15.4122" stroke="white" stroke-width="1.38596" stroke-linecap="round" stroke-linejoin="round"/>
<path fill-rule="evenodd" clip-rule="evenodd" d="M7.16196 5.54989C7.16196 4.55226 6.3472 3.74333 5.3424 3.74333C4.33759 3.74333 3.52283 4.55226 3.52283 5.54989C3.52283 6.54752 4.33759 7.35645 5.3424 7.35645C6.3472 7.35645 7.16196 6.54752 7.16196 5.54989Z" stroke="white" stroke-width="1.38596" stroke-linecap="round" stroke-linejoin="round"/>
<path fill-rule="evenodd" clip-rule="evenodd" d="M15.8424 13.0244C15.8424 12.0268 15.0283 11.2179 14.0234 11.2179C13.018 11.2179 12.2032 12.0268 12.2032 13.0244C12.2032 14.0221 13.018 14.831 14.0234 14.831C15.0283 14.831 15.8424 14.0221 15.8424 13.0244Z" stroke="white" stroke-width="1.38596" stroke-linecap="round" stroke-linejoin="round"/>
</svg>
