<svg width="26" height="25" viewBox="0 0 26 25" fill="none" xmlns="http://www.w3.org/2000/svg">
<path d="M16.683 1.81249C16.0469 1.59602 15.3779 1.50017 14.7078 1.50017C13.2317 1.4894 11.7992 1.9848 10.6194 2.89913C10.5238 2.82482 10.407 2.75913 10.3008 2.69559C10.1946 2.62989 10.0034 2.46943 9.84416 2.38327L9.44062 2.20019C9.22824 2.08173 9.00629 1.99557 8.7716 1.91911C8.75037 1.89864 8.71851 1.87603 8.67603 1.85557H8.61338C7.98577 1.6391 7.33799 1.52063 6.66897 1.50017H6.55216C6.25482 1.50017 5.95854 1.52063 5.66013 1.56479H5.5327C5.21412 1.60679 4.8966 1.68218 4.58864 1.78987C0.62656 3.10483 -0.785815 7.46648 0.414172 11.2789C1.09381 13.2271 2.18867 14.9944 3.61166 16.4472C5.68137 18.4718 7.94436 20.2596 10.3751 21.7888L10.6512 21.9622L10.9167 21.7996C13.339 20.2596 15.5892 18.4718 17.6398 16.4579C19.0724 15.0051 20.1662 13.2271 20.8352 11.2789C22.015 7.46648 20.6026 3.10483 16.683 1.81249Z" fill="#FE9370"/>
<mask id="path-2-outside-1_42_3253" maskUnits="userSpaceOnUse" x="8.61963" y="5.42273" width="17" height="19" fill="black">
<rect fill="white" x="8.61963" y="5.42273" width="17" height="19"/>
<path fill-rule="evenodd" clip-rule="evenodd" d="M14.1952 7.42273H20.4252C22.7214 7.42273 24 8.76461 24 11.0639V18.8513C24 21.1883 22.7214 22.5 20.4252 22.5H14.1952C11.9354 22.5 10.6196 21.1883 10.6196 18.8513V11.0639C10.6196 8.76461 11.9354 7.42273 14.1952 7.42273ZM14.3959 10.9358V10.9282H16.6178C16.9382 10.9282 17.1984 11.1921 17.1984 11.5155C17.1984 11.8479 16.9382 12.1118 16.6178 12.1118H14.3959C14.0755 12.1118 13.8161 11.8479 13.8161 11.5238C13.8161 11.1996 14.0755 10.9358 14.3959 10.9358ZM14.3959 15.5193H20.2238C20.5435 15.5193 20.8036 15.2554 20.8036 14.9313C20.8036 14.6071 20.5435 14.3425 20.2238 14.3425H14.3959C14.0755 14.3425 13.8161 14.6071 13.8161 14.9313C13.8161 15.2554 14.0755 15.5193 14.3959 15.5193ZM14.3958 18.9644H20.2237C20.5203 18.9342 20.7441 18.6772 20.7441 18.3764C20.7441 18.0673 20.5203 17.811 20.2237 17.7808H14.3958C14.1728 17.7582 13.9573 17.8637 13.8383 18.0597C13.7194 18.2482 13.7194 18.497 13.8383 18.693C13.9573 18.8815 14.1728 18.9945 14.3958 18.9644Z"/>
</mask>
<path fill-rule="evenodd" clip-rule="evenodd" d="M14.1952 7.42273H20.4252C22.7214 7.42273 24 8.76461 24 11.0639V18.8513C24 21.1883 22.7214 22.5 20.4252 22.5H14.1952C11.9354 22.5 10.6196 21.1883 10.6196 18.8513V11.0639C10.6196 8.76461 11.9354 7.42273 14.1952 7.42273ZM14.3959 10.9358V10.9282H16.6178C16.9382 10.9282 17.1984 11.1921 17.1984 11.5155C17.1984 11.8479 16.9382 12.1118 16.6178 12.1118H14.3959C14.0755 12.1118 13.8161 11.8479 13.8161 11.5238C13.8161 11.1996 14.0755 10.9358 14.3959 10.9358ZM14.3959 15.5193H20.2238C20.5435 15.5193 20.8036 15.2554 20.8036 14.9313C20.8036 14.6071 20.5435 14.3425 20.2238 14.3425H14.3959C14.0755 14.3425 13.8161 14.6071 13.8161 14.9313C13.8161 15.2554 14.0755 15.5193 14.3959 15.5193ZM14.3958 18.9644H20.2237C20.5203 18.9342 20.7441 18.6772 20.7441 18.3764C20.7441 18.0673 20.5203 17.811 20.2237 17.7808H14.3958C14.1728 17.7582 13.9573 17.8637 13.8383 18.0597C13.7194 18.2482 13.7194 18.497 13.8383 18.693C13.9573 18.8815 14.1728 18.9945 14.3958 18.9644Z" fill="#FE9370"/>
<path d="M14.3959 10.9282V9.42822H12.8959V10.9282H14.3959ZM14.3959 10.9358V12.4358H15.8959V10.9358H14.3959ZM20.2237 18.9644V20.4644H20.2998L20.3755 20.4567L20.2237 18.9644ZM14.3958 18.9644V17.4644H14.2949L14.1948 17.4779L14.3958 18.9644ZM20.2237 17.7808L20.3755 16.2885L20.2998 16.2808H20.2237V17.7808ZM14.3958 17.7808L14.2445 19.2732L14.32 19.2808H14.3958V17.7808ZM13.8383 18.0597L15.1068 18.8603L15.1139 18.8491L15.1207 18.8379L13.8383 18.0597ZM13.8383 18.693L12.556 19.4711L12.5628 19.4824L12.5698 19.4935L13.8383 18.693ZM20.4252 5.92273H14.1952V8.92273H20.4252V5.92273ZM25.5 11.0639C25.5 9.64345 25.1014 8.31313 24.1483 7.3345C23.1892 6.34985 21.8653 5.92273 20.4252 5.92273V8.92273C21.2814 8.92273 21.7448 9.16655 21.9992 9.42767C22.2593 9.69479 22.5 10.1851 22.5 11.0639H25.5ZM25.5 18.8513V11.0639H22.5V18.8513H25.5ZM20.4252 24C21.8561 24 23.1825 23.5857 24.1459 22.6011C25.1044 21.6214 25.5 20.2849 25.5 18.8513H22.5C22.5 19.7548 22.2563 20.2426 22.0015 20.503C21.7516 20.7585 21.2906 21 20.4252 21V24ZM14.1952 24H20.4252V21H14.1952V24ZM9.11963 18.8513C9.11963 20.2961 9.53071 21.6305 10.4919 22.6052C11.4558 23.5827 12.7769 24 14.1952 24V21C13.3536 21 12.887 20.7615 12.6281 20.4989C12.3664 20.2335 12.1196 19.7435 12.1196 18.8513H9.11963ZM9.11963 11.0639V18.8513H12.1196V11.0639H9.11963ZM14.1952 5.92273C12.7677 5.92273 11.4489 6.35289 10.4895 7.33032C9.5338 8.30396 9.11963 9.63218 9.11963 11.0639H12.1196C12.1196 10.1963 12.3633 9.70396 12.6304 9.43184C12.8938 9.16351 13.3629 8.92273 14.1952 8.92273V5.92273ZM12.8959 10.9282V10.9358H15.8959V10.9282H12.8959ZM16.6178 9.42822H14.3959V12.4282H16.6178V9.42822ZM18.6984 11.5155C18.6984 10.381 17.7839 9.42822 16.6178 9.42822V12.4282C16.0925 12.4282 15.6984 12.0031 15.6984 11.5155H18.6984ZM16.6178 13.6118C17.7987 13.6118 18.6984 12.6439 18.6984 11.5155H15.6984C15.6984 11.052 16.0776 10.6118 16.6178 10.6118V13.6118ZM14.3959 13.6118H16.6178V10.6118H14.3959V13.6118ZM12.3161 11.5238C12.3161 12.6552 13.2261 13.6118 14.3959 13.6118V10.6118C14.925 10.6118 15.3161 11.0407 15.3161 11.5238H12.3161ZM14.3959 9.43576C13.2261 9.43576 12.3161 10.3924 12.3161 11.5238H15.3161C15.3161 12.0069 14.925 12.4358 14.3959 12.4358V9.43576ZM20.2238 14.0193H14.3959V17.0193H20.2238V14.0193ZM19.3036 14.9313C19.3036 14.4469 19.6952 14.0193 20.2238 14.0193V17.0193C21.3917 17.0193 22.3036 16.0639 22.3036 14.9313H19.3036ZM20.2238 15.8425C19.6928 15.8425 19.3036 15.4131 19.3036 14.9313H22.3036C22.3036 13.8011 21.3941 12.8425 20.2238 12.8425V15.8425ZM14.3959 15.8425H20.2238V12.8425H14.3959V15.8425ZM15.3161 14.9313C15.3161 15.4118 14.9275 15.8425 14.3959 15.8425V12.8425C13.2236 12.8425 12.3161 13.8024 12.3161 14.9313H15.3161ZM14.3959 14.0193C14.925 14.0193 15.3161 14.4482 15.3161 14.9313H12.3161C12.3161 16.0627 13.2261 17.0193 14.3959 17.0193V14.0193ZM20.2237 17.4644H14.3958V20.4644H20.2237V17.4644ZM19.2441 18.3764C19.2441 17.9422 19.5688 17.5232 20.072 17.4721L20.3755 20.4567C21.4719 20.3452 22.2441 19.4121 22.2441 18.3764H19.2441ZM20.072 19.2731C19.5584 19.2209 19.2441 18.7914 19.2441 18.3764H22.2441C22.2441 17.3432 21.4823 16.401 20.3755 16.2885L20.072 19.2731ZM14.3958 19.2808H20.2237V16.2808H14.3958V19.2808ZM15.1207 18.8379C14.9387 19.1379 14.5956 19.3088 14.2445 19.2732L14.5472 16.2885C13.7501 16.2076 12.9759 16.5896 12.556 17.2816L15.1207 18.8379ZM15.1207 17.9148C15.2861 18.1874 15.3024 18.5504 15.1068 18.8603L12.5698 17.2592C12.1364 17.946 12.1527 18.8066 12.556 19.4711L15.1207 17.9148ZM14.1948 17.4779C14.611 17.4216 14.9445 17.6351 15.1068 17.8925L12.5698 19.4935C12.9701 20.1278 13.7347 20.5674 14.5968 20.4509L14.1948 17.4779Z" fill="white" mask="url(#path-2-outside-1_42_3253)"/>
</svg>
