<svg width="16" height="16" viewBox="0 0 16 16" fill="none" xmlns="http://www.w3.org/2000/svg">
<path d="M11.8377 9.60513C11.6666 9.77095 11.5879 10.0108 11.6269 10.2459L12.2142 13.4963C12.2638 13.7718 12.1475 14.0506 11.9169 14.2098C11.691 14.3749 11.3904 14.3948 11.144 14.2626L8.21803 12.7366C8.11629 12.6824 8.00332 12.6533 7.88771 12.65H7.70867C7.64657 12.6593 7.5858 12.6791 7.5303 12.7095L4.60367 14.2428C4.459 14.3155 4.29516 14.3412 4.13462 14.3155C3.74352 14.2415 3.48257 13.8689 3.54665 13.4758L4.13462 10.2255C4.1736 9.9883 4.09498 9.74717 3.92388 9.57871L1.53831 7.26647C1.3388 7.0729 1.26943 6.78222 1.3606 6.51995C1.44913 6.25834 1.67507 6.06741 1.94791 6.02447L5.23128 5.54815C5.481 5.52239 5.70033 5.37044 5.81264 5.14582L7.25944 2.17956C7.29379 2.11349 7.33806 2.05271 7.39157 2.00118L7.45103 1.95494C7.48208 1.92059 7.51775 1.89218 7.55739 1.86906L7.6294 1.84263L7.74171 1.79639H8.01984C8.26824 1.82215 8.48691 1.9708 8.6012 2.19277L10.0672 5.14582C10.1729 5.36185 10.3783 5.51182 10.6155 5.54815L13.8989 6.02447C14.1763 6.06411 14.4082 6.2557 14.5 6.51995C14.5866 6.78487 14.5119 7.07555 14.3085 7.26647L11.8377 9.60513Z" fill="#F2C94C"/>
</svg>
