<svg width="23" height="23" viewBox="0 0 23 23" fill="none" xmlns="http://www.w3.org/2000/svg">
<path fill-rule="evenodd" clip-rule="evenodd" d="M15.3969 20.2857H7.68376C4.85052 20.2857 2.67697 19.2623 3.29436 15.1436L4.01324 9.56166C4.39382 7.50651 5.70472 6.71997 6.85493 6.71997H16.2596C17.4267 6.71997 18.6615 7.56571 19.1013 9.56166L19.8202 15.1436C20.3445 18.7972 18.2302 20.2857 15.3969 20.2857Z" stroke="#FE9370" stroke-width="1.84795" stroke-linecap="round" stroke-linejoin="round"/>
<path d="M15.5237 6.51696C15.5237 4.3123 13.7364 2.52506 11.5318 2.52506V2.52506C10.4701 2.52056 9.45041 2.93915 8.69812 3.68826C7.94584 4.43738 7.52294 5.45531 7.52295 6.51696H7.52295" stroke="#FE9370" stroke-width="1.84795" stroke-linecap="round" stroke-linejoin="round"/>
<circle cx="8.68536" cy="10.8149" r="1.15497" fill="#FE9370"/>
<circle cx="15.1533" cy="10.8149" r="1.15497" fill="#FE9370"/>
</svg>
