<svg width="19" height="19" viewBox="0 0 19 19" fill="none" xmlns="http://www.w3.org/2000/svg">
<path fill-rule="evenodd" clip-rule="evenodd" d="M15.0983 15.0969C12.6789 17.5166 9.09623 18.0394 6.16441 16.6835C5.7316 16.5093 5.37675 16.3684 5.03942 16.3684C4.0998 16.374 2.93025 17.2851 2.32241 16.6779C1.71456 16.07 2.62633 14.8996 2.62633 13.9543C2.62633 13.6169 2.49108 13.2684 2.31684 12.8347C0.96032 9.90337 1.48383 6.31955 3.90328 3.90062C6.99184 0.810927 12.0098 0.810927 15.0983 3.89983C18.1924 6.9943 18.1869 12.008 15.0983 15.0969Z" stroke="white" stroke-width="1.5" stroke-linecap="round" stroke-linejoin="round"/>
<path d="M12.6188 9.82699H12.626" stroke="white" stroke-width="2" stroke-linecap="round" stroke-linejoin="round"/>
<path d="M9.44501 9.82699H9.45213" stroke="white" stroke-width="2" stroke-linecap="round" stroke-linejoin="round"/>
<path d="M6.27118 9.82699H6.2783" stroke="white" stroke-width="2" stroke-linecap="round" stroke-linejoin="round"/>
</svg>
