<svg width="38" height="38" viewBox="0 0 38 38" fill="none" xmlns="http://www.w3.org/2000/svg">
<rect x="0.840088" y="0.131989" width="36.9589" height="36.9589" rx="18.4795" fill="#B7FFD5"/>
<path fill-rule="evenodd" clip-rule="evenodd" d="M15.8478 9.53943C18.0348 8.2687 20.7229 8.29091 22.8894 9.59761C25.0345 10.9309 26.3383 13.3105 26.3262 15.8702C26.2762 18.4132 24.8782 20.8036 23.1307 22.6515C22.1221 23.7228 20.9938 24.6702 19.7688 25.4742C19.6427 25.5471 19.5045 25.5959 19.3611 25.6183C19.223 25.6124 19.0886 25.5716 18.97 25.4996C17.0998 24.2915 15.4591 22.7495 14.1268 20.9477C13.012 19.4436 12.3786 17.6265 12.3127 15.7431C12.3113 13.1784 13.6608 10.8102 15.8478 9.53943ZM17.1116 16.8045C17.4794 17.7114 18.3478 18.303 19.3111 18.303C19.9422 18.3075 20.5489 18.0547 20.996 17.601C21.443 17.1472 21.6933 16.5301 21.6911 15.8872C21.6944 14.9059 21.1167 14.0193 20.2277 13.6414C19.3386 13.2635 18.3136 13.4688 17.6312 14.1615C16.9488 14.8542 16.7437 15.8975 17.1116 16.8045Z" fill="#27AE60"/>
</svg>
