<svg width="18" height="17" viewBox="0 0 18 17" fill="none" xmlns="http://www.w3.org/2000/svg">
<path d="M12.9615 10.2641C12.782 10.438 12.6996 10.6896 12.7405 10.9363L13.3565 14.3457C13.4085 14.6347 13.2865 14.9271 13.0447 15.0942C12.8077 15.2674 12.4924 15.2882 12.2339 15.1496L9.16468 13.5488C9.05796 13.492 8.93946 13.4615 8.81819 13.458H8.63039C8.56525 13.4677 8.5015 13.4885 8.44329 13.5204L5.37339 15.1288C5.22162 15.205 5.04976 15.2321 4.88137 15.205C4.47113 15.1274 4.1974 14.7366 4.26462 14.3243L4.88137 10.9148C4.92226 10.666 4.83979 10.4131 4.66031 10.2364L2.15796 7.81093C1.94868 7.60789 1.87592 7.30298 1.97155 7.02787C2.06441 6.75345 2.3014 6.55317 2.58761 6.50813L6.03172 6.00849C6.29366 5.98147 6.52373 5.82208 6.64154 5.58647L8.15916 2.47499C8.1952 2.40569 8.24163 2.34194 8.29776 2.28788L8.36013 2.23937C8.3927 2.20334 8.43012 2.17354 8.4717 2.14929L8.54723 2.12157L8.66504 2.07306H8.95678C9.21734 2.10009 9.44672 2.25601 9.56661 2.48885L11.1043 5.58647C11.2152 5.81307 11.4307 5.97038 11.6795 6.00849L15.1236 6.50813C15.4147 6.54971 15.6579 6.75067 15.7542 7.02787C15.845 7.30575 15.7667 7.61066 15.5533 7.81093L12.9615 10.2641Z" fill="#F2C94C"/>
</svg>
