<svg width="41" height="24" viewBox="0 0 41 24" fill="none" xmlns="http://www.w3.org/2000/svg">
<path fill-rule="evenodd" clip-rule="evenodd" d="M28.1189 23.9999C34.8789 23.9999 40.3589 18.6273 40.3589 11.9999C40.3589 5.37255 34.8789 0 28.1189 0C25.0893 0 22.3168 1.07912 20.1794 2.86667C18.042 1.07916 15.2695 7.74099e-05 12.24 7.74099e-05C5.48002 7.74099e-05 0 5.37263 0 12C0 18.6274 5.48002 23.9999 12.24 23.9999C15.2696 23.9999 18.0421 22.9208 20.1795 21.1333C22.3168 22.9208 25.0893 23.9999 28.1189 23.9999Z" fill="#ED0006"/>
<path fill-rule="evenodd" clip-rule="evenodd" d="M20.1794 21.1331C22.8111 18.9321 24.4798 15.657 24.4798 11.9999C24.4798 8.34281 22.8111 5.06779 20.1794 2.86678C22.3168 1.07916 25.0894 0 28.1191 0C34.879 0 40.3591 5.37255 40.3591 11.9999C40.3591 18.6273 34.879 23.9998 28.1191 23.9998C25.0894 23.9998 22.3168 22.9207 20.1794 21.1331Z" fill="#F9A000"/>
<path fill-rule="evenodd" clip-rule="evenodd" d="M20.1795 21.1326C22.8111 18.9316 24.4798 15.6566 24.4798 11.9995C24.4798 8.34236 22.8111 5.06734 20.1795 2.86633C17.5478 5.06734 15.8792 8.34236 15.8792 11.9995C15.8792 15.6566 17.5478 18.9316 20.1795 21.1326Z" fill="#FF5E00"/>
</svg>
