<svg width="38" height="23" viewBox="0 0 38 23" fill="none" xmlns="http://www.w3.org/2000/svg">
<path fill-rule="evenodd" clip-rule="evenodd" d="M26.6451 22.7356C32.8911 22.7356 37.9545 17.7715 37.9545 11.648C37.9545 5.52446 32.8911 0.560364 26.6451 0.560364C23.8458 0.560364 21.284 1.55744 19.3092 3.20909C17.3343 1.55748 14.7726 0.560435 11.9734 0.560435C5.72734 0.560435 0.66394 5.52453 0.66394 11.648C0.66394 17.7716 5.72734 22.7357 11.9734 22.7357C14.7726 22.7357 17.3344 21.7386 19.3092 20.0869C21.2841 21.7385 23.8458 22.7356 26.6451 22.7356Z" fill="#ED0006"/>
<path fill-rule="evenodd" clip-rule="evenodd" d="M19.3091 20.0868C21.7407 18.0531 23.2825 15.0271 23.2825 11.648C23.2825 8.26889 21.7407 5.24286 19.3091 3.20919C21.284 1.55748 23.8458 0.560364 26.6451 0.560364C32.8911 0.560364 37.9545 5.52446 37.9545 11.648C37.9545 17.7715 32.8911 22.7356 26.6451 22.7356C23.8458 22.7356 21.284 21.7385 19.3091 20.0868Z" fill="#F9A000"/>
<path fill-rule="evenodd" clip-rule="evenodd" d="M19.3092 20.0863C21.7408 18.0527 23.2826 15.0266 23.2826 11.6476C23.2826 8.26847 21.7408 5.24244 19.3092 3.20877C16.8776 5.24244 15.3358 8.26847 15.3358 11.6476C15.3358 15.0266 16.8776 18.0527 19.3092 20.0863Z" fill="#FF5E00"/>
</svg>
