<svg width="28" height="28" viewBox="0 0 28 28" fill="none" xmlns="http://www.w3.org/2000/svg">
<path d="M14 2.625C11.7502 2.625 9.551 3.29213 7.68039 4.54203C5.80978 5.79193 4.35182 7.56847 3.49088 9.64698C2.62993 11.7255 2.40467 14.0126 2.84357 16.2192C3.28248 18.4257 4.36584 20.4525 5.95667 22.0433C7.54749 23.6342 9.57432 24.7175 11.7809 25.1564C13.9874 25.5953 16.2745 25.3701 18.353 24.5091C20.4315 23.6482 22.2081 22.1902 23.458 20.3196C24.7079 18.449 25.375 16.2498 25.375 14C25.3692 10.9849 24.1689 8.09502 22.037 5.96305C19.905 3.83107 17.0151 2.63078 14 2.625V2.625ZM14 21C13.7404 21 13.4867 20.923 13.2708 20.7788C13.055 20.6346 12.8868 20.4296 12.7874 20.1898C12.6881 19.9499 12.6621 19.686 12.7127 19.4314C12.7634 19.1768 12.8884 18.943 13.0719 18.7594C13.2555 18.5759 13.4893 18.4509 13.7439 18.4002C13.9985 18.3496 14.2624 18.3756 14.5023 18.4749C14.7421 18.5742 14.9471 18.7425 15.0913 18.9583C15.2355 19.1742 15.3125 19.4279 15.3125 19.6875C15.3125 20.0356 15.1742 20.3694 14.9281 20.6156C14.6819 20.8617 14.3481 21 14 21ZM14.875 15.6516V15.75C14.875 15.9821 14.7828 16.2046 14.6187 16.3687C14.4546 16.5328 14.2321 16.625 14 16.625C13.7679 16.625 13.5454 16.5328 13.3813 16.3687C13.2172 16.2046 13.125 15.9821 13.125 15.75V14.875C13.125 14.6429 13.2172 14.4204 13.3813 14.2563C13.5454 14.0922 13.7679 14 14 14C14.4327 14 14.8556 13.8717 15.2153 13.6313C15.575 13.391 15.8554 13.0493 16.021 12.6496C16.1866 12.2499 16.2299 11.8101 16.1455 11.3857C16.0611 10.9614 15.8527 10.5716 15.5468 10.2657C15.2409 9.95978 14.8511 9.75144 14.4268 9.66703C14.0024 9.58263 13.5626 9.62595 13.1629 9.79151C12.7632 9.95708 12.4215 10.2375 12.1812 10.5972C11.9408 10.9569 11.8125 11.3799 11.8125 11.8125C11.8125 12.0446 11.7203 12.2671 11.5562 12.4312C11.3921 12.5953 11.1696 12.6875 10.9375 12.6875C10.7054 12.6875 10.4829 12.5953 10.3188 12.4312C10.1547 12.2671 10.0625 12.0446 10.0625 11.8125C10.0625 11.0713 10.2717 10.3451 10.6661 9.7175C11.0605 9.0899 11.624 8.58637 12.2919 8.26481C12.9597 7.94326 13.7048 7.81675 14.4413 7.89983C15.1779 7.9829 15.876 8.2722 16.4555 8.73443C17.0349 9.19667 17.4721 9.81308 17.7168 10.5128C17.9615 11.2124 18.0037 11.967 17.8386 12.6896C17.6735 13.4122 17.3078 14.0735 16.7835 14.5975C16.2592 15.1215 15.5977 15.4868 14.875 15.6516Z" fill="#4F4F4F"/>
</svg>
