<svg width="63" height="11" viewBox="0 0 63 11" fill="none" xmlns="http://www.w3.org/2000/svg">
<path opacity="0.35" d="M42.0008 0.833782H57.4003C58.506 0.833782 59.4023 1.73008 59.4023 2.83572V8.37957C59.4023 9.48521 58.506 10.3815 57.4003 10.3815H42.0008C40.8952 10.3815 39.9989 9.48521 39.9989 8.37956V2.83572C39.9989 1.73008 40.8952 0.833782 42.0008 0.833782Z" stroke="#2C2B46" stroke-width="0.923973"/>
<path opacity="0.4" d="M60.7882 3.75967V7.45557C61.5318 7.14255 62.0153 6.41437 62.0153 5.60762C62.0153 4.80087 61.5318 4.07269 60.7882 3.75967" fill="#2C2B46"/>
<path d="M41.3848 3.23613C41.3848 2.6748 41.8398 2.21976 42.4011 2.21976H56.9999C57.5612 2.21976 58.0163 2.6748 58.0163 3.23613V7.97919C58.0163 8.54052 57.5612 8.99556 56.9999 8.99556H42.4011C41.8398 8.99556 41.3848 8.54052 41.3848 7.97919V3.23613Z" fill="#2C2B46"/>
<path fill-rule="evenodd" clip-rule="evenodd" d="M27.8306 2.47348C29.878 2.47357 31.8471 3.26028 33.331 4.671C33.4427 4.77991 33.6213 4.77854 33.7314 4.66792L34.7995 3.58995C34.8552 3.53384 34.8863 3.45785 34.8858 3.37877C34.8853 3.2997 34.8534 3.22407 34.797 3.16862C30.9024 -0.563815 24.7581 -0.563815 20.8635 3.16862C20.8071 3.22403 20.7751 3.29963 20.7745 3.37871C20.774 3.45778 20.805 3.5338 20.8607 3.58995L21.9291 4.66792C22.0391 4.77871 22.2179 4.78008 22.3295 4.671C23.8136 3.26019 25.7829 2.47348 27.8306 2.47348ZM27.8306 5.98058C28.9555 5.98051 30.0403 6.39864 30.8741 7.15372C30.9869 7.26088 31.1646 7.25856 31.2745 7.14848L32.3414 6.07051C32.3976 6.01397 32.4288 5.93726 32.4279 5.85756C32.4271 5.77785 32.3944 5.7018 32.3371 5.64641C29.7978 3.28438 25.8654 3.28438 23.3262 5.64641C23.2688 5.7018 23.2361 5.77789 23.2353 5.85762C23.2346 5.93735 23.2659 6.01405 23.3222 6.07051L24.3888 7.14848C24.4987 7.25856 24.6764 7.26088 24.7891 7.15372C25.6224 6.39914 26.7064 5.98104 27.8306 5.98058ZM29.9677 8.34024C29.9693 8.42017 29.9379 8.49723 29.8809 8.55323L28.0354 10.4156C27.9813 10.4704 27.9075 10.5012 27.8306 10.5012C27.7536 10.5012 27.6798 10.4704 27.6257 10.4156L25.78 8.55323C25.7229 8.49719 25.6916 8.4201 25.6933 8.34017C25.6949 8.26024 25.7295 8.18455 25.7889 8.13097C26.9675 7.13411 28.6936 7.13411 29.8722 8.13097C29.9315 8.18459 29.9661 8.26031 29.9677 8.34024Z" fill="#2C2B46"/>
<path fill-rule="evenodd" clip-rule="evenodd" d="M15.2057 0.679688H14.2817C13.7714 0.679688 13.3577 1.09336 13.3577 1.60366V9.61143C13.3577 10.1217 13.7714 10.5354 14.2817 10.5354H15.2057C15.716 10.5354 16.1297 10.1217 16.1297 9.61143V1.60366C16.1297 1.09336 15.716 0.679688 15.2057 0.679688ZM9.96984 2.83563H10.8938C11.4041 2.83563 11.8178 3.2493 11.8178 3.7596V9.61143C11.8178 10.1217 11.4041 10.5354 10.8938 10.5354H9.96984C9.45955 10.5354 9.04587 10.1217 9.04587 9.61143V3.7596C9.04587 3.2493 9.45955 2.83563 9.96984 2.83563ZM6.58194 4.99156H5.65797C5.14767 4.99156 4.73399 5.40524 4.73399 5.91554V9.61143C4.73399 10.1217 5.14767 10.5354 5.65797 10.5354H6.58194C7.09224 10.5354 7.50591 10.1217 7.50591 9.61143V5.91554C7.50591 5.40524 7.09224 4.99156 6.58194 4.99156ZM2.27007 6.83951H1.34609C0.835796 6.83951 0.422119 7.25319 0.422119 7.76348V9.61143C0.422119 10.1217 0.835796 10.5354 1.34609 10.5354H2.27007C2.78036 10.5354 3.19404 10.1217 3.19404 9.61143V7.76348C3.19404 7.25319 2.78036 6.83951 2.27007 6.83951Z" fill="#2C2B46"/>
</svg>
