<svg width="62" height="11" viewBox="0 0 62 11" fill="none" xmlns="http://www.w3.org/2000/svg">
<path opacity="0.35" d="M41.9608 0.833782H57.3603C58.466 0.833782 59.3623 1.73008 59.3623 2.83572V8.37957C59.3623 9.48521 58.466 10.3815 57.3603 10.3815H41.9608C40.8551 10.3815 39.9588 9.48521 39.9588 8.37956V2.83572C39.9588 1.73008 40.8551 0.833782 41.9608 0.833782Z" stroke="#2C2B46" stroke-width="0.923973"/>
<path opacity="0.4" d="M60.7482 3.75967V7.45557C61.4917 7.14255 61.9752 6.41437 61.9752 5.60762C61.9752 4.80087 61.4917 4.07269 60.7482 3.75967" fill="#2C2B46"/>
<path d="M41.3447 3.23613C41.3447 2.6748 41.7998 2.21976 42.3611 2.21976H56.9599C57.5212 2.21976 57.9762 2.6748 57.9762 3.23613V7.97919C57.9762 8.54052 57.5212 8.99556 56.9599 8.99556H42.3611C41.7998 8.99556 41.3447 8.54052 41.3447 7.97919V3.23613Z" fill="#2C2B46"/>
<path fill-rule="evenodd" clip-rule="evenodd" d="M27.7905 2.47348C29.8379 2.47357 31.8071 3.26028 33.2909 4.671C33.4027 4.77991 33.5813 4.77854 33.6913 4.66792L34.7594 3.58995C34.8152 3.53384 34.8462 3.45785 34.8458 3.37877C34.8453 3.2997 34.8133 3.22407 34.757 3.16862C30.8623 -0.563815 24.7181 -0.563815 20.8235 3.16862C20.767 3.22403 20.735 3.29963 20.7345 3.37871C20.734 3.45778 20.765 3.5338 20.8207 3.58995L21.8891 4.66792C21.9991 4.77871 22.1778 4.78008 22.2895 4.671C23.7735 3.26019 25.7429 2.47348 27.7905 2.47348ZM27.7905 5.98058C28.9154 5.98051 30.0002 6.39864 30.8341 7.15372C30.9469 7.26088 31.1245 7.25856 31.2345 7.14848L32.3014 6.07051C32.3575 6.01397 32.3887 5.93726 32.3879 5.85756C32.3871 5.77785 32.3544 5.7018 32.297 5.64641C29.7578 3.28438 25.8254 3.28438 23.2861 5.64641C23.2288 5.7018 23.1961 5.77789 23.1953 5.85762C23.1946 5.93735 23.2258 6.01405 23.2821 6.07051L24.3487 7.14848C24.4587 7.25856 24.6363 7.26088 24.7491 7.15372C25.5824 6.39914 26.6663 5.98104 27.7905 5.98058ZM29.9277 8.34024C29.9293 8.42017 29.8979 8.49723 29.8408 8.55323L27.9953 10.4156C27.9412 10.4704 27.8675 10.5012 27.7905 10.5012C27.7136 10.5012 27.6398 10.4704 27.5857 10.4156L25.7399 8.55323C25.6829 8.49719 25.6515 8.4201 25.6532 8.34017C25.6549 8.26024 25.6895 8.18455 25.7488 8.13097C26.9274 7.13411 28.6536 7.13411 29.8322 8.13097C29.8915 8.18459 29.926 8.26031 29.9277 8.34024Z" fill="#2C2B46"/>
<path fill-rule="evenodd" clip-rule="evenodd" d="M15.1657 0.679688H14.2417C13.7314 0.679688 13.3177 1.09336 13.3177 1.60366V9.61143C13.3177 10.1217 13.7314 10.5354 14.2417 10.5354H15.1657C15.6759 10.5354 16.0896 10.1217 16.0896 9.61143V1.60366C16.0896 1.09336 15.6759 0.679688 15.1657 0.679688ZM9.9298 2.83563H10.8538C11.3641 2.83563 11.7778 3.2493 11.7778 3.7596V9.61143C11.7778 10.1217 11.3641 10.5354 10.8538 10.5354H9.9298C9.41951 10.5354 9.00583 10.1217 9.00583 9.61143V3.7596C9.00583 3.2493 9.41951 2.83563 9.9298 2.83563ZM6.5419 4.99156H5.61793C5.10763 4.99156 4.69396 5.40524 4.69396 5.91554V9.61143C4.69396 10.1217 5.10763 10.5354 5.61793 10.5354H6.5419C7.0522 10.5354 7.46588 10.1217 7.46588 9.61143V5.91554C7.46588 5.40524 7.0522 4.99156 6.5419 4.99156ZM2.23003 6.83951H1.30605C0.795757 6.83951 0.38208 7.25319 0.38208 7.76348V9.61143C0.38208 10.1217 0.795757 10.5354 1.30605 10.5354H2.23003C2.74032 10.5354 3.154 10.1217 3.154 9.61143V7.76348C3.154 7.25319 2.74032 6.83951 2.23003 6.83951Z" fill="#2C2B46"/>
</svg>
