<svg width="62" height="11" viewBox="0 0 62 11" fill="none" xmlns="http://www.w3.org/2000/svg">
<path opacity="0.35" d="M41.6541 0.833782H57.0536C58.1593 0.833782 59.0556 1.73008 59.0556 2.83572V8.37957C59.0556 9.48521 58.1593 10.3815 57.0536 10.3815H41.6541C40.5484 10.3815 39.6521 9.48521 39.6521 8.37956V2.83572C39.6521 1.73008 40.5484 0.833782 41.6541 0.833782Z" stroke="#2C2B46" stroke-width="0.923973"/>
<path opacity="0.4" d="M60.4415 3.75967V7.45557C61.1851 7.14255 61.6686 6.41437 61.6686 5.60762C61.6686 4.80087 61.1851 4.07269 60.4415 3.75967" fill="#2C2B46"/>
<path d="M41.0381 3.23613C41.0381 2.6748 41.4931 2.21976 42.0545 2.21976H56.6532C57.2146 2.21976 57.6696 2.6748 57.6696 3.23613V7.97919C57.6696 8.54052 57.2146 8.99556 56.6532 8.99556H42.0545C41.4931 8.99556 41.0381 8.54052 41.0381 7.97919V3.23613Z" fill="#2C2B46"/>
<path fill-rule="evenodd" clip-rule="evenodd" d="M27.4838 2.47348C29.5312 2.47357 31.5004 3.26028 32.9842 4.671C33.096 4.77991 33.2746 4.77854 33.3846 4.66792L34.4527 3.58995C34.5085 3.53384 34.5395 3.45785 34.5391 3.37877C34.5386 3.2997 34.5066 3.22407 34.4503 3.16862C30.5556 -0.563815 24.4114 -0.563815 20.5167 3.16862C20.4603 3.22403 20.4283 3.29963 20.4278 3.37871C20.4273 3.45778 20.4583 3.5338 20.514 3.58995L21.5824 4.66792C21.6924 4.77871 21.8711 4.78008 21.9828 4.671C23.4668 3.26019 25.4362 2.47348 27.4838 2.47348ZM27.4838 5.98058C28.6087 5.98051 29.6935 6.39864 30.5274 7.15372C30.6402 7.26088 30.8178 7.25856 30.9278 7.14848L31.9947 6.07051C32.0508 6.01397 32.082 5.93726 32.0812 5.85756C32.0804 5.77785 32.0477 5.7018 31.9903 5.64641C29.4511 3.28438 25.5187 3.28438 22.9794 5.64641C22.9221 5.7018 22.8894 5.77789 22.8886 5.85762C22.8879 5.93735 22.9191 6.01405 22.9754 6.07051L24.042 7.14848C24.152 7.25856 24.3296 7.26088 24.4424 7.15372C25.2757 6.39914 26.3596 5.98104 27.4838 5.98058ZM29.621 8.34024C29.6226 8.42017 29.5912 8.49723 29.5341 8.55323L27.6886 10.4156C27.6345 10.4704 27.5608 10.5012 27.4838 10.5012C27.4069 10.5012 27.3331 10.4704 27.279 10.4156L25.4332 8.55323C25.3762 8.49719 25.3448 8.4201 25.3465 8.34017C25.3482 8.26024 25.3828 8.18455 25.4421 8.13097C26.6207 7.13411 28.3469 7.13411 29.5255 8.13097C29.5848 8.18459 29.6193 8.26031 29.621 8.34024Z" fill="#2C2B46"/>
<path fill-rule="evenodd" clip-rule="evenodd" d="M14.8589 0.679688H13.9349C13.4246 0.679688 13.0109 1.09336 13.0109 1.60366V9.61143C13.0109 10.1217 13.4246 10.5354 13.9349 10.5354H14.8589C15.3692 10.5354 15.7829 10.1217 15.7829 9.61143V1.60366C15.7829 1.09336 15.3692 0.679688 14.8589 0.679688ZM9.62304 2.83563H10.547C11.0573 2.83563 11.471 3.2493 11.471 3.7596V9.61143C11.471 10.1217 11.0573 10.5354 10.547 10.5354H9.62304C9.11274 10.5354 8.69907 10.1217 8.69907 9.61143V3.7596C8.69907 3.2493 9.11274 2.83563 9.62304 2.83563ZM6.23514 4.99156H5.31117C4.80087 4.99156 4.38719 5.40524 4.38719 5.91554V9.61143C4.38719 10.1217 4.80087 10.5354 5.31117 10.5354H6.23514C6.74544 10.5354 7.15911 10.1217 7.15911 9.61143V5.91554C7.15911 5.40524 6.74544 4.99156 6.23514 4.99156ZM1.92326 6.83951H0.999291C0.488994 6.83951 0.0753174 7.25319 0.0753174 7.76348V9.61143C0.0753174 10.1217 0.488994 10.5354 0.999291 10.5354H1.92326C2.43356 10.5354 2.84724 10.1217 2.84724 9.61143V7.76348C2.84724 7.25319 2.43356 6.83951 1.92326 6.83951Z" fill="#2C2B46"/>
</svg>
