<svg width="62" height="11" viewBox="0 0 62 11" fill="none" xmlns="http://www.w3.org/2000/svg">
<path opacity="0.35" d="M41.8584 0.833782H57.258C58.3636 0.833782 59.2599 1.73008 59.2599 2.83572V8.37957C59.2599 9.48521 58.3636 10.3815 57.258 10.3815H41.8584C40.7528 10.3815 39.8565 9.48521 39.8565 8.37956V2.83572C39.8565 1.73008 40.7528 0.833782 41.8584 0.833782Z" stroke="#2B2B53" stroke-width="0.923973"/>
<path opacity="0.4" d="M60.6459 3.75967V7.45557C61.3894 7.14255 61.8729 6.41437 61.8729 5.60762C61.8729 4.80087 61.3894 4.07269 60.6459 3.75967" fill="#2B2B53"/>
<path d="M41.2424 3.23613C41.2424 2.6748 41.6975 2.21976 42.2588 2.21976H56.8576C57.4189 2.21976 57.874 2.6748 57.874 3.23613V7.97919C57.874 8.54052 57.4189 8.99556 56.8576 8.99556H42.2588C41.6975 8.99556 41.2424 8.54052 41.2424 7.97919V3.23613Z" fill="#2B2B53"/>
<path fill-rule="evenodd" clip-rule="evenodd" d="M27.6882 2.47348C29.7356 2.47357 31.7047 3.26028 33.1886 4.671C33.3003 4.77991 33.4789 4.77854 33.589 4.66792L34.6571 3.58995C34.7128 3.53384 34.7439 3.45785 34.7434 3.37877C34.7429 3.2997 34.711 3.22407 34.6546 3.16862C30.76 -0.563815 24.6157 -0.563815 20.7211 3.16862C20.6647 3.22403 20.6327 3.29963 20.6321 3.37871C20.6316 3.45778 20.6626 3.5338 20.7183 3.58995L21.7867 4.66792C21.8967 4.77871 22.0755 4.78008 22.1871 4.671C23.6712 3.26019 25.6405 2.47348 27.6882 2.47348ZM27.6882 5.98058C28.8131 5.98051 29.8979 6.39864 30.7317 7.15372C30.8445 7.26088 31.0222 7.25856 31.1321 7.14848L32.199 6.07051C32.2552 6.01397 32.2864 5.93726 32.2855 5.85756C32.2847 5.77785 32.252 5.7018 32.1947 5.64641C29.6554 3.28438 25.7231 3.28438 23.1838 5.64641C23.1264 5.7018 23.0937 5.77789 23.093 5.85762C23.0922 5.93735 23.1235 6.01405 23.1798 6.07051L24.2464 7.14848C24.3563 7.25856 24.534 7.26088 24.6467 7.15372C25.4801 6.39914 26.564 5.98104 27.6882 5.98058ZM29.8253 8.34024C29.8269 8.42017 29.7955 8.49723 29.7385 8.55323L27.893 10.4156C27.8389 10.4704 27.7651 10.5012 27.6882 10.5012C27.6112 10.5012 27.5374 10.4704 27.4833 10.4156L25.6376 8.55323C25.5805 8.49719 25.5492 8.4201 25.5509 8.34017C25.5526 8.26024 25.5872 8.18455 25.6465 8.13097C26.8251 7.13411 28.5512 7.13411 29.7298 8.13097C29.7891 8.18459 29.8237 8.26031 29.8253 8.34024Z" fill="#2B2B53"/>
<path fill-rule="evenodd" clip-rule="evenodd" d="M15.0632 0.679688H14.1393C13.629 0.679688 13.2153 1.09336 13.2153 1.60366V9.61143C13.2153 10.1217 13.629 10.5354 14.1393 10.5354H15.0632C15.5735 10.5354 15.9872 10.1217 15.9872 9.61143V1.60366C15.9872 1.09336 15.5735 0.679688 15.0632 0.679688ZM9.82739 2.83563H10.7514C11.2617 2.83563 11.6753 3.2493 11.6753 3.7596V9.61143C11.6753 10.1217 11.2617 10.5354 10.7514 10.5354H9.82739C9.31709 10.5354 8.90341 10.1217 8.90341 9.61143V3.7596C8.90341 3.2493 9.31709 2.83563 9.82739 2.83563ZM6.43949 4.99156H5.51551C5.00522 4.99156 4.59154 5.40524 4.59154 5.91554V9.61143C4.59154 10.1217 5.00522 10.5354 5.51551 10.5354H6.43949C6.94978 10.5354 7.36346 10.1217 7.36346 9.61143V5.91554C7.36346 5.40524 6.94978 4.99156 6.43949 4.99156ZM2.12761 6.83951H1.20364C0.69334 6.83951 0.279663 7.25319 0.279663 7.76348V9.61143C0.279663 10.1217 0.69334 10.5354 1.20364 10.5354H2.12761C2.63791 10.5354 3.05158 10.1217 3.05158 9.61143V7.76348C3.05158 7.25319 2.63791 6.83951 2.12761 6.83951Z" fill="#2B2B53"/>
</svg>
