<svg width="63" height="11" viewBox="0 0 63 11" fill="none" xmlns="http://www.w3.org/2000/svg">
<path opacity="0.35" d="M42.3074 0.833782H57.7069C58.8126 0.833782 59.7089 1.73008 59.7089 2.83572V8.37957C59.7089 9.48521 58.8126 10.3815 57.7069 10.3815H42.3074C41.2017 10.3815 40.3054 9.48521 40.3054 8.37956V2.83572C40.3054 1.73008 41.2017 0.833782 42.3074 0.833782Z" stroke="#2C2B46" stroke-width="0.923973"/>
<path opacity="0.4" d="M61.0948 3.75967V7.45557C61.8383 7.14255 62.3219 6.41437 62.3219 5.60762C62.3219 4.80087 61.8383 4.07269 61.0948 3.75967" fill="#2C2B46"/>
<path d="M41.6914 3.23613C41.6914 2.6748 42.1465 2.21976 42.7078 2.21976H57.3066C57.8679 2.21976 58.3229 2.6748 58.3229 3.23613V7.97919C58.3229 8.54052 57.8679 8.99556 57.3066 8.99556H42.7078C42.1465 8.99556 41.6914 8.54052 41.6914 7.97919V3.23613Z" fill="#2C2B46"/>
<path fill-rule="evenodd" clip-rule="evenodd" d="M28.1371 2.47348C30.1846 2.47357 32.1537 3.26028 33.6375 4.671C33.7493 4.77991 33.9279 4.77854 34.0379 4.66792L35.1061 3.58995C35.1618 3.53384 35.1928 3.45785 35.1924 3.37877C35.1919 3.2997 35.16 3.22407 35.1036 3.16862C31.2089 -0.563815 25.0647 -0.563815 21.1701 3.16862C21.1137 3.22403 21.0816 3.29963 21.0811 3.37871C21.0806 3.45778 21.1116 3.5338 21.1673 3.58995L22.2357 4.66792C22.3457 4.77871 22.5244 4.78008 22.6361 4.671C24.1201 3.26019 26.0895 2.47348 28.1371 2.47348ZM28.1371 5.98058C29.2621 5.98051 30.3468 6.39864 31.1807 7.15372C31.2935 7.26088 31.4711 7.25856 31.5811 7.14848L32.648 6.07051C32.7042 6.01397 32.7353 5.93726 32.7345 5.85756C32.7337 5.77785 32.701 5.7018 32.6437 5.64641C30.1044 3.28438 26.172 3.28438 23.6328 5.64641C23.5754 5.7018 23.5427 5.77789 23.5419 5.85762C23.5412 5.93735 23.5725 6.01405 23.6288 6.07051L24.6953 7.14848C24.8053 7.25856 24.9829 7.26088 25.0957 7.15372C25.929 6.39914 27.013 5.98104 28.1371 5.98058ZM30.2743 8.34024C30.2759 8.42017 30.2445 8.49723 30.1874 8.55323L28.3419 10.4156C28.2879 10.4704 28.2141 10.5012 28.1371 10.5012C28.0602 10.5012 27.9864 10.4704 27.9323 10.4156L26.0865 8.55323C26.0295 8.49719 25.9981 8.4201 25.9998 8.34017C26.0015 8.26024 26.0361 8.18455 26.0955 8.13097C27.2741 7.13411 29.0002 7.13411 30.1788 8.13097C30.2381 8.18459 30.2726 8.26031 30.2743 8.34024Z" fill="#2C2B46"/>
<path fill-rule="evenodd" clip-rule="evenodd" d="M15.5122 0.679688H14.5882C14.0779 0.679688 13.6643 1.09336 13.6643 1.60366V9.61143C13.6643 10.1217 14.0779 10.5354 14.5882 10.5354H15.5122C16.0225 10.5354 16.4362 10.1217 16.4362 9.61143V1.60366C16.4362 1.09336 16.0225 0.679688 15.5122 0.679688ZM10.2764 2.83563H11.2003C11.7106 2.83563 12.1243 3.2493 12.1243 3.7596V9.61143C12.1243 10.1217 11.7106 10.5354 11.2003 10.5354H10.2764C9.76606 10.5354 9.35239 10.1217 9.35239 9.61143V3.7596C9.35239 3.2493 9.76606 2.83563 10.2764 2.83563ZM6.88846 4.99156H5.96449C5.45419 4.99156 5.04051 5.40524 5.04051 5.91554V9.61143C5.04051 10.1217 5.45419 10.5354 5.96449 10.5354H6.88846C7.39876 10.5354 7.81243 10.1217 7.81243 9.61143V5.91554C7.81243 5.40524 7.39876 4.99156 6.88846 4.99156ZM2.57658 6.83951H1.65261C1.14231 6.83951 0.728638 7.25319 0.728638 7.76348V9.61143C0.728638 10.1217 1.14231 10.5354 1.65261 10.5354H2.57658C3.08688 10.5354 3.50056 10.1217 3.50056 9.61143V7.76348C3.50056 7.25319 3.08688 6.83951 2.57658 6.83951Z" fill="#2C2B46"/>
</svg>
