<svg width="63" height="11" viewBox="0 0 63 11" fill="none" xmlns="http://www.w3.org/2000/svg">
<path opacity="0.35" d="M42.4495 0.833782H57.8491C58.9547 0.833782 59.851 1.73008 59.851 2.83572V8.37957C59.851 9.48521 58.9547 10.3815 57.8491 10.3815H42.4495C41.3439 10.3815 40.4476 9.48521 40.4476 8.37956V2.83572C40.4476 1.73008 41.3439 0.833782 42.4495 0.833782Z" stroke="#2B2B53" stroke-width="0.923973"/>
<path opacity="0.4" d="M61.2371 3.75967V7.45557C61.9806 7.14255 62.4641 6.41437 62.4641 5.60762C62.4641 4.80087 61.9806 4.07269 61.2371 3.75967" fill="#2B2B53"/>
<path d="M41.8335 3.23613C41.8335 2.6748 42.2885 2.21976 42.8499 2.21976H57.4486C58.01 2.21976 58.465 2.6748 58.465 3.23613V7.97919C58.465 8.54052 58.01 8.99556 57.4486 8.99556H42.8499C42.2885 8.99556 41.8335 8.54052 41.8335 7.97919V3.23613Z" fill="#2B2B53"/>
<path fill-rule="evenodd" clip-rule="evenodd" d="M28.2794 2.47348C30.3268 2.47357 32.296 3.26028 33.7798 4.671C33.8916 4.77991 34.0702 4.77854 34.1802 4.66792L35.2483 3.58995C35.304 3.53384 35.3351 3.45785 35.3347 3.37877C35.3342 3.2997 35.3022 3.22407 35.2459 3.16862C31.3512 -0.563815 25.207 -0.563815 21.3123 3.16862C21.2559 3.22403 21.2239 3.29963 21.2234 3.37871C21.2229 3.45778 21.2539 3.5338 21.3096 3.58995L22.378 4.66792C22.488 4.77871 22.6667 4.78008 22.7784 4.671C24.2624 3.26019 26.2318 2.47348 28.2794 2.47348ZM28.2794 5.98058C29.4043 5.98051 30.4891 6.39864 31.323 7.15372C31.4358 7.26088 31.6134 7.25856 31.7234 7.14848L32.7902 6.07051C32.8464 6.01397 32.8776 5.93726 32.8768 5.85756C32.876 5.77785 32.8433 5.7018 32.7859 5.64641C30.2467 3.28438 26.3143 3.28438 23.775 5.64641C23.7177 5.7018 23.685 5.77789 23.6842 5.85762C23.6834 5.93735 23.7147 6.01405 23.771 6.07051L24.8376 7.14848C24.9476 7.25856 25.1252 7.26088 25.238 7.15372C26.0713 6.39914 27.1552 5.98104 28.2794 5.98058ZM30.4166 8.34024C30.4182 8.42017 30.3868 8.49723 30.3297 8.55323L28.4842 10.4156C28.4301 10.4704 28.3564 10.5012 28.2794 10.5012C28.2025 10.5012 28.1287 10.4704 28.0746 10.4156L26.2288 8.55323C26.1718 8.49719 26.1404 8.4201 26.1421 8.34017C26.1438 8.26024 26.1784 8.18455 26.2377 8.13097C27.4163 7.13411 29.1425 7.13411 30.3211 8.13097C30.3804 8.18459 30.4149 8.26031 30.4166 8.34024Z" fill="#2B2B53"/>
<path fill-rule="evenodd" clip-rule="evenodd" d="M15.6544 0.679688H14.7304C14.2202 0.679688 13.8065 1.09336 13.8065 1.60366V9.61143C13.8065 10.1217 14.2202 10.5354 14.7304 10.5354H15.6544C16.1647 10.5354 16.5784 10.1217 16.5784 9.61143V1.60366C16.5784 1.09336 16.1647 0.679688 15.6544 0.679688ZM10.4186 2.83563H11.3425C11.8528 2.83563 12.2665 3.2493 12.2665 3.7596V9.61143C12.2665 10.1217 11.8528 10.5354 11.3425 10.5354H10.4186C9.90828 10.5354 9.4946 10.1217 9.4946 9.61143V3.7596C9.4946 3.2493 9.90828 2.83563 10.4186 2.83563ZM7.03067 4.99156H6.1067C5.5964 4.99156 5.18272 5.40524 5.18272 5.91554V9.61143C5.18272 10.1217 5.5964 10.5354 6.1067 10.5354H7.03067C7.54097 10.5354 7.95464 10.1217 7.95464 9.61143V5.91554C7.95464 5.40524 7.54097 4.99156 7.03067 4.99156ZM2.7188 6.83951H1.79482C1.28453 6.83951 0.87085 7.25319 0.87085 7.76348V9.61143C0.87085 10.1217 1.28453 10.5354 1.79482 10.5354H2.7188C3.22909 10.5354 3.64277 10.1217 3.64277 9.61143V7.76348C3.64277 7.25319 3.22909 6.83951 2.7188 6.83951Z" fill="#2B2B53"/>
</svg>
