<svg width="63" height="11" viewBox="0 0 63 11" fill="none" xmlns="http://www.w3.org/2000/svg">
<path opacity="0.35" d="M42.103 0.833782H57.5026C58.6082 0.833782 59.5045 1.73008 59.5045 2.83572V8.37957C59.5045 9.48521 58.6082 10.3815 57.5026 10.3815H42.103C40.9974 10.3815 40.1011 9.48521 40.1011 8.37956V2.83572C40.1011 1.73008 40.9974 0.833782 42.103 0.833782Z" stroke="#2C2B46" stroke-width="0.923973"/>
<path opacity="0.4" d="M60.8905 3.75967V7.45557C61.6341 7.14255 62.1176 6.41437 62.1176 5.60762C62.1176 4.80087 61.6341 4.07269 60.8905 3.75967" fill="#2C2B46"/>
<path d="M41.4871 3.23613C41.4871 2.6748 41.9421 2.21976 42.5034 2.21976H57.1022C57.6635 2.21976 58.1186 2.6748 58.1186 3.23613V7.97919C58.1186 8.54052 57.6635 8.99556 57.1022 8.99556H42.5034C41.9421 8.99556 41.4871 8.54052 41.4871 7.97919V3.23613Z" fill="#2C2B46"/>
<path fill-rule="evenodd" clip-rule="evenodd" d="M27.9328 2.47348C29.9802 2.47357 31.9494 3.26028 33.4332 4.671C33.5449 4.77991 33.7235 4.77854 33.8336 4.66792L34.9017 3.58995C34.9574 3.53384 34.9885 3.45785 34.988 3.37877C34.9876 3.2997 34.9556 3.22407 34.8992 3.16862C31.0046 -0.563815 24.8604 -0.563815 20.9657 3.16862C20.9093 3.22403 20.8773 3.29963 20.8768 3.37871C20.8763 3.45778 20.9073 3.5338 20.963 3.58995L22.0314 4.66792C22.1414 4.77871 22.3201 4.78008 22.4318 4.671C23.9158 3.26019 25.8852 2.47348 27.9328 2.47348ZM27.9328 5.98058C29.0577 5.98051 30.1425 6.39864 30.9764 7.15372C31.0891 7.26088 31.2668 7.25856 31.3767 7.14848L32.4436 6.07051C32.4998 6.01397 32.531 5.93726 32.5302 5.85756C32.5294 5.77785 32.4966 5.7018 32.4393 5.64641C29.9001 3.28438 25.9677 3.28438 23.4284 5.64641C23.3711 5.7018 23.3383 5.77789 23.3376 5.85762C23.3368 5.93735 23.3681 6.01405 23.4244 6.07051L24.491 7.14848C24.6009 7.25856 24.7786 7.26088 24.8914 7.15372C25.7247 6.39914 26.8086 5.98104 27.9328 5.98058ZM30.0699 8.34024C30.0716 8.42017 30.0401 8.49723 29.9831 8.55323L28.1376 10.4156C28.0835 10.4704 28.0097 10.5012 27.9328 10.5012C27.8558 10.5012 27.7821 10.4704 27.728 10.4156L25.8822 8.55323C25.8252 8.49719 25.7938 8.4201 25.7955 8.34017C25.7972 8.26024 25.8318 8.18455 25.8911 8.13097C27.0697 7.13411 28.7959 7.13411 29.9745 8.13097C30.0338 8.18459 30.0683 8.26031 30.0699 8.34024Z" fill="#2C2B46"/>
<path fill-rule="evenodd" clip-rule="evenodd" d="M15.3079 0.679688H14.3839C13.8736 0.679688 13.4599 1.09336 13.4599 1.60366V9.61143C13.4599 10.1217 13.8736 10.5354 14.3839 10.5354H15.3079C15.8182 10.5354 16.2318 10.1217 16.2318 9.61143V1.60366C16.2318 1.09336 15.8182 0.679688 15.3079 0.679688ZM10.072 2.83563H10.996C11.5063 2.83563 11.92 3.2493 11.92 3.7596V9.61143C11.92 10.1217 11.5063 10.5354 10.996 10.5354H10.072C9.56172 10.5354 9.14804 10.1217 9.14804 9.61143V3.7596C9.14804 3.2493 9.56172 2.83563 10.072 2.83563ZM6.68411 4.99156H5.76014C5.24984 4.99156 4.83617 5.40524 4.83617 5.91554V9.61143C4.83617 10.1217 5.24984 10.5354 5.76014 10.5354H6.68411C7.19441 10.5354 7.60809 10.1217 7.60809 9.61143V5.91554C7.60809 5.40524 7.19441 4.99156 6.68411 4.99156ZM2.37224 6.83951H1.44827C0.937969 6.83951 0.524292 7.25319 0.524292 7.76348V9.61143C0.524292 10.1217 0.937969 10.5354 1.44827 10.5354H2.37224C2.88253 10.5354 3.29621 10.1217 3.29621 9.61143V7.76348C3.29621 7.25319 2.88253 6.83951 2.37224 6.83951Z" fill="#2C2B46"/>
</svg>
