<svg width="49" height="49" viewBox="0 0 49 49" fill="none" xmlns="http://www.w3.org/2000/svg">
<path d="M36.3186 28.953C35.8001 29.4555 35.5619 30.1822 35.68 30.8949L37.4598 40.7445C37.6099 41.5793 37.2576 42.4241 36.5589 42.9066C35.8742 43.4071 34.9633 43.4671 34.2166 43.0667L25.35 38.4422C25.0417 38.2781 24.6994 38.19 24.349 38.18H23.8065C23.6183 38.208 23.4342 38.2681 23.266 38.3602L14.3974 43.0067C13.959 43.2269 13.4625 43.305 12.976 43.2269C11.7909 43.0027 11.0001 41.8736 11.1943 40.6824L12.976 30.8329C13.0941 30.1142 12.8559 29.3835 12.3374 28.873L5.10837 21.8662C4.50379 21.2796 4.29358 20.3987 4.56985 19.604C4.83811 18.8112 5.52277 18.2326 6.34958 18.1025L16.2992 16.6591C17.056 16.581 17.7206 16.1206 18.0609 15.4399L22.4452 6.45121C22.5493 6.25102 22.6834 6.06684 22.8456 5.91069L23.0258 5.77055C23.1198 5.66645 23.2279 5.58037 23.3481 5.5103L23.5663 5.43022L23.9066 5.29008H24.7494C25.5022 5.36816 26.1648 5.8186 26.5111 6.49125L30.9534 15.4399C31.2738 16.0946 31.8964 16.549 32.6151 16.6591L42.5647 18.1025C43.4055 18.2226 44.1082 18.8032 44.3865 19.604C44.6487 20.4068 44.4225 21.2876 43.8059 21.8662L36.3186 28.953Z" fill="#FE9370"/>
</svg>
