<svg width="49" height="49" viewBox="0 0 49 49" fill="none" xmlns="http://www.w3.org/2000/svg">
<path d="M36.7674 28.9947C36.2489 29.4972 36.0107 30.2239 36.1288 30.9366L37.9085 40.7861C38.0587 41.6209 37.7063 42.4658 37.0076 42.9482C36.323 43.4487 35.4121 43.5088 34.6654 43.1084L25.7988 38.4839C25.4905 38.3197 25.1481 38.2316 24.7978 38.2216H24.2553C24.0671 38.2497 23.8829 38.3097 23.7147 38.4018L14.8461 43.0483C14.4077 43.2685 13.9112 43.3466 13.4248 43.2685C12.2396 43.0443 11.4488 41.9152 11.643 40.7241L13.4248 30.8745C13.5429 30.1558 13.3046 29.4251 12.7861 28.9146L5.55713 21.9078C4.95255 21.3212 4.74234 20.4404 5.01861 19.6456C5.28687 18.8528 5.97153 18.2743 6.79834 18.1442L16.748 16.7008C17.5047 16.6227 18.1694 16.1622 18.5097 15.4816L22.894 6.49285C22.9981 6.29266 23.1322 6.10848 23.2943 5.95233L23.4745 5.81219C23.5686 5.70809 23.6767 5.62201 23.7968 5.55194L24.015 5.47186L24.3554 5.33173H25.1982C25.9509 5.4098 26.6136 5.86024 26.9599 6.53289L31.4022 15.4816C31.7225 16.1362 32.3451 16.5906 33.0638 16.7008L43.0135 18.1442C43.8543 18.2643 44.557 18.8448 44.8352 19.6456C45.0975 20.4484 44.8713 21.3292 44.2547 21.9078L36.7674 28.9947Z" fill="#FE9370"/>
</svg>
