<svg width="49" height="49" viewBox="0 0 49 49" fill="none" xmlns="http://www.w3.org/2000/svg">
<path d="M36.0323 28.953C35.5138 29.4555 35.2756 30.1822 35.3937 30.8949L37.1734 40.7445C37.3236 41.5793 36.9712 42.4241 36.2725 42.9066C35.5879 43.4071 34.677 43.4671 33.9303 43.0667L25.0637 38.4422C24.7554 38.2781 24.413 38.19 24.0627 38.18H23.5202C23.332 38.208 23.1478 38.2681 22.9796 38.3602L14.111 43.0067C13.6726 43.2269 13.1761 43.305 12.6897 43.2269C11.5045 43.0027 10.7137 41.8736 10.9079 40.6824L12.6897 30.8329C12.8078 30.1142 12.5695 29.3835 12.051 28.873L4.82203 21.8662C4.21744 21.2796 4.00724 20.3987 4.2835 19.604C4.55176 18.8112 5.23643 18.2326 6.06323 18.1025L16.0129 16.6591C16.7696 16.581 17.4343 16.1206 17.7746 15.4399L22.1588 6.45121C22.2629 6.25102 22.3971 6.06684 22.5592 5.91069L22.7394 5.77055C22.8335 5.66645 22.9416 5.58037 23.0617 5.5103L23.2799 5.43022L23.6203 5.29008H24.4631C25.2158 5.36816 25.8785 5.8186 26.2248 6.49125L30.6671 15.4399C30.9874 16.0946 31.61 16.549 32.3287 16.6591L42.2784 18.1025C43.1192 18.2226 43.8219 18.8032 44.1001 19.604C44.3624 20.4068 44.1362 21.2876 43.5196 21.8662L36.0323 28.953Z" fill="#FE9370"/>
</svg>
