<svg width="345" height="82" viewBox="0 0 345 82" fill="none" xmlns="http://www.w3.org/2000/svg">
<mask id="path-1-inside-1_42_124" fill="white">
<path fill-rule="evenodd" clip-rule="evenodd" d="M0 20C0 8.95431 8.95431 0 20 0H287.5V6.83333H290.5V0H325C336.046 0 345 8.95431 345 20V26C336.716 26 330 32.7157 330 41C330 49.2843 336.716 56 345 56V62C345 73.0457 336.046 82 325 82H290.5V75.1667H287.5V82H20C8.9543 82 0 73.0457 0 62V20ZM287.5 20.5V34.1667H290.5V20.5H287.5ZM287.5 47.8333V61.5H290.5V47.8333H287.5Z"/>
</mask>
<path fill-rule="evenodd" clip-rule="evenodd" d="M0 20C0 8.95431 8.95431 0 20 0H287.5V6.83333H290.5V0H325C336.046 0 345 8.95431 345 20V26C336.716 26 330 32.7157 330 41C330 49.2843 336.716 56 345 56V62C345 73.0457 336.046 82 325 82H290.5V75.1667H287.5V82H20C8.9543 82 0 73.0457 0 62V20ZM287.5 20.5V34.1667H290.5V20.5H287.5ZM287.5 47.8333V61.5H290.5V47.8333H287.5Z" fill="#B7FFD5"/>
<path d="M287.5 0H289V-1.5H287.5V0ZM287.5 6.83333H286V8.33333H287.5V6.83333ZM290.5 6.83333V8.33333H292V6.83333H290.5ZM290.5 0V-1.5H289V0H290.5ZM345 26V27.5H346.5V26H345ZM345 56H346.5V54.5H345V56ZM290.5 82H289V83.5H290.5V82ZM290.5 75.1667H292V73.6667H290.5V75.1667ZM287.5 75.1667V73.6667H286V75.1667H287.5ZM287.5 82V83.5H289V82H287.5ZM287.5 34.1667H286V35.6667H287.5V34.1667ZM287.5 20.5V19H286V20.5H287.5ZM290.5 34.1667V35.6667H292V34.1667H290.5ZM290.5 20.5H292V19H290.5V20.5ZM287.5 61.5H286V63H287.5V61.5ZM287.5 47.8333V46.3333H286V47.8333H287.5ZM290.5 61.5V63H292V61.5H290.5ZM290.5 47.8333H292V46.3333H290.5V47.8333ZM20 -1.5C8.12588 -1.5 -1.5 8.12588 -1.5 20H1.5C1.5 9.78273 9.78273 1.5 20 1.5V-1.5ZM287.5 -1.5H20V1.5H287.5V-1.5ZM289 6.83333V0H286V6.83333H289ZM290.5 5.33333H287.5V8.33333H290.5V5.33333ZM289 0V6.83333H292V0H289ZM325 -1.5H290.5V1.5H325V-1.5ZM346.5 20C346.5 8.12588 336.874 -1.5 325 -1.5V1.5C335.217 1.5 343.5 9.78273 343.5 20H346.5ZM346.5 26V20H343.5V26H346.5ZM331.5 41C331.5 33.5442 337.544 27.5 345 27.5V24.5C335.887 24.5 328.5 31.8873 328.5 41H331.5ZM345 54.5C337.544 54.5 331.5 48.4558 331.5 41H328.5C328.5 50.1127 335.887 57.5 345 57.5V54.5ZM346.5 62V56H343.5V62H346.5ZM325 83.5C336.874 83.5 346.5 73.8741 346.5 62H343.5C343.5 72.2173 335.217 80.5 325 80.5V83.5ZM290.5 83.5H325V80.5H290.5V83.5ZM289 75.1667V82H292V75.1667H289ZM287.5 76.6667H290.5V73.6667H287.5V76.6667ZM289 82V75.1667H286V82H289ZM20 83.5H287.5V80.5H20V83.5ZM-1.5 62C-1.5 73.8741 8.12587 83.5 20 83.5V80.5C9.78273 80.5 1.5 72.2173 1.5 62H-1.5ZM-1.5 20V62H1.5V20H-1.5ZM289 34.1667V20.5H286V34.1667H289ZM290.5 32.6667H287.5V35.6667H290.5V32.6667ZM289 20.5V34.1667H292V20.5H289ZM287.5 22H290.5V19H287.5V22ZM289 61.5V47.8333H286V61.5H289ZM290.5 60H287.5V63H290.5V60ZM289 47.8333V61.5H292V47.8333H289ZM287.5 49.3333H290.5V46.3333H287.5V49.3333Z" fill="#27AE60" mask="url(#path-1-inside-1_42_124)"/>
</svg>
