<svg width="42" height="43" viewBox="0 0 42 43" fill="none" xmlns="http://www.w3.org/2000/svg">
<g filter="url(#filter0_d_42_4581)">
<rect x="0.615845" y="0.835815" width="40.4923" height="40.4923" rx="4.43487" fill="#ABB0BC"/>
</g>
<path d="M19.6225 18.2139C19.3401 17.9315 19.3401 17.4737 19.6225 17.1913C19.9049 16.9089 20.3627 16.9089 20.6451 17.1913L23.0312 19.5774L25.4172 17.1913C25.6995 16.9089 26.1573 16.9089 26.4398 17.1913C26.7221 17.4736 26.7221 17.9315 26.4398 18.2139L24.0537 20.5999L26.4398 22.986C26.7221 23.2683 26.7221 23.7262 26.4398 24.0085C26.1573 24.2909 25.6995 24.2909 25.4172 24.0085L23.0312 21.6225L20.6451 24.0085C20.3627 24.2909 19.9049 24.2909 19.6226 24.0085C19.3401 23.7261 19.3401 23.2683 19.6226 22.9859L22.0086 20.6L19.6225 18.2139Z" fill="black"/>
<path fill-rule="evenodd" clip-rule="evenodd" d="M16.6405 13.2521L9.29272 20.5999L16.6405 27.9477C17.1829 28.4901 17.9186 28.7948 18.6857 28.7948H28.5748C30.1722 28.7948 31.4671 27.4998 31.4671 25.9025V15.2973C31.4671 13.7 30.1722 12.405 28.5748 12.405H18.6857C17.9186 12.405 17.1829 12.7098 16.6405 13.2521ZM28.5748 27.5415H18.6857C18.2509 27.5415 17.8341 27.3687 17.5267 27.0614L11.0652 20.5999L17.5267 14.1384C17.8341 13.8311 18.2509 13.6584 18.6857 13.6584H28.5748C29.4799 13.6584 30.2137 14.3921 30.2137 15.2973V25.9025C30.2137 26.8077 29.4799 27.5415 28.5748 27.5415Z" fill="black"/>
<defs>
<filter id="filter0_d_42_4581" x="0.615845" y="0.835815" width="40.4923" height="41.4564" filterUnits="userSpaceOnUse" color-interpolation-filters="sRGB">
<feFlood flood-opacity="0" result="BackgroundImageFix"/>
<feColorMatrix in="SourceAlpha" type="matrix" values="0 0 0 0 0 0 0 0 0 0 0 0 0 0 0 0 0 0 127 0" result="hardAlpha"/>
<feOffset dy="0.964103"/>
<feColorMatrix type="matrix" values="0 0 0 0 0 0 0 0 0 0 0 0 0 0 0 0 0 0 0.3 0"/>
<feBlend mode="normal" in2="BackgroundImageFix" result="effect1_dropShadow_42_4581"/>
<feBlend mode="normal" in="SourceGraphic" in2="effect1_dropShadow_42_4581" result="shape"/>
</filter>
</defs>
</svg>
