<svg width="23" height="23" viewBox="0 0 23 23" fill="none" xmlns="http://www.w3.org/2000/svg">
<path d="M11.186 14.0619C10.7063 14.0619 10.2374 13.9196 9.83852 13.6531C9.43966 13.3866 9.12879 13.0078 8.94522 12.5646C8.76164 12.1214 8.71361 11.6337 8.80719 11.1632C8.90078 10.6928 9.13178 10.2606 9.47098 9.92138C9.81018 9.58218 10.2424 9.35118 10.7128 9.25759C11.1833 9.16401 11.671 9.21204 12.1142 9.39561C12.5574 9.57919 12.9362 9.89006 13.2027 10.2889C13.4692 10.6878 13.6114 11.1567 13.6114 11.6364C13.6092 12.279 13.3529 12.8946 12.8985 13.3489C12.4442 13.8033 11.8286 14.0596 11.186 14.0619ZM13.6115 4.70662C13.6115 4.22692 13.4692 3.75798 13.2027 3.35912C12.9362 2.96026 12.5574 2.64939 12.1142 2.46581C11.671 2.28224 11.1833 2.23421 10.7128 2.32779C10.2424 2.42138 9.81018 2.65238 9.47098 2.99158C9.13178 3.33078 8.90078 3.76295 8.80719 4.23344C8.71361 4.70393 8.76164 5.1916 8.94522 5.63479C9.12879 6.07798 9.43966 6.45678 9.83852 6.72329C10.2374 6.9898 10.7063 7.13205 11.186 7.13205C11.8286 7.12977 12.4442 6.8735 12.8985 6.41914C13.3529 5.96477 13.6092 5.34918 13.6115 4.70662ZM13.6114 18.5662C13.6114 18.0865 13.4692 17.6176 13.2027 17.2187C12.9362 16.8199 12.5574 16.509 12.1142 16.3254C11.671 16.1418 11.1833 16.0938 10.7128 16.1874C10.2424 16.281 9.81018 16.512 9.47098 16.8512C9.13178 17.1904 8.90078 17.6226 8.80719 18.093C8.71361 18.5635 8.76164 19.0512 8.94522 19.4944C9.12879 19.9376 9.43966 20.3164 9.83852 20.5829C10.2374 20.8494 10.7063 20.9916 11.186 20.9916C11.8286 20.9894 12.4442 20.7331 12.8985 20.2787C13.3529 19.8244 13.6092 19.2088 13.6114 18.5662Z" fill="white"/>
</svg>
