<svg width="24" height="24" viewBox="0 0 24 24" fill="none" xmlns="http://www.w3.org/2000/svg">
<path fill-rule="evenodd" clip-rule="evenodd" d="M15.7207 10.2215L11.8227 14.1205C11.6817 14.2615 11.4917 14.3405 11.2927 14.3405C11.0937 14.3405 10.9027 14.2615 10.7617 14.1205L8.86969 12.2265C8.57669 11.9335 8.57669 11.4575 8.87069 11.1655C9.16269 10.8725 9.63769 10.8725 9.93069 11.1655L11.2927 12.5295L14.6597 9.16051C14.9527 8.86751 15.4277 8.86751 15.7207 9.16051C16.0137 9.45351 16.0137 9.92851 15.7207 10.2215ZM19.6877 4.82551C19.0817 4.21851 15.7537 2.07251 11.9997 2.07251C8.24369 2.07251 4.91769 4.21851 4.31169 4.82551C3.73069 5.40751 3.73969 5.86051 3.78369 8.37451C3.80269 9.39451 3.82769 10.7825 3.82769 12.7005C3.82769 19.2205 9.14969 21.9275 11.9997 21.9275C14.8487 21.9275 20.1717 19.2205 20.1717 12.7005C20.1717 10.7815 20.1967 9.39251 20.2157 8.37351C20.2607 5.85951 20.2687 5.40751 19.6877 4.82551Z" fill="#219653"/>
</svg>
