<svg width="23" height="23" viewBox="0 0 23 23" fill="none" xmlns="http://www.w3.org/2000/svg">
<path fill-rule="evenodd" clip-rule="evenodd" d="M8.41919 2.06282H14.1201C16.6241 2.06282 18.6476 3.05147 18.6753 5.56468V19.5906C18.6753 19.7477 18.6383 19.9047 18.5644 20.0433C18.4443 20.2651 18.241 20.4314 17.9916 20.5053C17.7513 20.5792 17.4834 20.5423 17.2616 20.4129L11.2743 17.4193L5.27768 20.4129C5.14001 20.4859 4.98201 20.533 4.82494 20.533C4.30751 20.533 3.89172 20.108 3.89172 19.5906V5.56468C3.89172 3.05147 5.92446 2.06282 8.41919 2.06282ZM7.7908 9.10349H14.7483C15.1456 9.10349 15.469 8.77918 15.469 8.37355C15.469 7.967 15.1456 7.64361 14.7483 7.64361H7.7908C7.39349 7.64361 7.0701 7.967 7.0701 8.37355C7.0701 8.77918 7.39349 9.10349 7.7908 9.10349Z" fill="#FE9370"/>
</svg>
