<svg width="23" height="23" viewBox="0 0 23 23" fill="none" xmlns="http://www.w3.org/2000/svg">
<path d="M8.77974 19.2605V16.4268C8.77973 15.7087 9.36364 15.1253 10.0869 15.1208H12.7426C13.469 15.1208 14.058 15.7055 14.058 16.4268V19.2523C14.058 19.8751 14.5641 20.3812 15.1914 20.3858H17.0032C17.8494 20.3879 18.6617 20.0557 19.2608 19.4625C19.8599 18.8692 20.1966 18.0636 20.1966 17.2235V9.17416C20.1966 8.49554 19.8936 7.85183 19.3693 7.41644L13.2141 2.52933C12.1382 1.67452 10.6015 1.70214 9.55741 2.59504L3.53461 7.41644C2.98552 7.83899 2.65733 8.48461 2.64111 9.17416V17.2153C2.64111 18.9663 4.07085 20.3858 5.83453 20.3858H7.60497C7.907 20.388 8.19741 20.2704 8.41176 20.0591C8.62611 19.8478 8.74666 19.5604 8.74665 19.2605H8.77974Z" fill="#FE9370"/>
</svg>
