<svg width="18" height="18" viewBox="0 0 18 18" fill="none" xmlns="http://www.w3.org/2000/svg">
<path d="M13.2823 2.09299C12.8331 1.94224 12.3606 1.87549 11.8873 1.87549C10.8448 1.86799 9.83308 2.21299 8.99983 2.84974C8.93233 2.79799 8.84983 2.75224 8.77483 2.70799C8.69983 2.66224 8.56483 2.55049 8.45233 2.49049L8.16733 2.36299C8.01733 2.28049 7.86058 2.22049 7.69483 2.16724C7.67983 2.15299 7.65733 2.13724 7.62733 2.12299H7.58308C7.13983 1.97224 6.68233 1.88974 6.20983 1.87549H6.12733C5.91733 1.87549 5.70808 1.88974 5.49733 1.92049H5.40733C5.18233 1.94974 4.95808 2.00224 4.74058 2.07724C1.94233 2.99299 0.944829 6.03049 1.79233 8.68549C2.27233 10.0422 3.04558 11.273 4.05058 12.2847C5.51233 13.6947 7.11058 14.9397 8.82733 16.0047L9.02233 16.1255L9.20983 16.0122C10.9206 14.9397 12.5098 13.6947 13.9581 12.2922C14.9698 11.2805 15.7423 10.0422 16.2148 8.68549C17.0481 6.03049 16.0506 2.99299 13.2823 2.09299Z" fill="#EB5757"/>
</svg>
