<svg width="18" height="18" viewBox="0 0 18 18" fill="none" xmlns="http://www.w3.org/2000/svg">
<path d="M13.4389 10.7401C13.2447 10.9284 13.1554 11.2006 13.1997 11.4676L13.8664 15.1576C13.9227 15.4704 13.7907 15.7869 13.5289 15.9676C13.2724 16.1551 12.9312 16.1776 12.6514 16.0276L9.32966 14.2951C9.21416 14.2336 9.08591 14.2006 8.95466 14.1969H8.75141C8.68091 14.2074 8.61191 14.2299 8.54891 14.2644L5.22641 16.0051C5.06216 16.0876 4.87616 16.1169 4.69391 16.0876C4.24991 16.0036 3.95366 15.5806 4.02641 15.1344L4.69391 11.4444C4.73816 11.1751 4.64891 10.9014 4.45466 10.7101L1.74641 8.08512C1.51991 7.86537 1.44116 7.53537 1.54466 7.23762C1.64516 6.94062 1.90166 6.72387 2.21141 6.67512L5.93891 6.13437C6.22241 6.10512 6.47141 5.93262 6.59891 5.67762L8.24141 2.31012C8.28041 2.23512 8.33066 2.16612 8.39141 2.10762L8.45891 2.05512C8.49416 2.01612 8.53466 1.98387 8.57966 1.95762L8.66141 1.92762L8.78891 1.87512H9.10466C9.38666 1.90437 9.63491 2.07312 9.76466 2.32512L11.4289 5.67762C11.5489 5.92287 11.7822 6.09312 12.0514 6.13437L15.7789 6.67512C16.0939 6.72012 16.3572 6.93762 16.4614 7.23762C16.5597 7.53837 16.4749 7.86837 16.2439 8.08512L13.4389 10.7401Z" fill="#F2C94C"/>
</svg>
