<svg width="18" height="18" viewBox="0 0 18 18" fill="none" xmlns="http://www.w3.org/2000/svg">
<path d="M13.1814 10.3878C13.0019 10.5617 12.9194 10.8133 12.9603 11.06L13.5764 14.4695C13.6283 14.7584 13.5064 15.0509 13.2645 15.2179C13.0275 15.3911 12.7122 15.4119 12.4537 15.2733L9.38453 13.6725C9.27781 13.6157 9.15931 13.5852 9.03804 13.5817H8.85024C8.7851 13.5914 8.72135 13.6122 8.66314 13.6441L5.59323 15.2525C5.44147 15.3287 5.26961 15.3558 5.10122 15.3287C4.69097 15.2511 4.41725 14.8603 4.48447 14.448L5.10122 11.0385C5.1421 10.7897 5.05964 10.5368 4.88016 10.3601L2.37781 7.93465C2.16853 7.73161 2.09576 7.4267 2.1914 7.15158C2.28425 6.87716 2.52125 6.67689 2.80745 6.63185L6.25156 6.13221C6.51351 6.10518 6.74358 5.9458 6.86139 5.71019L8.37901 2.59871C8.41505 2.52941 8.46148 2.46565 8.51761 2.4116L8.57998 2.36309C8.61255 2.32706 8.64997 2.29726 8.69155 2.27301L8.76708 2.24529L8.88489 2.19678H9.17663C9.43719 2.2238 9.66657 2.37972 9.78646 2.61257L11.3242 5.71019C11.4351 5.93679 11.6506 6.0941 11.8994 6.13221L15.3435 6.63185C15.6345 6.67343 15.8777 6.87439 15.9741 7.15158C16.0649 7.42947 15.9865 7.73438 15.7731 7.93465L13.1814 10.3878Z" fill="#F2C94C"/>
</svg>
