<svg width="29" height="29" viewBox="0 0 29 29" fill="none" xmlns="http://www.w3.org/2000/svg">
<path fill-rule="evenodd" clip-rule="evenodd" d="M10.309 3.54856C12.949 2.01458 16.1941 2.04139 18.8093 3.61879C21.3989 5.22831 22.9728 8.10084 22.9581 11.1909C22.8978 14.2606 21.2102 17.1462 19.1007 19.3769C17.8831 20.6702 16.521 21.8138 15.0423 22.7843C14.89 22.8724 14.7232 22.9314 14.5501 22.9583C14.3835 22.9512 14.2212 22.902 14.078 22.815C11.8204 21.3567 9.83982 19.4953 8.23153 17.3202C6.88575 15.5045 6.12118 13.311 6.04163 11.0374C6.03988 7.94142 7.66897 5.08253 10.309 3.54856ZM11.8346 12.3187C12.2787 13.4135 13.3269 14.1276 14.4898 14.1276C15.2517 14.1331 15.984 13.8279 16.5237 13.2801C17.0634 12.7323 17.3655 11.9874 17.3628 11.2113C17.3669 10.0268 16.6695 8.9565 15.5962 8.50031C14.523 8.04412 13.2856 8.29197 12.4619 9.12813C11.6381 9.96429 11.3905 11.2238 11.8346 12.3187Z" fill="#EB5757"/>
<ellipse opacity="0.4" cx="14.4999" cy="25.375" rx="6.04167" ry="1.20833" fill="#EB5757"/>
</svg>
