<svg width="38" height="38" viewBox="0 0 38 38" fill="none" xmlns="http://www.w3.org/2000/svg">
<rect x="0.528809" y="0.623032" width="36.9589" height="36.9589" rx="18.4795" fill="#B7FFD5"/>
<path fill-rule="evenodd" clip-rule="evenodd" d="M15.5364 10.0305C17.7234 8.75974 20.4115 8.78195 22.578 10.0886C24.7231 11.422 26.0269 13.8015 26.0148 16.3613C25.9648 18.9042 24.5668 21.2946 22.8193 23.1425C21.8107 24.2139 20.6824 25.1612 19.4574 25.9652C19.3313 26.0381 19.1931 26.087 19.0497 26.1093C18.9116 26.1034 18.7772 26.0626 18.6586 25.9906C16.7884 24.7826 15.1477 23.2406 13.8154 21.4387C12.7006 19.9347 12.0672 18.1176 12.0013 16.2341C11.9999 13.6695 13.3494 11.3012 15.5364 10.0305ZM16.8002 17.2955C17.1681 18.2025 18.0365 18.794 18.9998 18.794C19.6309 18.7986 20.2376 18.5458 20.6847 18.092C21.1317 17.6382 21.382 17.0211 21.3798 16.3782C21.3831 15.3969 20.8054 14.5103 19.9164 14.1324C19.0273 13.7545 18.0023 13.9598 17.3199 14.6525C16.6375 15.3452 16.4324 16.3886 16.8002 17.2955Z" fill="#27AE60"/>
</svg>
