<svg width="23" height="23" viewBox="0 0 23 23" fill="none" xmlns="http://www.w3.org/2000/svg">
<path fill-rule="evenodd" clip-rule="evenodd" d="M20.8733 7.79678H16.9606C15.1397 7.79998 13.6646 9.23819 13.6614 11.0135C13.6589 12.7929 15.1356 14.2375 16.9606 14.2399H20.8766V14.5226C20.8766 17.6264 18.9949 19.4618 15.8107 19.4618H7.46375C4.27872 19.4618 2.39709 17.6264 2.39709 14.5226V7.76235C2.39709 4.6585 4.27872 2.83031 7.46375 2.83031H15.8074C18.9917 2.83031 20.8733 4.6585 20.8733 7.76235V7.79678ZM6.77634 7.78957H11.9876H11.9908H11.9974C12.3875 7.78797 12.7029 7.47807 12.7013 7.09689C12.6996 6.71652 12.381 6.40902 11.9908 6.41062H6.77634C6.38869 6.41222 6.07412 6.71892 6.07248 7.09769C6.07084 7.47807 6.38622 7.78797 6.77634 7.78957Z" fill="#FE9370"/>
<path d="M15.3673 11.4202C15.5606 12.299 16.3311 12.9174 17.2108 12.9013H20.2137C20.5797 12.9013 20.8766 12.5981 20.8766 12.2234V9.88435C20.8758 9.51045 20.5797 9.20651 20.2137 9.2057H17.1401C16.1394 9.20892 15.3312 10.0395 15.3328 11.0631C15.3328 11.183 15.3445 11.3028 15.3673 11.4202Z" fill="#FE9370"/>
<circle cx="17.1807" cy="11.0537" r="0.923973" fill="#FE9370"/>
</svg>
