<svg width="38" height="38" viewBox="0 0 38 38" fill="none" xmlns="http://www.w3.org/2000/svg">
<rect x="0.840088" y="0.85173" width="36.9589" height="36.9589" rx="18.4795" fill="#B7FFD5"/>
<path fill-rule="evenodd" clip-rule="evenodd" d="M15.8478 10.2592C18.0348 8.98844 20.7229 9.01065 22.8894 10.3173C25.0345 11.6507 26.3383 14.0302 26.3262 16.59C26.2762 19.1329 24.8782 21.5233 23.1307 23.3712C22.1221 24.4426 20.9938 25.3899 19.7688 26.1939C19.6427 26.2668 19.5045 26.3157 19.3611 26.338C19.223 26.3321 19.0886 26.2913 18.97 26.2193C17.0998 25.0113 15.4591 23.4692 14.1268 21.6674C13.012 20.1634 12.3786 18.3462 12.3127 16.4628C12.3113 13.8982 13.6608 11.5299 15.8478 10.2592ZM17.1116 17.5242C17.4794 18.4312 18.3478 19.0227 19.3111 19.0227C19.9422 19.0273 20.5489 18.7745 20.996 18.3207C21.443 17.8669 21.6933 17.2498 21.6911 16.6069C21.6944 15.6256 21.1167 14.7391 20.2277 14.3611C19.3386 13.9832 18.3136 14.1886 17.6312 14.8812C16.9488 15.5739 16.7437 16.6173 17.1116 17.5242Z" fill="#27AE60"/>
</svg>
