<svg width="38" height="38" viewBox="0 0 38 38" fill="none" xmlns="http://www.w3.org/2000/svg">
<rect x="0.840088" y="0.817261" width="36.9589" height="36.9589" rx="18.4795" fill="#B7FFD5"/>
<path fill-rule="evenodd" clip-rule="evenodd" d="M15.8478 10.2247C18.0348 8.95397 20.7229 8.97618 22.8894 10.2829C25.0345 11.6162 26.3383 13.9958 26.3262 16.5555C26.2762 19.0985 24.8782 21.4889 23.1307 23.3367C22.1221 24.4081 20.9938 25.3554 19.7688 26.1594C19.6427 26.2324 19.5045 26.2812 19.3611 26.3035C19.223 26.2977 19.0886 26.2569 18.97 26.1849C17.0998 24.9768 15.4591 23.4348 14.1268 21.633C13.012 20.1289 12.3786 18.3118 12.3127 16.4284C12.3113 13.8637 13.6608 11.4954 15.8478 10.2247ZM17.1116 17.4898C17.4794 18.3967 18.3478 18.9883 19.3111 18.9883C19.9422 18.9928 20.5489 18.74 20.996 18.2862C21.443 17.8324 21.6933 17.2153 21.6911 16.5725C21.6944 15.5912 21.1167 14.7046 20.2277 14.3267C19.3386 13.9488 18.3136 14.1541 17.6312 14.8468C16.9488 15.5394 16.7437 16.5828 17.1116 17.4898Z" fill="#27AE60"/>
</svg>
