<svg width="23" height="23" viewBox="0 0 23 23" fill="none" xmlns="http://www.w3.org/2000/svg">
<path d="M19.0083 11.7716C19.0083 12.1224 18.7476 12.4124 18.4094 12.4583L18.3153 12.4646L4.45572 12.4646C4.073 12.4646 3.76274 12.1543 3.76274 11.7716C3.76274 11.4208 4.02344 11.1308 4.36169 11.0849L4.45572 11.0786L18.3153 11.0786C18.698 11.0786 19.0083 11.3889 19.0083 11.7716Z" fill="#2C2B46"/>
<path d="M10.5345 16.8469C10.8057 17.117 10.8067 17.5557 10.5366 17.8269C10.2911 18.0735 9.90618 18.0967 9.63446 17.896L9.55659 17.8291L3.96655 12.263C3.71926 12.0168 3.69677 11.6305 3.89908 11.3588L3.96651 11.2809L9.55655 5.71401C9.82774 5.44394 10.2665 5.44485 10.5366 5.71604C10.7821 5.96257 10.8037 6.3476 10.6018 6.61847L10.5345 6.69606L5.43788 11.7723L10.5345 16.8469Z" fill="#2C2B46"/>
</svg>
