<svg width="19" height="19" viewBox="0 0 19 19" fill="none" xmlns="http://www.w3.org/2000/svg">
<path d="M8.39682 13.0706H3.54541" stroke="white" stroke-width="1.38596" stroke-linecap="round" stroke-linejoin="round"/>
<path d="M10.5608 5.60758H15.4122" stroke="white" stroke-width="1.38596" stroke-linecap="round" stroke-linejoin="round"/>
<path fill-rule="evenodd" clip-rule="evenodd" d="M7.16196 5.56593C7.16196 4.56831 6.3472 3.75937 5.3424 3.75937C4.33759 3.75937 3.52283 4.56831 3.52283 5.56593C3.52283 6.56356 4.33759 7.3725 5.3424 7.3725C6.3472 7.3725 7.16196 6.56356 7.16196 5.56593Z" stroke="white" stroke-width="1.38596" stroke-linecap="round" stroke-linejoin="round"/>
<path fill-rule="evenodd" clip-rule="evenodd" d="M15.8424 13.0405C15.8424 12.0429 15.0283 11.2339 14.0234 11.2339C13.018 11.2339 12.2032 12.0429 12.2032 13.0405C12.2032 14.0381 13.018 14.847 14.0234 14.847C15.0283 14.847 15.8424 14.0381 15.8424 13.0405Z" stroke="white" stroke-width="1.38596" stroke-linecap="round" stroke-linejoin="round"/>
</svg>
