<svg width="23" height="23" viewBox="0 0 23 23" fill="none" xmlns="http://www.w3.org/2000/svg">
<path d="M15.6247 1.90633H7.8809C5.07202 1.90633 3.43659 3.551 3.43659 6.36912V15.9138C3.43659 18.7781 5.07202 20.3858 7.8809 20.3858H15.6247C18.4789 20.3858 20.0681 18.7781 20.0681 15.9138V6.36912C20.0681 3.551 18.4789 1.90633 15.6247 1.90633Z" fill="#FE9370"/>
<path fill-rule="evenodd" clip-rule="evenodd" d="M8.13037 6.20279V6.21203C7.73214 6.21203 7.40967 6.53542 7.40967 6.93273C7.40967 7.33004 7.73214 7.65343 8.13037 7.65343H10.8921C11.2904 7.65343 11.6138 7.33004 11.6138 6.92256C11.6138 6.52618 11.2904 6.20279 10.8921 6.20279H8.13037ZM15.3743 11.8298H8.13037C7.73214 11.8298 7.40967 11.5064 7.40967 11.1091C7.40967 10.7118 7.73214 10.3875 8.13037 10.3875H15.3743C15.7716 10.3875 16.095 10.7118 16.095 11.1091C16.095 11.5064 15.7716 11.8298 15.3743 11.8298ZM15.3743 16.0523H8.13037C7.85318 16.0893 7.58523 15.9507 7.43739 15.7197C7.28956 15.4795 7.28956 15.1746 7.43739 14.9436C7.58523 14.7033 7.85318 14.574 8.13037 14.6017H15.3743C15.743 14.6387 16.0211 14.9528 16.0211 15.3316C16.0211 15.7003 15.743 16.0154 15.3743 16.0523Z" fill="white"/>
</svg>
