<svg width="28" height="28" viewBox="0 0 28 28" fill="none" xmlns="http://www.w3.org/2000/svg">
<path fill-rule="evenodd" clip-rule="evenodd" d="M10.4133 19.1217H16.6971C17.1707 19.1217 17.5635 18.725 17.5635 18.2467C17.5635 17.7683 17.1707 17.3833 16.6971 17.3833H10.4133C9.93969 17.3833 9.54695 17.7683 9.54695 18.2467C9.54695 18.725 9.93969 19.1217 10.4133 19.1217ZM14.3176 11.55H10.4133C9.93969 11.55 9.54695 11.9467 9.54695 12.425C9.54695 12.9033 9.93969 13.2883 10.4133 13.2883H14.3176C14.7912 13.2883 15.1839 12.9033 15.1839 12.425C15.1839 11.9467 14.7912 11.55 14.3176 11.55ZM22.561 10.5299C22.8325 10.5267 23.1282 10.5233 23.3968 10.5233C23.6856 10.5233 23.9166 10.7567 23.9166 11.0483V20.4283C23.9166 23.3217 21.5948 25.6667 18.7301 25.6667H9.5354C6.5321 25.6667 4.08325 23.205 4.08325 20.1717V7.595C4.08325 4.70166 6.41658 2.33333 9.29282 2.33333H15.4611C15.7615 2.33333 15.9925 2.57833 15.9925 2.86999V6.62666C15.9925 8.76166 17.7367 10.5117 19.8506 10.5233C20.3443 10.5233 20.7796 10.527 21.1606 10.5302C21.4569 10.5328 21.7204 10.535 21.9529 10.535C22.1173 10.535 22.3305 10.5325 22.561 10.5299ZM22.8795 8.82699C21.93 8.83049 20.8107 8.82699 20.0056 8.81883C18.728 8.81883 17.6757 7.75599 17.6757 6.46566V3.39033C17.6757 2.88749 18.2799 2.63783 18.6252 3.00066C19.2511 3.65793 20.1114 4.56168 20.9676 5.46101C21.8195 6.35597 22.6673 7.24655 23.2757 7.88549C23.613 8.23899 23.3658 8.82583 22.8795 8.82699Z" fill="#4F4F4F"/>
</svg>
