<svg width="18" height="18" viewBox="0 0 18 18" fill="none" xmlns="http://www.w3.org/2000/svg">
<path d="M13.0482 10.3878C12.8687 10.5617 12.7862 10.8133 12.8271 11.06L13.4432 14.4695C13.4952 14.7584 13.3732 15.0509 13.1313 15.2179C12.8943 15.3911 12.579 15.4119 12.3206 15.2733L9.25135 13.6725C9.14463 13.6157 9.02613 13.5852 8.90486 13.5817H8.71706C8.65192 13.5914 8.58817 13.6122 8.52996 13.6441L5.46006 15.2525C5.30829 15.3287 5.13643 15.3558 4.96804 15.3287C4.5578 15.2511 4.28407 14.8603 4.35129 14.448L4.96804 11.0385C5.00893 10.7897 4.92646 10.5368 4.74698 10.3601L2.24463 7.93465C2.03535 7.73161 1.96259 7.4267 2.05822 7.15158C2.15108 6.87716 2.38807 6.67689 2.67428 6.63185L6.11839 6.13221C6.38033 6.10518 6.6104 5.9458 6.72821 5.71019L8.24583 2.59871C8.28187 2.52941 8.3283 2.46565 8.38443 2.4116L8.4468 2.36309C8.47937 2.32706 8.51679 2.29726 8.55837 2.27301L8.6339 2.24529L8.75171 2.19678H9.04345C9.30401 2.2238 9.53339 2.37972 9.65328 2.61257L11.191 5.71019C11.3019 5.93679 11.5174 6.0941 11.7662 6.13221L15.2103 6.63185C15.5013 6.67343 15.7446 6.87439 15.8409 7.15158C15.9317 7.42947 15.8534 7.73438 15.6399 7.93465L13.0482 10.3878Z" fill="#F2C94C"/>
</svg>
