<svg width="38" height="38" viewBox="0 0 38 38" fill="none" xmlns="http://www.w3.org/2000/svg">
<rect x="0.840088" y="0.495407" width="36.9589" height="36.9589" rx="18.4795" fill="#B7FFD5"/>
<path fill-rule="evenodd" clip-rule="evenodd" d="M15.8478 9.90285C18.0348 8.63212 20.7229 8.65433 22.8894 9.96102C25.0345 11.2943 26.3383 13.6739 26.3262 16.2337C26.2762 18.7766 24.8782 21.167 23.1307 23.0149C22.1221 24.0862 20.9938 25.0336 19.7688 25.8376C19.6427 25.9105 19.5045 25.9594 19.3611 25.9817C19.223 25.9758 19.0886 25.935 18.97 25.863C17.0998 24.655 15.4591 23.1129 14.1268 21.3111C13.012 19.807 12.3786 17.9899 12.3127 16.1065C12.3113 13.5419 13.6608 11.1736 15.8478 9.90285ZM17.1116 17.1679C17.4794 18.0748 18.3478 18.6664 19.3111 18.6664C19.9422 18.671 20.5489 18.4182 20.996 17.9644C21.443 17.5106 21.6933 16.8935 21.6911 16.2506C21.6944 15.2693 21.1167 14.3827 20.2277 14.0048C19.3386 13.6269 18.3136 13.8322 17.6312 14.5249C16.9488 15.2176 16.7437 16.261 17.1116 17.1679Z" fill="#27AE60"/>
</svg>
