<svg width="19" height="20" viewBox="0 0 19 20" fill="none" xmlns="http://www.w3.org/2000/svg">
<path fill-rule="evenodd" clip-rule="evenodd" d="M13.867 7.08962H17.1249C17.1249 4.47385 15.5576 2.94576 12.902 2.94576H5.94824C3.29267 2.94576 1.72534 4.47385 1.72534 7.05626V12.6949C1.72534 15.2773 3.29267 16.8054 5.94824 16.8054H12.902C15.5576 16.8054 17.1249 15.2773 17.1249 12.6949V12.4546H13.867C12.355 12.4546 11.1293 11.2596 11.1293 9.78547C11.1293 8.31134 12.355 7.11631 13.867 7.11631V7.08962ZM13.8671 8.23735H16.55C16.8675 8.23735 17.1249 8.48831 17.1249 8.79787V10.7464C17.1212 11.0544 16.866 11.3033 16.55 11.3069H13.9287C13.1632 11.3169 12.4939 10.806 12.3203 10.0791C12.2333 9.62784 12.3554 9.16221 12.6537 8.80698C12.9521 8.45176 13.3962 8.24325 13.8671 8.23735ZM13.9834 10.2859H14.2366C14.5617 10.2859 14.8252 10.029 14.8252 9.71207C14.8252 9.39513 14.5617 9.1382 14.2366 9.1382H13.9834C13.8279 9.13642 13.6782 9.19539 13.5676 9.30195C13.457 9.40851 13.3948 9.5538 13.3948 9.7054C13.3948 10.0234 13.6572 10.2823 13.9834 10.2859ZM5.37337 7.08962H9.71946C10.0445 7.08962 10.3081 6.83269 10.3081 6.51575C10.3081 6.19881 10.0445 5.94188 9.71946 5.94188H5.37337C5.05095 5.94186 4.78851 6.19475 4.78476 6.50908C4.78474 6.82712 5.04719 7.08597 5.37337 7.08962Z" fill="white"/>
</svg>
