<svg width="19" height="19" viewBox="0 0 19 19" fill="none" xmlns="http://www.w3.org/2000/svg">
<path d="M7.98813 13.0269H3.13672" stroke="white" stroke-width="1.38596" stroke-linecap="round" stroke-linejoin="round"/>
<path d="M10.1521 5.56388H15.0035" stroke="white" stroke-width="1.38596" stroke-linecap="round" stroke-linejoin="round"/>
<path fill-rule="evenodd" clip-rule="evenodd" d="M6.75327 5.5222C6.75327 4.52457 5.93851 3.71564 4.9337 3.71564C3.9289 3.71564 3.11414 4.52457 3.11414 5.5222C3.11414 6.51983 3.9289 7.32876 4.9337 7.32876C5.93851 7.32876 6.75327 6.51983 6.75327 5.5222Z" stroke="white" stroke-width="1.38596" stroke-linecap="round" stroke-linejoin="round"/>
<path fill-rule="evenodd" clip-rule="evenodd" d="M15.4337 12.9967C15.4337 11.9991 14.6196 11.1902 13.6148 11.1902C12.6093 11.1902 11.7946 11.9991 11.7946 12.9967C11.7946 13.9944 12.6093 14.8033 13.6148 14.8033C14.6196 14.8033 15.4337 13.9944 15.4337 12.9967Z" stroke="white" stroke-width="1.38596" stroke-linecap="round" stroke-linejoin="round"/>
</svg>
