<svg width="28" height="27" viewBox="0 0 28 27" fill="none" xmlns="http://www.w3.org/2000/svg">
<path fill-rule="evenodd" clip-rule="evenodd" d="M10.3082 3.38911C12.7475 1.97175 15.7458 1.99653 18.1623 3.454C20.5549 4.94116 22.0091 7.59529 21.9956 10.4504C21.9399 13.2868 20.3806 15.953 18.4314 18.0141C17.3064 19.209 16.0479 20.2657 14.6816 21.1625C14.5409 21.2438 14.3868 21.2983 14.2268 21.3232C14.0729 21.3166 13.923 21.2711 13.7906 21.1908C11.7047 19.8434 9.87467 18.1234 8.38864 16.1137C7.14519 14.4361 6.43874 12.4093 6.36524 10.3086C6.36362 7.448 7.86886 4.80646 10.3082 3.38911ZM11.7177 11.4924C12.128 12.504 13.0966 13.1639 14.1711 13.1639C14.875 13.1689 15.5517 12.887 16.0503 12.3808C16.549 11.8747 16.8281 11.1864 16.8257 10.4693C16.8294 9.37478 16.185 8.3859 15.1934 7.96439C14.2018 7.54288 13.0585 7.77188 12.2973 8.54448C11.5362 9.31707 11.3074 10.4809 11.7177 11.4924Z" fill="#EB5757"/>
<ellipse opacity="0.4" cx="14.1805" cy="23.5561" rx="5.58234" ry="1.11647" fill="#EB5757"/>
</svg>
