<svg width="16" height="16" viewBox="0 0 16 16" fill="none" xmlns="http://www.w3.org/2000/svg">
<path d="M11.8379 9.60513C11.6668 9.77095 11.5882 10.0108 11.6272 10.2459L12.2145 13.4963C12.264 13.7718 12.1477 14.0506 11.9172 14.2098C11.6912 14.3749 11.3907 14.3948 11.1442 14.2626L8.21827 12.7366C8.11653 12.6824 8.00356 12.6533 7.88795 12.65H7.70892C7.64682 12.6593 7.58604 12.6791 7.53055 12.7095L4.60392 14.2428C4.45924 14.3155 4.2954 14.3412 4.13487 14.3155C3.74377 14.2415 3.48282 13.8689 3.5469 13.4758L4.13487 10.2255C4.17384 9.9883 4.09523 9.74717 3.92412 9.57871L1.53856 7.26647C1.33904 7.0729 1.26968 6.78222 1.36085 6.51995C1.44937 6.25834 1.67531 6.06741 1.94815 6.02447L5.23153 5.54815C5.48125 5.52239 5.70058 5.37044 5.81289 5.14582L7.25968 2.17956C7.29404 2.11349 7.3383 2.05271 7.39181 2.00118L7.45127 1.95494C7.48232 1.92059 7.51799 1.89218 7.55763 1.86906L7.62964 1.84263L7.74195 1.79639H8.02008C8.26848 1.82215 8.48715 1.9708 8.60144 2.19277L10.0674 5.14582C10.1731 5.36185 10.3786 5.51182 10.6157 5.54815L13.8991 6.02447C14.1766 6.06411 14.4085 6.2557 14.5003 6.51995C14.5868 6.78487 14.5122 7.07555 14.3087 7.26647L11.8379 9.60513Z" fill="#F2C94C"/>
</svg>
