<svg width="26" height="26" viewBox="0 0 26 26" fill="none" xmlns="http://www.w3.org/2000/svg">
<path fill-rule="evenodd" clip-rule="evenodd" d="M13.0973 0.80397C19.9863 0.80397 25.5709 6.38861 25.5709 13.2776C25.5709 20.1666 19.9863 25.7512 13.0973 25.7512C6.2083 25.7512 0.623657 20.1666 0.623657 13.2776C0.623657 6.38861 6.2083 0.80397 13.0973 0.80397ZM13.0973 2.25715C19.1836 2.25784 24.117 7.19217 24.1165 13.2784C24.1161 19.3647 19.1819 24.2983 13.0956 24.2981C7.00936 24.2978 2.07559 19.3639 2.07559 13.2776C2.07567 10.3546 3.23695 7.55137 5.30394 5.48462C7.37093 3.41786 10.1743 2.2569 13.0973 2.25715ZM9.15126 7.86717C8.76571 7.86258 8.39443 8.01278 8.12053 8.28416C7.84663 8.55554 7.693 8.92542 7.69403 9.31099C7.69403 10.1158 8.34645 10.7682 9.15126 10.7682C9.95607 10.7682 10.6085 10.1158 10.6085 9.31099C10.6095 8.92542 10.4559 8.55554 10.182 8.28416C9.90809 8.01278 9.53681 7.86258 9.15126 7.86717ZM21.41 15.4262C20.7458 19.0155 17.2816 22.0123 13.0957 22.0123C8.94326 22.0123 5.49929 19.0591 4.79609 15.5104C4.65358 14.6248 5.37892 14.4158 6.06216 14.5811C8.34782 15.242 10.7182 15.5635 13.0973 15.5353C15.471 15.5629 17.836 15.2424 20.1168 14.5842C20.7811 14.4158 21.4924 14.6061 21.41 15.4262ZM19.1551 15.9251C19.0903 15.9501 19.0245 15.9688 18.958 15.9906C18.9512 15.9937 19.1707 15.922 19.1642 15.9251C17.1919 16.4681 15.1531 16.7316 13.1076 16.7079C10.6665 16.7079 8.4833 16.4366 6.98085 15.8971C5.89159 15.5728 6.10052 16.8544 6.86609 17.2473C8.82462 18.139 10.9555 18.5883 13.1073 18.5633C15.6669 18.5633 17.9477 17.9677 19.4542 17.1975C20.167 16.739 20.308 15.5104 19.1551 15.9251ZM17.0514 7.86717C16.6659 7.86258 16.2945 8.01277 16.0206 8.28414C15.7467 8.55551 15.5929 8.92539 15.5939 9.31099C15.5862 9.83675 15.8623 10.3259 16.3164 10.591C16.7704 10.8561 17.3321 10.8561 17.7862 10.591C18.2403 10.3259 18.5164 9.83675 18.5087 9.31099C18.5096 8.92545 18.356 8.55562 18.0821 8.28426C17.8082 8.0129 17.437 7.86266 17.0514 7.86717Z" fill="#50555C"/>
</svg>
