<svg width="24" height="23" viewBox="0 0 24 23" fill="none" xmlns="http://www.w3.org/2000/svg">
<path d="M19.3599 11.5918C19.3599 11.9426 19.0992 12.2326 18.7609 12.2785L18.6669 12.2848L4.80728 12.2848C4.42456 12.2848 4.1143 11.9745 4.1143 11.5918C4.1143 11.241 4.37501 10.951 4.71325 10.9052L4.80728 10.8988L18.6669 10.8988C19.0496 10.8988 19.3599 11.2091 19.3599 11.5918Z" fill="#2B2B53"/>
<path d="M10.8861 16.6671C11.1573 16.9372 11.1582 17.376 10.8882 17.6472C10.6427 17.8937 10.2577 17.9169 9.98602 17.7162L9.90815 17.6493L4.31811 12.0833C4.07083 11.837 4.04833 11.4507 4.25064 11.179L4.31807 11.1012L9.90811 5.53423C10.1793 5.26417 10.6181 5.26507 10.8881 5.53626C11.1336 5.78279 11.1552 6.16782 10.9534 6.4387L10.8861 6.51628L5.78944 11.5925L10.8861 16.6671Z" fill="#2B2B53"/>
</svg>
