<svg width="24" height="23" viewBox="0 0 24 23" fill="none" xmlns="http://www.w3.org/2000/svg">
<path fill-rule="evenodd" clip-rule="evenodd" d="M21.3223 7.79678H17.4095C15.5887 7.79998 14.1136 9.23819 14.1103 11.0135C14.1079 12.7929 15.5846 14.2375 17.4095 14.2399H21.3255V14.5226C21.3255 17.6264 19.4439 19.4618 16.2597 19.4618H7.91273C4.72769 19.4618 2.84607 17.6264 2.84607 14.5226V7.76235C2.84607 4.6585 4.72769 2.83031 7.91273 2.83031H16.2564C19.4406 2.83031 21.3223 4.6585 21.3223 7.76235V7.79678ZM7.22532 7.78957H12.4365H12.4398H12.4464C12.8365 7.78797 13.1519 7.47807 13.1502 7.09689C13.1486 6.71652 12.8299 6.40902 12.4398 6.41062H7.22532C6.83766 6.41222 6.5231 6.71892 6.52146 7.09769C6.51981 7.47807 6.8352 7.78797 7.22532 7.78957Z" fill="#FE9370"/>
<path d="M15.8163 11.4202C16.0095 12.299 16.7801 12.9174 17.6598 12.9013H20.6626C21.0287 12.9013 21.3256 12.5981 21.3256 12.2234V9.88435C21.3248 9.51045 21.0287 9.20651 20.6626 9.2057H17.5891C16.5884 9.20892 15.7802 10.0395 15.7817 11.0631C15.7817 11.183 15.7935 11.3028 15.8163 11.4202Z" fill="#FE9370"/>
<circle cx="17.6297" cy="11.0537" r="0.923973" fill="#FE9370"/>
</svg>
