<svg width="18" height="18" viewBox="0 0 18 18" fill="none" xmlns="http://www.w3.org/2000/svg">
<path d="M13.0482 10.5038C12.8687 10.6777 12.7862 10.9293 12.8271 11.176L13.4432 14.5854C13.4952 14.8744 13.3732 15.1668 13.1313 15.3338C12.8943 15.5071 12.579 15.5279 12.3206 15.3893L9.25135 13.7885C9.14463 13.7317 9.02613 13.7012 8.90486 13.6977H8.71706C8.65192 13.7074 8.58817 13.7282 8.52996 13.7601L5.46006 15.3685C5.30829 15.4447 5.13643 15.4717 4.96804 15.4447C4.5578 15.3671 4.28407 14.9763 4.35129 14.5639L4.96804 11.1545C5.00893 10.9057 4.92646 10.6528 4.74698 10.476L2.24463 8.05062C2.03535 7.84758 1.96259 7.54266 2.05822 7.26755C2.15108 6.99313 2.38807 6.79286 2.67428 6.74782L6.11839 6.24818C6.38033 6.22115 6.6104 6.06177 6.72821 5.82615L8.24583 2.71467C8.28187 2.64537 8.3283 2.58162 8.38443 2.52757L8.4468 2.47906C8.47937 2.44302 8.51679 2.41323 8.55837 2.38897L8.6339 2.36125L8.75171 2.31274H9.04345C9.30401 2.33977 9.53339 2.49569 9.65328 2.72853L11.191 5.82615C11.3019 6.05276 11.5174 6.21006 11.7662 6.24818L15.2103 6.74782C15.5013 6.78939 15.7446 6.99036 15.8409 7.26755C15.9317 7.54544 15.8534 7.85035 15.6399 8.05062L13.0482 10.5038Z" fill="#F2C94C"/>
</svg>
