<svg width="18" height="18" viewBox="0 0 18 18" fill="none" xmlns="http://www.w3.org/2000/svg">
<path opacity="0.4" d="M16.4999 9C16.4999 13.143 13.1421 16.5 8.99988 16.5C4.85763 16.5 1.49988 13.143 1.49988 9C1.49988 4.8585 4.85763 1.5 8.99988 1.5C13.1421 1.5 16.4999 4.8585 16.4999 9Z" fill="#FE9370"/>
<path d="M11.6801 11.8608C11.5819 11.8608 11.4829 11.8353 11.3921 11.7821L8.44764 10.0256C8.27814 9.92359 8.17389 9.73984 8.17389 9.54184V5.75659C8.17389 5.44609 8.42589 5.19409 8.73639 5.19409C9.04689 5.19409 9.29889 5.44609 9.29889 5.75659V9.22234L11.9689 10.8146C12.2351 10.9743 12.3229 11.3193 12.1639 11.5863C12.0581 11.7626 11.8714 11.8608 11.6801 11.8608Z" fill="#FE9370"/>
</svg>
