<svg width="17" height="17" viewBox="0 0 17 17" fill="none" xmlns="http://www.w3.org/2000/svg">
<path d="M12.5281 10.2641C12.3486 10.438 12.2661 10.6896 12.307 10.9363L12.9231 14.3457C12.975 14.6347 12.8531 14.9271 12.6112 15.0942C12.3742 15.2674 12.0589 15.2882 11.8004 15.1496L8.73124 13.5488C8.62452 13.492 8.50602 13.4615 8.38475 13.458H8.19695C8.13181 13.4677 8.06806 13.4885 8.00985 13.5204L4.93994 15.1288C4.78818 15.205 4.61632 15.2321 4.44793 15.205C4.03768 15.1274 3.76396 14.7366 3.83118 14.3243L4.44793 10.9148C4.48881 10.666 4.40635 10.4131 4.22687 10.2364L1.72452 7.81093C1.51524 7.60789 1.44247 7.30298 1.53811 7.02787C1.63096 6.75345 1.86796 6.55317 2.15416 6.50813L5.59828 6.00849C5.86022 5.98147 6.09029 5.82208 6.2081 5.58647L7.72572 2.47499C7.76176 2.40569 7.80819 2.34194 7.86432 2.28788L7.92669 2.23937C7.95926 2.20334 7.99668 2.17354 8.03826 2.14929L8.11379 2.12157L8.2316 2.07306H8.52334C8.7839 2.10009 9.01328 2.25601 9.13317 2.48885L10.6709 5.58647C10.7818 5.81307 10.9973 5.97038 11.2461 6.00849L14.6902 6.50813C14.9812 6.54971 15.2245 6.75067 15.3208 7.02787C15.4116 7.30575 15.3333 7.61066 15.1198 7.81093L12.5281 10.2641Z" fill="#F2C94C"/>
</svg>
