<svg width="19" height="19" viewBox="0 0 19 19" fill="none" xmlns="http://www.w3.org/2000/svg">
<path d="M8.17807 13.1361H3.19" stroke="white" stroke-width="1.5" stroke-linecap="round" stroke-linejoin="round"/>
<path d="M10.4029 5.46274H15.391" stroke="white" stroke-width="1.5" stroke-linecap="round" stroke-linejoin="round"/>
<path fill-rule="evenodd" clip-rule="evenodd" d="M6.90833 5.41995C6.90833 4.39422 6.07062 3.5625 5.03751 3.5625C4.0044 3.5625 3.16669 4.39422 3.16669 5.41995C3.16669 6.44568 4.0044 7.2774 5.03751 7.2774C6.07062 7.2774 6.90833 6.44568 6.90833 5.41995Z" stroke="white" stroke-width="1.5" stroke-linecap="round" stroke-linejoin="round"/>
<path fill-rule="evenodd" clip-rule="evenodd" d="M15.8334 13.105C15.8334 12.0793 14.9963 11.2476 13.9632 11.2476C12.9294 11.2476 12.0917 12.0793 12.0917 13.105C12.0917 14.1307 12.9294 14.9625 13.9632 14.9625C14.9963 14.9625 15.8334 14.1307 15.8334 13.105Z" stroke="white" stroke-width="1.5" stroke-linecap="round" stroke-linejoin="round"/>
</svg>
