<svg width="19" height="19" viewBox="0 0 19 19" fill="none" xmlns="http://www.w3.org/2000/svg">
<path fill-rule="evenodd" clip-rule="evenodd" d="M15.5235 14.842H10.475C10.1473 14.842 9.88129 15.108 9.88129 15.4358C9.88129 15.7635 10.1473 16.0295 10.475 16.0295H15.5235C15.8512 16.0295 16.1172 15.7635 16.1172 15.4358C16.1172 15.108 15.8512 14.842 15.5235 14.842Z" fill="white"/>
<path fill-rule="evenodd" clip-rule="evenodd" d="M7.41535 6.12698C7.49408 6.02227 7.64272 6.00109 7.74757 6.07963L11.8484 9.15162C11.9534 9.23031 11.9747 9.37931 11.8959 9.48429L8.08032 14.5667C7.16199 15.7937 5.77657 16.0392 4.81866 16.0392C4.22491 16.0392 3.79741 15.9442 3.74991 15.9362C3.64699 15.9125 3.55199 15.8412 3.49657 15.7462C3.44116 15.6433 2.07949 13.2208 3.59949 11.2021L7.41535 6.12698Z" fill="white"/>
<path fill-rule="evenodd" clip-rule="evenodd" d="M13.4241 7.44957L12.8936 8.15473C12.8149 8.2594 12.6663 8.28057 12.5615 8.20204L8.45998 5.12955C8.35517 5.05104 8.33369 4.9025 8.41197 4.79751L8.94324 4.08498C9.48949 3.34873 10.3366 2.96082 11.1916 2.96082C11.7774 2.96082 12.3632 3.1429 12.8699 3.5229C13.4637 3.97415 13.8516 4.63123 13.9624 5.36748C14.0653 6.11165 13.8753 6.8479 13.4241 7.44957Z" fill="white"/>
</svg>
