<svg width="20" height="28" viewBox="0 0 20 28" fill="none" xmlns="http://www.w3.org/2000/svg">
<path d="M5.3008 13.4435C5.3008 16.3449 7.19532 18.3884 9.9603 18.3884C12.7125 18.3884 14.607 16.3449 14.607 13.4435V5.50906C14.607 2.59513 12.7125 0.564209 9.9603 0.564209C7.19532 0.564209 5.3008 2.59513 5.3008 5.50906V13.4435ZM7.23373 13.4435V5.50906C7.23373 3.64213 8.32179 2.44376 9.9603 2.44376C11.5988 2.44376 12.6741 3.64213 12.6741 5.50906V13.4435C12.6741 15.3105 11.5988 16.5088 9.9603 16.5088C8.32179 16.5088 7.23373 15.3105 7.23373 13.4435ZM0.794922 13.8977C0.794922 18.8425 4.11033 22.3115 8.98744 22.7151V25.6543H4.23834C3.7007 25.6543 3.26548 26.0832 3.26548 26.613C3.26548 27.1428 3.7007 27.5591 4.23834 27.5591H15.6695C16.2071 27.5591 16.6423 27.1428 16.6423 26.613C16.6423 26.0832 16.2071 25.6543 15.6695 25.6543H10.9204V22.7151C15.8103 22.3115 19.1129 18.8425 19.1129 13.8977V11.3369C19.1129 10.8071 18.6904 10.3908 18.1528 10.3908C17.6152 10.3908 17.1799 10.8071 17.1799 11.3369V13.822C17.1799 18.1235 14.3382 20.9743 9.9603 20.9743C5.56962 20.9743 2.72784 18.1235 2.72784 13.822V11.3369C2.72784 10.8071 2.30542 10.3908 1.75498 10.3908C1.21735 10.3908 0.794922 10.8071 0.794922 11.3369V13.8977Z" fill="#50555C"/>
</svg>
