<svg width="14" height="15" viewBox="0 0 14 15" fill="none" xmlns="http://www.w3.org/2000/svg">
<path d="M11.7616 5.55484L6.63619 12.1829C6.40097 12.4839 6.05432 12.6532 5.68292 12.6595L3.64019 12.6846C3.52877 12.6846 3.43592 12.6093 3.41116 12.5027L2.9469 10.4899C2.86643 10.1199 2.9469 9.73738 3.18212 9.44266L6.8157 4.73965C6.8776 4.6644 6.98903 4.65249 7.06331 4.7083L8.59226 5.92481C8.6913 6.00633 8.82748 6.05022 8.96985 6.03141C9.27317 5.99379 9.47744 5.71788 9.44649 5.42315C9.42792 5.27266 9.35364 5.14724 9.2546 5.05318C9.22365 5.0281 7.76898 3.86176 7.76898 3.86176C7.67613 3.78651 7.65756 3.64855 7.73184 3.55512L8.30751 2.80828C8.83986 2.12478 9.76837 2.06207 10.5174 2.65779L11.3778 3.34129C11.7306 3.6172 11.9659 3.9809 12.0463 4.36341C12.1392 4.78417 12.0401 5.19741 11.7616 5.55484Z" fill="white"/>
</svg>
