<svg width="30" height="31" viewBox="0 0 30 31" fill="none" xmlns="http://www.w3.org/2000/svg">
<path d="M25 15.8428C25 16.3174 24.6473 16.7096 24.1897 16.7717L24.0625 16.7803L5.3125 16.7803C4.79473 16.7803 4.375 16.3605 4.375 15.8428C4.375 15.3682 4.72769 14.9759 5.18529 14.9138L5.3125 14.9053L24.0625 14.9053C24.5803 14.9053 25 15.325 25 15.8428Z" fill="#2C2B46"/>
<path d="M13.5362 22.7089C13.9031 23.0742 13.9044 23.6678 13.5391 24.0347C13.207 24.3683 12.6862 24.3997 12.3186 24.1281L12.2133 24.0376L4.65076 16.5076C4.31622 16.1745 4.28578 15.6519 4.55948 15.2843L4.65071 15.179L12.2132 7.64773C12.5801 7.28237 13.1737 7.2836 13.539 7.65047C13.8712 7.98399 13.9004 8.50489 13.6273 8.87134L13.5363 8.9763L6.64125 15.8436L13.5362 22.7089Z" fill="#2C2B46"/>
</svg>
