<svg width="23" height="23" viewBox="0 0 23 23" fill="none" xmlns="http://www.w3.org/2000/svg">
<path d="M9.22872 19.2605V16.4268C9.2287 15.7087 9.81261 15.1253 10.5359 15.1208H13.1915C13.918 15.1208 14.5069 15.7055 14.5069 16.4268V19.2523C14.5069 19.8751 15.0131 20.3812 15.6404 20.3858H17.4522C18.2984 20.3879 19.1106 20.0557 19.7098 19.4625C20.3089 18.8692 20.6456 18.0636 20.6456 17.2235V9.17416C20.6456 8.49554 20.3426 7.85183 19.8183 7.41644L13.6631 2.52933C12.5872 1.67452 11.0505 1.70214 10.0064 2.59504L3.98358 7.41644C3.43449 7.83899 3.10631 8.48461 3.09009 9.17416V17.2153C3.09009 18.9663 4.51983 20.3858 6.2835 20.3858H8.05394C8.35597 20.388 8.64639 20.2704 8.86074 20.0591C9.07509 19.8478 9.19563 19.5604 9.19563 19.2605H9.22872Z" fill="#FE9370"/>
</svg>
