<svg width="24" height="23" viewBox="0 0 24 23" fill="none" xmlns="http://www.w3.org/2000/svg">
<path d="M9.38375 19.2506V16.417C9.38374 15.6963 9.97131 15.1107 10.6993 15.1058H13.366C14.0974 15.1058 14.6904 15.6929 14.6904 16.417V16.417V19.2594C14.6902 19.8713 15.1836 20.3714 15.8015 20.3858H17.5793C19.3515 20.3858 20.7882 18.9635 20.7882 17.209V17.209V9.14828C20.7787 8.45806 20.4513 7.80991 19.8993 7.38829L13.8193 2.53953C12.7542 1.69526 11.24 1.69526 10.1749 2.53953L4.12155 7.39709C3.56738 7.817 3.23949 8.46623 3.23267 9.15708V17.209C3.23267 18.9635 4.66933 20.3858 6.44154 20.3858H8.21931C8.8526 20.3858 9.36598 19.8775 9.36598 19.2506V19.2506" stroke="#BDBDBD" stroke-width="1.38596" stroke-linecap="round" stroke-linejoin="round"/>
</svg>
