<svg width="38" height="38" viewBox="0 0 38 38" fill="none" xmlns="http://www.w3.org/2000/svg">
<rect x="0.840088" y="0.173569" width="36.9589" height="36.9589" rx="18.4795" fill="#B7FFD5"/>
<path fill-rule="evenodd" clip-rule="evenodd" d="M15.8478 9.581C18.0348 8.31027 20.7229 8.33248 22.8894 9.63918C25.0345 10.9725 26.3383 13.3521 26.3262 15.9118C26.2762 18.4548 24.8782 20.8452 23.1307 22.693C22.1221 23.7644 20.9938 24.7117 19.7688 25.5157C19.6427 25.5887 19.5045 25.6375 19.3611 25.6598C19.223 25.654 19.0886 25.6132 18.97 25.5412C17.0998 24.3331 15.4591 22.7911 14.1268 20.9893C13.012 19.4852 12.3786 17.6681 12.3127 15.7847C12.3113 13.22 13.6608 10.8517 15.8478 9.581ZM17.1116 16.8461C17.4794 17.753 18.3478 18.3446 19.3111 18.3446C19.9422 18.3491 20.5489 18.0963 20.996 17.6425C21.443 17.1887 21.6933 16.5717 21.6911 15.9288C21.6944 14.9475 21.1167 14.0609 20.2277 13.683C19.3386 13.3051 18.3136 13.5104 17.6312 14.2031C16.9488 14.8957 16.7437 15.9391 17.1116 16.8461Z" fill="#27AE60"/>
</svg>
