<svg width="26" height="26" viewBox="0 0 26 26" fill="none" xmlns="http://www.w3.org/2000/svg">
<path fill-rule="evenodd" clip-rule="evenodd" d="M12.7909 0.80397C19.6799 0.80397 25.2645 6.38861 25.2645 13.2776C25.2645 20.1666 19.6799 25.7512 12.7909 25.7512C5.9019 25.7512 0.317261 20.1666 0.317261 13.2776C0.317261 6.38861 5.9019 0.80397 12.7909 0.80397ZM12.7909 2.25715C18.8772 2.25784 23.8106 7.19217 23.8101 13.2784C23.8097 19.3647 18.8755 24.2983 12.7892 24.2981C6.70297 24.2978 1.76919 19.3639 1.76919 13.2776C1.76928 10.3546 2.93055 7.55137 4.99754 5.48462C7.06453 3.41786 9.8679 2.2569 12.7909 2.25715ZM8.84486 7.86717C8.45932 7.86258 8.08803 8.01278 7.81413 8.28416C7.54024 8.55554 7.3866 8.92542 7.38763 9.31099C7.38763 10.1158 8.04006 10.7682 8.84486 10.7682C9.64967 10.7682 10.3021 10.1158 10.3021 9.31099C10.3031 8.92542 10.1495 8.55554 9.8756 8.28416C9.6017 8.01278 9.23041 7.86258 8.84486 7.86717ZM21.1036 15.4262C20.4394 19.0155 16.9752 22.0123 12.7893 22.0123C8.63687 22.0123 5.19289 19.0591 4.48969 15.5104C4.34718 14.6248 5.07252 14.4158 5.75577 14.5811C8.04143 15.242 10.4118 15.5635 12.7909 15.5353C15.1646 15.5629 17.5296 15.2424 19.8104 14.5842C20.4747 14.4158 21.186 14.6061 21.1036 15.4262ZM18.8487 15.9251C18.7839 15.9501 18.7181 15.9688 18.6516 15.9906C18.6448 15.9937 18.8643 15.922 18.8578 15.9251C16.8855 16.4681 14.8467 16.7316 12.8012 16.7079C10.3601 16.7079 8.1769 16.4366 6.67445 15.8971C5.58519 15.5728 5.79412 16.8544 6.55969 17.2473C8.51822 18.139 10.6491 18.5883 12.8009 18.5633C15.3605 18.5633 17.6413 17.9677 19.1478 17.1975C19.8606 16.739 20.0016 15.5104 18.8487 15.9251ZM16.745 7.86717C16.3595 7.86258 15.9882 8.01277 15.7142 8.28414C15.4403 8.55551 15.2866 8.92539 15.2875 9.31099C15.2798 9.83675 15.5559 10.3259 16.01 10.591C16.464 10.8561 17.0257 10.8561 17.4798 10.591C17.9339 10.3259 18.21 9.83675 18.2023 9.31099C18.2032 8.92545 18.0496 8.55562 17.7757 8.28426C17.5018 8.0129 17.1306 7.86266 16.745 7.86717Z" fill="#50555C"/>
</svg>
