<svg width="18" height="18" viewBox="0 0 18 18" fill="none" xmlns="http://www.w3.org/2000/svg">
<path opacity="0.4" d="M16.5 8.99988C16.5 13.1429 13.1422 16.4999 9 16.4999C4.85775 16.4999 1.5 13.1429 1.5 8.99988C1.5 4.85838 4.85775 1.49988 9 1.49988C13.1422 1.49988 16.5 4.85838 16.5 8.99988Z" fill="#FE9370"/>
<path d="M11.6801 11.8607C11.5818 11.8607 11.4828 11.8352 11.3921 11.782L8.44758 10.0255C8.27808 9.92347 8.17383 9.73972 8.17383 9.54172V5.75647C8.17383 5.44597 8.42583 5.19397 8.73633 5.19397C9.04683 5.19397 9.29883 5.44597 9.29883 5.75647V9.22222L11.9688 10.8145C12.2351 10.9742 12.3228 11.3192 12.1638 11.5862C12.0581 11.7625 11.8713 11.8607 11.6801 11.8607Z" fill="#FE9370"/>
</svg>
