<svg width="23" height="23" viewBox="0 0 23 23" fill="none" xmlns="http://www.w3.org/2000/svg">
<path d="M8.58796 19.2506V16.417C8.58794 15.6963 9.17551 15.1107 9.90351 15.1058H12.5702C13.3016 15.1058 13.8946 15.6929 13.8946 16.417V16.417V19.2594C13.8944 19.8713 14.3878 20.3714 15.0057 20.3858H16.7835C18.5557 20.3858 19.9924 18.9635 19.9924 17.209V17.209V9.14828C19.9829 8.45806 19.6555 7.80991 19.1035 7.38829L13.0235 2.53953C11.9584 1.69526 10.4442 1.69526 9.37906 2.53953L3.32575 7.39709C2.77158 7.817 2.44369 8.46623 2.43687 9.15708V17.209C2.43687 18.9635 3.87353 20.3858 5.64574 20.3858H7.42352C8.0568 20.3858 8.57018 19.8775 8.57018 19.2506V19.2506" stroke="#BDBDBD" stroke-width="1.38596" stroke-linecap="round" stroke-linejoin="round"/>
</svg>
