<svg width="20" height="20" viewBox="0 0 20 20" fill="none" xmlns="http://www.w3.org/2000/svg">
<path fill-rule="evenodd" clip-rule="evenodd" d="M14.4181 7.08962H17.6759C17.6759 4.47385 16.1086 2.94576 13.453 2.94576H6.49927C3.8437 2.94576 2.27637 4.47385 2.27637 7.05626V12.6949C2.27637 15.2773 3.8437 16.8054 6.49927 16.8054H13.453C16.1086 16.8054 17.6759 15.2773 17.6759 12.6949V12.4546H14.4181C12.9061 12.4546 11.6804 11.2596 11.6804 9.78547C11.6804 8.31134 12.9061 7.11631 14.4181 7.11631V7.08962ZM14.4181 8.23735H17.101C17.4186 8.23735 17.676 8.48831 17.676 8.79787V10.7464C17.6723 11.0544 17.417 11.3033 17.101 11.3069H14.4797C13.7142 11.3169 13.0449 10.806 12.8713 10.0791C12.7843 9.62784 12.9064 9.16221 13.2047 8.80698C13.5031 8.45176 13.9472 8.24325 14.4181 8.23735ZM14.5344 10.2859H14.7876C15.1127 10.2859 15.3763 10.029 15.3763 9.71207C15.3763 9.39513 15.1127 9.1382 14.7876 9.1382H14.5344C14.3789 9.13642 14.2292 9.19539 14.1186 9.30195C14.008 9.40851 13.9458 9.5538 13.9458 9.7054C13.9458 10.0234 14.2082 10.2823 14.5344 10.2859ZM5.92439 7.08962H10.2705C10.5956 7.08962 10.8591 6.83269 10.8591 6.51575C10.8591 6.19881 10.5956 5.94188 10.2705 5.94188H5.92439C5.60197 5.94186 5.33954 6.19475 5.33579 6.50908C5.33577 6.82712 5.59821 7.08597 5.92439 7.08962Z" fill="white"/>
</svg>
