<svg width="19" height="19" viewBox="0 0 19 19" fill="none" xmlns="http://www.w3.org/2000/svg">
<path d="M8.39682 12.9547H3.54541" stroke="white" stroke-width="1.38596" stroke-linecap="round" stroke-linejoin="round"/>
<path d="M10.5608 5.49163H15.4122" stroke="white" stroke-width="1.38596" stroke-linecap="round" stroke-linejoin="round"/>
<path fill-rule="evenodd" clip-rule="evenodd" d="M7.16196 5.44995C7.16196 4.45232 6.3472 3.64339 5.3424 3.64339C4.33759 3.64339 3.52283 4.45232 3.52283 5.44995C3.52283 6.44758 4.33759 7.25651 5.3424 7.25651C6.3472 7.25651 7.16196 6.44758 7.16196 5.44995Z" stroke="white" stroke-width="1.38596" stroke-linecap="round" stroke-linejoin="round"/>
<path fill-rule="evenodd" clip-rule="evenodd" d="M15.8424 12.9245C15.8424 11.9269 15.0283 11.118 14.0234 11.118C13.018 11.118 12.2032 11.9269 12.2032 12.9245C12.2032 13.9221 13.018 14.7311 14.0234 14.7311C15.0283 14.7311 15.8424 13.9221 15.8424 12.9245Z" stroke="white" stroke-width="1.38596" stroke-linecap="round" stroke-linejoin="round"/>
</svg>
