<svg width="24" height="25" viewBox="0 0 24 25" fill="none" xmlns="http://www.w3.org/2000/svg">
<path d="M9.14373 21.2821V18.2152C9.14372 17.4381 9.77567 16.8067 10.5584 16.8018H13.4326C14.2189 16.8018 14.8563 17.4346 14.8563 18.2152V21.2732C14.8562 21.9473 15.404 22.4951 16.0829 22.5H18.0438C18.9596 22.5023 19.8388 22.1428 20.4872 21.5007C21.1356 20.8586 21.5 19.9868 21.5 19.0775V10.3658C21.5 9.63139 21.1721 8.93471 20.6046 8.4635L13.943 3.17427C12.7785 2.24912 11.1154 2.27901 9.98539 3.24538L3.46701 8.4635C2.87274 8.92082 2.51755 9.61956 2.5 10.3658V19.0686C2.5 20.9637 4.04738 22.5 5.95617 22.5H7.87229C8.19917 22.5023 8.51349 22.3751 8.74547 22.1464C8.97746 21.9178 9.10793 21.6067 9.10792 21.2821H9.14373Z" fill="#FE9370"/>
</svg>
