<svg width="25" height="26" viewBox="0 0 25 26" fill="none" xmlns="http://www.w3.org/2000/svg">
<path d="M12.5 13.7812C14.2259 13.7812 15.625 12.3821 15.625 10.6562C15.625 8.93036 14.2259 7.53125 12.5 7.53125C10.7741 7.53125 9.375 8.93036 9.375 10.6562C9.375 12.3821 10.7741 13.7812 12.5 13.7812Z" stroke="#2B2B53" stroke-width="1.5" stroke-linecap="round" stroke-linejoin="round"/>
<path d="M20.3125 10.6562C20.3125 17.6875 12.5 23.1562 12.5 23.1562C12.5 23.1562 4.6875 17.6875 4.6875 10.6562C4.6875 8.58425 5.5106 6.59711 6.97573 5.13198C8.44086 3.66685 10.428 2.84375 12.5 2.84375C14.572 2.84375 16.5591 3.66685 18.0243 5.13198C19.4894 6.59711 20.3125 8.58425 20.3125 10.6562V10.6562Z" stroke="#2B2B53" stroke-width="1.5" stroke-linecap="round" stroke-linejoin="round"/>
</svg>
