<svg width="28" height="28" viewBox="0 0 28 28" fill="none" xmlns="http://www.w3.org/2000/svg">
<path d="M25.036 5.43594C24.9325 5.35431 24.8118 5.29715 24.683 5.26874C24.5542 5.24033 24.4206 5.2414 24.2923 5.27188L17.5985 6.94532L10.8939 3.5875H10.8829L10.7954 3.55469H10.7736L10.697 3.53282H10.6642L10.5876 3.51094H10.2923L3.2923 5.26094C3.09962 5.30802 2.92866 5.41917 2.80743 5.57617C2.68621 5.73316 2.62192 5.92668 2.62511 6.125V21.875C2.62383 22.0084 2.65384 22.1402 2.71273 22.2598C2.77161 22.3795 2.85773 22.4837 2.96418 22.5641C3.11681 22.6846 3.30563 22.7501 3.50011 22.75L3.70793 22.7281L10.4017 21.0547L17.1064 24.4125H17.1173L17.1939 24.4453H17.2048L17.2923 24.4781H17.7079L24.7079 22.7281C24.8988 22.6815 25.0683 22.5719 25.1894 22.4172C25.3104 22.2624 25.3758 22.0715 25.3751 21.875V6.125C25.3764 5.99164 25.3464 5.85983 25.2875 5.74016C25.2286 5.62049 25.1425 5.5163 25.036 5.43594V5.43594ZM16.6251 22.2141L11.3751 19.5891V5.78594L16.6251 8.41094V22.2141Z" fill="#4F4F4F"/>
</svg>
