<svg width="46" height="46" viewBox="0 0 46 46" fill="none" xmlns="http://www.w3.org/2000/svg">
<path d="M39.2294 24.7678L18.1665 36.5677C17.811 36.7687 17.4023 36.8553 16.9958 36.8158C16.5894 36.7762 16.205 36.6124 15.8949 36.3467L15.7712 36.223C15.5054 35.956 15.3204 35.6194 15.2375 35.2519C15.1547 34.8845 15.1772 34.501 15.3027 34.1458L18.8117 24.3259C18.8477 24.228 18.9126 24.1434 18.9979 24.0834C19.0832 24.0234 19.1847 23.9908 19.289 23.99L28.3577 23.99C28.493 23.9967 28.6282 23.9758 28.7552 23.9286C28.8822 23.8814 28.9982 23.8089 29.0964 23.7155C29.1945 23.6221 29.2726 23.5098 29.326 23.3853C29.3794 23.2608 29.4069 23.1267 29.4069 22.9912C29.4069 22.8558 29.3794 22.7217 29.326 22.5972C29.2726 22.4727 29.1945 22.3603 29.0964 22.2669C28.9982 22.1735 28.8822 22.101 28.7552 22.0539C28.6282 22.0067 28.493 21.9858 28.3577 21.9924L19.2802 22.0013C19.1759 22.0005 19.0743 21.9679 18.9891 21.9079C18.9038 21.8479 18.8388 21.7633 18.8029 21.6654L15.3115 11.8985C15.1746 11.5165 15.1527 11.1027 15.2486 10.7084C15.3444 10.3141 15.5538 9.95651 15.8507 9.67995C16.1616 9.40034 16.5528 9.22591 16.9686 9.18147C17.3843 9.13704 17.8035 9.22487 18.1665 9.43246L39.2736 21.2588C39.6439 21.4646 39.9393 21.7826 40.1172 22.167C40.2951 22.5514 40.3463 22.9824 40.2636 23.3978C40.1982 23.6864 40.0721 23.9578 39.8938 24.194C39.7155 24.4302 39.4891 24.6258 39.2294 24.7678Z" fill="#2C2B46"/>
</svg>
