<svg width="44" height="60" viewBox="0 0 44 60" fill="none" xmlns="http://www.w3.org/2000/svg">
<g filter="url(#filter0_d_1_1619)">
<mask id="path-1-outside-1_1_1619" maskUnits="userSpaceOnUse" x="4.20081" y="4.20908" width="36" height="50" fill="black">
<rect fill="white" x="4.20081" y="4.20908" width="36" height="50"/>
<path fill-rule="evenodd" clip-rule="evenodd" d="M30.422 7.58382C25.2559 4.46785 18.8456 4.41488 13.6305 7.44508C8.41544 10.4753 5.19735 16.1227 5.20081 22.2384C5.35795 26.7297 6.86829 31.0628 9.52671 34.6494C11.8377 37.7749 14.5379 40.5725 17.5547 42.9743L21.041 52.5616C21.3359 53.3726 22.4828 53.3726 22.7777 52.5616L26.2163 43.1054C27.9107 41.7616 29.5088 40.2936 30.9975 38.7123C35.1647 34.3058 38.4984 28.6056 38.6174 22.5416C38.6464 16.4376 35.5374 10.7633 30.422 7.58382ZM21.8893 28.3429C19.5921 28.3428 17.5214 26.9321 16.6442 24.7695C15.7669 22.6068 16.2561 20.1187 17.8834 18.4669C19.5106 16.8152 21.9549 16.3256 24.075 17.2267C26.195 18.1279 27.5726 20.2421 27.5646 22.5821C27.5699 24.1151 26.9731 25.5866 25.907 26.6687C24.841 27.7508 23.3943 28.3537 21.8893 28.3429Z"/>
</mask>
<path fill-rule="evenodd" clip-rule="evenodd" d="M30.422 7.58382C25.2559 4.46785 18.8456 4.41488 13.6305 7.44508C8.41544 10.4753 5.19735 16.1227 5.20081 22.2384C5.35795 26.7297 6.86829 31.0628 9.52671 34.6494C11.8377 37.7749 14.5379 40.5725 17.5547 42.9743L21.041 52.5616C21.3359 53.3726 22.4828 53.3726 22.7777 52.5616L26.2163 43.1054C27.9107 41.7616 29.5088 40.2936 30.9975 38.7123C35.1647 34.3058 38.4984 28.6056 38.6174 22.5416C38.6464 16.4376 35.5374 10.7633 30.422 7.58382ZM21.8893 28.3429C19.5921 28.3428 17.5214 26.9321 16.6442 24.7695C15.7669 22.6068 16.2561 20.1187 17.8834 18.4669C19.5106 16.8152 21.9549 16.3256 24.075 17.2267C26.195 18.1279 27.5726 20.2421 27.5646 22.5821C27.5699 24.1151 26.9731 25.5866 25.907 26.6687C24.841 27.7508 23.3943 28.3537 21.8893 28.3429Z" fill="#EB5757"/>
<path d="M13.6305 7.44508L14.0947 8.24399V8.24399L13.6305 7.44508ZM30.422 7.58382L30.9098 6.79901L30.8992 6.79262L30.422 7.58382ZM5.20081 22.2384L4.27684 22.239L4.27684 22.2549L4.2774 22.2708L5.20081 22.2384ZM9.52671 34.6494L10.2697 34.1001L10.269 34.0992L9.52671 34.6494ZM17.5547 42.9743L18.4231 42.6585L18.334 42.4137L18.1302 42.2514L17.5547 42.9743ZM21.041 52.5616L21.9094 52.2459V52.2459L21.041 52.5616ZM22.7777 52.5616L23.646 52.8774V52.8774L22.7777 52.5616ZM26.2163 43.1054L25.6422 42.3814L25.4373 42.5439L25.348 42.7896L26.2163 43.1054ZM30.9975 38.7123L30.3262 38.0774L30.3247 38.0789L30.9975 38.7123ZM38.6174 22.5416L39.5413 22.5598L39.5414 22.546L38.6174 22.5416ZM16.6442 24.7695L17.5004 24.4221L16.6442 24.7695ZM21.8893 28.3429L21.896 27.4189H21.8893L21.8893 28.3429ZM17.8834 18.4669L18.5416 19.1154L17.8834 18.4669ZM27.5646 22.5821L26.6406 22.5789L26.6406 22.5853L27.5646 22.5821ZM25.907 26.6687L25.2488 26.0203H25.2488L25.907 26.6687ZM14.0947 8.24399C19.0181 5.38332 25.0674 5.43322 29.9448 8.37502L30.8992 6.79262C25.4443 3.50247 18.6732 3.44644 13.1663 6.64618L14.0947 8.24399ZM6.12478 22.2379C6.12151 16.4459 9.16932 11.1059 14.0947 8.24399L13.1663 6.64618C7.66156 9.8447 4.2732 15.7995 4.27684 22.239L6.12478 22.2379ZM10.269 34.0992C7.72278 30.664 6.27486 26.5117 6.12422 22.2061L4.2774 22.2708C4.44104 26.9476 6.01379 31.4616 8.78442 35.1996L10.269 34.0992ZM18.1302 42.2514C15.1767 39.9001 12.5328 37.1608 10.2697 34.1001L8.78378 35.1987C11.1426 38.3889 13.899 41.245 16.9792 43.6972L18.1302 42.2514ZM21.9094 52.2459L18.4231 42.6585L16.6864 43.2901L20.1727 52.8774L21.9094 52.2459ZM21.9094 52.2459V52.2459L20.1727 52.8774C20.7625 54.4993 23.0563 54.4993 23.646 52.8774L21.9094 52.2459ZM25.348 42.7896L21.9094 52.2459L23.646 52.8774L27.0847 43.4211L25.348 42.7896ZM30.3247 38.0789C28.8666 39.6277 27.3015 41.0655 25.6422 42.3814L26.7905 43.8293C28.5199 42.4577 30.151 40.9594 31.6702 39.3456L30.3247 38.0789ZM37.6936 22.5235C37.5809 28.2675 34.4108 33.7582 30.3262 38.0774L31.6688 39.3471C35.9185 34.8534 39.4159 28.9437 39.5412 22.5598L37.6936 22.5235ZM29.9343 8.36856C34.7726 11.3758 37.7209 16.7489 37.6935 22.5373L39.5414 22.546C39.5719 16.1263 36.3022 10.1507 30.9098 6.79908L29.9343 8.36856ZM15.788 25.1168C16.8036 27.6207 19.208 29.2668 21.8893 29.2668L21.8893 27.4189C19.9762 27.4189 18.2392 26.2436 17.5004 24.4221L15.788 25.1168ZM17.2252 17.8185C15.3369 19.7352 14.7733 22.6153 15.788 25.1168L17.5004 24.4221C16.7606 22.5982 17.1754 20.5022 18.5416 19.1154L17.2252 17.8185ZM24.4364 16.3764C21.9642 15.3256 19.1163 15.8988 17.2252 17.8185L18.5416 19.1154C19.9049 17.7315 21.9456 17.3256 23.7135 18.0771L24.4364 16.3764ZM28.4886 22.5852C28.4979 19.8812 26.9056 17.426 24.4364 16.3764L23.7135 18.0771C25.4844 18.8298 26.6474 20.6029 26.6406 22.5789L28.4886 22.5852ZM26.5652 27.3172C27.8041 26.0596 28.4948 24.3531 28.4886 22.5789L26.6406 22.5853C26.6451 23.8771 26.142 25.1136 25.2488 26.0203L26.5652 27.3172ZM21.8827 29.2668C23.64 29.2794 25.3258 28.5753 26.5652 27.3172L25.2488 26.0203C24.3562 26.9264 23.1486 27.4279 21.896 27.4189L21.8827 29.2668Z" fill="white" mask="url(#path-1-outside-1_1_1619)"/>
</g>
<circle cx="21.9093" cy="57.7215" r="1.84795" fill="#EB5757"/>
<defs>
<filter id="filter0_d_1_1619" x="0.580962" y="0.589202" width="42.6566" height="57.2005" filterUnits="userSpaceOnUse" color-interpolation-filters="sRGB">
<feFlood flood-opacity="0" result="BackgroundImageFix"/>
<feColorMatrix in="SourceAlpha" type="matrix" values="0 0 0 0 0 0 0 0 0 0 0 0 0 0 0 0 0 0 127 0" result="hardAlpha"/>
<feOffset/>
<feGaussianBlur stdDeviation="1.84795"/>
<feComposite in2="hardAlpha" operator="out"/>
<feColorMatrix type="matrix" values="0 0 0 0 0 0 0 0 0 0 0 0 0 0 0 0 0 0 0.25 0"/>
<feBlend mode="normal" in2="BackgroundImageFix" result="effect1_dropShadow_1_1619"/>
<feBlend mode="normal" in="SourceGraphic" in2="effect1_dropShadow_1_1619" result="shape"/>
</filter>
</defs>
</svg>
