<svg width="63" height="11" viewBox="0 0 63 11" fill="none" xmlns="http://www.w3.org/2000/svg">
<path opacity="0.35" d="M42.2052 0.833782H57.6048C58.7104 0.833782 59.6067 1.73008 59.6067 2.83572V8.37957C59.6067 9.48521 58.7104 10.3815 57.6048 10.3815H42.2052C41.0996 10.3815 40.2033 9.48521 40.2033 8.37956V2.83572C40.2033 1.73008 41.0996 0.833782 42.2052 0.833782Z" stroke="#2C2B46" stroke-width="0.923973"/>
<path opacity="0.4" d="M60.9927 3.75967V7.45557C61.7362 7.14255 62.2198 6.41437 62.2198 5.60762C62.2198 4.80087 61.7362 4.07269 60.9927 3.75967" fill="#2C2B46"/>
<path d="M41.5892 3.23613C41.5892 2.6748 42.0443 2.21976 42.6056 2.21976H57.2044C57.7657 2.21976 58.2208 2.6748 58.2208 3.23613V7.97919C58.2208 8.54052 57.7657 8.99556 57.2044 8.99556H42.6056C42.0443 8.99556 41.5892 8.54052 41.5892 7.97919V3.23613Z" fill="#2C2B46"/>
<path fill-rule="evenodd" clip-rule="evenodd" d="M28.035 2.47348C30.0824 2.47357 32.0516 3.26028 33.5354 4.671C33.6471 4.77991 33.8257 4.77854 33.9358 4.66792L35.0039 3.58995C35.0596 3.53384 35.0907 3.45785 35.0902 3.37877C35.0898 3.2997 35.0578 3.22407 35.0014 3.16862C31.1068 -0.563815 24.9626 -0.563815 21.0679 3.16862C21.0115 3.22403 20.9795 3.29963 20.979 3.37871C20.9785 3.45778 21.0095 3.5338 21.0652 3.58995L22.1336 4.66792C22.2436 4.77871 22.4223 4.78008 22.534 4.671C24.018 3.26019 25.9874 2.47348 28.035 2.47348ZM28.035 5.98058C29.1599 5.98051 30.2447 6.39864 31.0786 7.15372C31.1913 7.26088 31.369 7.25856 31.479 7.14848L32.5458 6.07051C32.602 6.01397 32.6332 5.93726 32.6324 5.85756C32.6316 5.77785 32.5988 5.7018 32.5415 5.64641C30.0023 3.28438 26.0699 3.28438 23.5306 5.64641C23.4733 5.7018 23.4405 5.77789 23.4398 5.85762C23.439 5.93735 23.4703 6.01405 23.5266 6.07051L24.5932 7.14848C24.7031 7.25856 24.8808 7.26088 24.9936 7.15372C25.8269 6.39914 26.9108 5.98104 28.035 5.98058ZM30.1721 8.34024C30.1738 8.42017 30.1423 8.49723 30.0853 8.55323L28.2398 10.4156C28.1857 10.4704 28.112 10.5012 28.035 10.5012C27.958 10.5012 27.8843 10.4704 27.8302 10.4156L25.9844 8.55323C25.9274 8.49719 25.896 8.4201 25.8977 8.34017C25.8994 8.26024 25.934 8.18455 25.9933 8.13097C27.1719 7.13411 28.8981 7.13411 30.0767 8.13097C30.136 8.18459 30.1705 8.26031 30.1721 8.34024Z" fill="#2C2B46"/>
<path fill-rule="evenodd" clip-rule="evenodd" d="M15.4101 0.679688H14.4862C13.9759 0.679688 13.5622 1.09336 13.5622 1.60366V9.61143C13.5622 10.1217 13.9759 10.5354 14.4862 10.5354H15.4101C15.9204 10.5354 16.3341 10.1217 16.3341 9.61143V1.60366C16.3341 1.09336 15.9204 0.679688 15.4101 0.679688ZM10.1743 2.83563H11.0983C11.6086 2.83563 12.0222 3.2493 12.0222 3.7596V9.61143C12.0222 10.1217 11.6086 10.5354 11.0983 10.5354H10.1743C9.66398 10.5354 9.25031 10.1217 9.25031 9.61143V3.7596C9.25031 3.2493 9.66398 2.83563 10.1743 2.83563ZM6.78638 4.99156H5.86241C5.35211 4.99156 4.93843 5.40524 4.93843 5.91554V9.61143C4.93843 10.1217 5.35211 10.5354 5.86241 10.5354H6.78638C7.29667 10.5354 7.71035 10.1217 7.71035 9.61143V5.91554C7.71035 5.40524 7.29667 4.99156 6.78638 4.99156ZM2.4745 6.83951H1.55053C1.04023 6.83951 0.626556 7.25319 0.626556 7.76348V9.61143C0.626556 10.1217 1.04023 10.5354 1.55053 10.5354H2.4745C2.9848 10.5354 3.39848 10.1217 3.39848 9.61143V7.76348C3.39848 7.25319 2.9848 6.83951 2.4745 6.83951Z" fill="#2C2B46"/>
</svg>
