<svg width="63" height="11" viewBox="0 0 63 11" fill="none" xmlns="http://www.w3.org/2000/svg">
<path opacity="0.35" d="M42.4095 0.833782H57.809C58.9147 0.833782 59.811 1.73008 59.811 2.83572V8.37957C59.811 9.48521 58.9147 10.3815 57.809 10.3815H42.4095C41.3038 10.3815 40.4075 9.48521 40.4075 8.37956V2.83572C40.4075 1.73008 41.3038 0.833782 42.4095 0.833782Z" stroke="#2B2B53" stroke-width="0.923973"/>
<path opacity="0.4" d="M61.1969 3.75967V7.45557C61.9404 7.14255 62.424 6.41437 62.424 5.60762C62.424 4.80087 61.9404 4.07269 61.1969 3.75967" fill="#2B2B53"/>
<path d="M41.7935 3.23613C41.7935 2.6748 42.2485 2.21976 42.8098 2.21976H57.4086C57.9699 2.21976 58.425 2.6748 58.425 3.23613V7.97919C58.425 8.54052 57.9699 8.99556 57.4086 8.99556H42.8098C42.2485 8.99556 41.7935 8.54052 41.7935 7.97919V3.23613Z" fill="#2B2B53"/>
<path fill-rule="evenodd" clip-rule="evenodd" d="M28.2392 2.47348C30.2867 2.47357 32.2558 3.26028 33.7397 4.671C33.8514 4.77991 34.03 4.77854 34.14 4.66792L35.2082 3.58995C35.2639 3.53384 35.295 3.45785 35.2945 3.37877C35.294 3.2997 35.2621 3.22407 35.2057 3.16862C31.3111 -0.563815 25.1668 -0.563815 21.2722 3.16862C21.2158 3.22403 21.1838 3.29963 21.1832 3.37871C21.1827 3.45778 21.2137 3.5338 21.2694 3.58995L22.3378 4.66792C22.4478 4.77871 22.6265 4.78008 22.7382 4.671C24.2223 3.26019 26.1916 2.47348 28.2392 2.47348ZM28.2392 5.98058C29.3642 5.98051 30.449 6.39864 31.2828 7.15372C31.3956 7.26088 31.5733 7.25856 31.6832 7.14848L32.7501 6.07051C32.8063 6.01397 32.8374 5.93726 32.8366 5.85756C32.8358 5.77785 32.8031 5.7018 32.7458 5.64641C30.2065 3.28438 26.2741 3.28438 23.7349 5.64641C23.6775 5.7018 23.6448 5.77789 23.644 5.85762C23.6433 5.93735 23.6746 6.01405 23.7309 6.07051L24.7974 7.14848C24.9074 7.25856 25.0851 7.26088 25.1978 7.15372C26.0311 6.39914 27.1151 5.98104 28.2392 5.98058ZM30.3764 8.34024C30.378 8.42017 30.3466 8.49723 30.2895 8.55323L28.4441 10.4156C28.39 10.4704 28.3162 10.5012 28.2392 10.5012C28.1623 10.5012 28.0885 10.4704 28.0344 10.4156L26.1886 8.55323C26.1316 8.49719 26.1003 8.4201 26.1019 8.34017C26.1036 8.26024 26.1382 8.18455 26.1976 8.13097C27.3762 7.13411 29.1023 7.13411 30.2809 8.13097C30.3402 8.18459 30.3748 8.26031 30.3764 8.34024Z" fill="#2B2B53"/>
<path fill-rule="evenodd" clip-rule="evenodd" d="M15.6144 0.679688H14.6904C14.1801 0.679688 13.7664 1.09336 13.7664 1.60366V9.61143C13.7664 10.1217 14.1801 10.5354 14.6904 10.5354H15.6144C16.1247 10.5354 16.5384 10.1217 16.5384 9.61143V1.60366C16.5384 1.09336 16.1247 0.679688 15.6144 0.679688ZM10.3785 2.83563H11.3025C11.8128 2.83563 12.2265 3.2493 12.2265 3.7596V9.61143C12.2265 10.1217 11.8128 10.5354 11.3025 10.5354H10.3785C9.86824 10.5354 9.45456 10.1217 9.45456 9.61143V3.7596C9.45456 3.2493 9.86824 2.83563 10.3785 2.83563ZM6.99063 4.99156H6.06666C5.55636 4.99156 5.14269 5.40524 5.14269 5.91554V9.61143C5.14269 10.1217 5.55636 10.5354 6.06666 10.5354H6.99063C7.50093 10.5354 7.91461 10.1217 7.91461 9.61143V5.91554C7.91461 5.40524 7.50093 4.99156 6.99063 4.99156ZM2.67876 6.83951H1.75478C1.24449 6.83951 0.830811 7.25319 0.830811 7.76348V9.61143C0.830811 10.1217 1.24449 10.5354 1.75478 10.5354H2.67876C3.18905 10.5354 3.60273 10.1217 3.60273 9.61143V7.76348C3.60273 7.25319 3.18905 6.83951 2.67876 6.83951Z" fill="#2B2B53"/>
</svg>
