<svg width="63" height="11" viewBox="0 0 63 11" fill="none" xmlns="http://www.w3.org/2000/svg">
<path opacity="0.35" d="M42.5521 0.833782H57.9516C59.0573 0.833782 59.9536 1.73008 59.9536 2.83572V8.37957C59.9536 9.48521 59.0573 10.3815 57.9516 10.3815H42.5521C41.4464 10.3815 40.5501 9.48521 40.5501 8.37956V2.83572C40.5501 1.73008 41.4464 0.833782 42.5521 0.833782Z" stroke="#2C2B46" stroke-width="0.923973"/>
<path opacity="0.4" d="M61.3395 3.75967V7.45557C62.083 7.14255 62.5665 6.41437 62.5665 5.60762C62.5665 4.80087 62.083 4.07269 61.3395 3.75967" fill="#2C2B46"/>
<path d="M41.936 3.23613C41.936 2.6748 42.3911 2.21976 42.9524 2.21976H57.5512C58.1125 2.21976 58.5676 2.6748 58.5676 3.23613V7.97919C58.5676 8.54052 58.1125 8.99556 57.5512 8.99556H42.9524C42.3911 8.99556 41.936 8.54052 41.936 7.97919V3.23613Z" fill="#2C2B46"/>
<path fill-rule="evenodd" clip-rule="evenodd" d="M28.3818 2.47348C30.4293 2.47357 32.3984 3.26028 33.8822 4.671C33.994 4.77991 34.1726 4.77854 34.2826 4.66792L35.3507 3.58995C35.4065 3.53384 35.4375 3.45785 35.4371 3.37877C35.4366 3.2997 35.4047 3.22407 35.3483 3.16862C31.4536 -0.563815 25.3094 -0.563815 21.4148 3.16862C21.3583 3.22403 21.3263 3.29963 21.3258 3.37871C21.3253 3.45778 21.3563 3.5338 21.412 3.58995L22.4804 4.66792C22.5904 4.77871 22.7691 4.78008 22.8808 4.671C24.3648 3.26019 26.3342 2.47348 28.3818 2.47348ZM28.3818 5.98058C29.5068 5.98051 30.5915 6.39864 31.4254 7.15372C31.5382 7.26088 31.7158 7.25856 31.8258 7.14848L32.8927 6.07051C32.9488 6.01397 32.98 5.93726 32.9792 5.85756C32.9784 5.77785 32.9457 5.7018 32.8884 5.64641C30.3491 3.28438 26.4167 3.28438 23.8775 5.64641C23.8201 5.7018 23.7874 5.77789 23.7866 5.85762C23.7859 5.93735 23.8171 6.01405 23.8735 6.07051L24.94 7.14848C25.05 7.25856 25.2276 7.26088 25.3404 7.15372C26.1737 6.39914 27.2576 5.98104 28.3818 5.98058ZM30.519 8.34024C30.5206 8.42017 30.4892 8.49723 30.4321 8.55323L28.5866 10.4156C28.5325 10.4704 28.4588 10.5012 28.3818 10.5012C28.3049 10.5012 28.2311 10.4704 28.177 10.4156L26.3312 8.55323C26.2742 8.49719 26.2428 8.4201 26.2445 8.34017C26.2462 8.26024 26.2808 8.18455 26.3402 8.13097C27.5187 7.13411 29.2449 7.13411 30.4235 8.13097C30.4828 8.18459 30.5173 8.26031 30.519 8.34024Z" fill="#2C2B46"/>
<path fill-rule="evenodd" clip-rule="evenodd" d="M15.757 0.679688H14.833C14.3227 0.679688 13.909 1.09336 13.909 1.60366V9.61143C13.909 10.1217 14.3227 10.5354 14.833 10.5354H15.757C16.2673 10.5354 16.6809 10.1217 16.6809 9.61143V1.60366C16.6809 1.09336 16.2673 0.679688 15.757 0.679688ZM10.5211 2.83563H11.4451C11.9554 2.83563 12.3691 3.2493 12.3691 3.7596V9.61143C12.3691 10.1217 11.9554 10.5354 11.4451 10.5354H10.5211C10.0108 10.5354 9.59714 10.1217 9.59714 9.61143V3.7596C9.59714 3.2493 10.0108 2.83563 10.5211 2.83563ZM7.13321 4.99156H6.20924C5.69894 4.99156 5.28526 5.40524 5.28526 5.91554V9.61143C5.28526 10.1217 5.69894 10.5354 6.20924 10.5354H7.13321C7.64351 10.5354 8.05718 10.1217 8.05718 9.61143V5.91554C8.05718 5.40524 7.64351 4.99156 7.13321 4.99156ZM2.82134 6.83951H1.89736C1.38707 6.83951 0.973389 7.25319 0.973389 7.76348V9.61143C0.973389 10.1217 1.38707 10.5354 1.89736 10.5354H2.82134C3.33163 10.5354 3.74531 10.1217 3.74531 9.61143V7.76348C3.74531 7.25319 3.33163 6.83951 2.82134 6.83951Z" fill="#2C2B46"/>
</svg>
