<svg width="62" height="11" viewBox="0 0 62 11" fill="none" xmlns="http://www.w3.org/2000/svg">
<path opacity="0.35" d="M41.7563 0.833782H57.1558C58.2615 0.833782 59.1578 1.73008 59.1578 2.83572V8.37957C59.1578 9.48521 58.2615 10.3815 57.1558 10.3815H41.7563C40.6506 10.3815 39.7543 9.48521 39.7543 8.37956V2.83572C39.7543 1.73008 40.6506 0.833782 41.7563 0.833782Z" stroke="#2C2B46" stroke-width="0.923973"/>
<path opacity="0.4" d="M60.5437 3.75967V7.45557C61.2873 7.14255 61.7708 6.41437 61.7708 5.60762C61.7708 4.80087 61.2873 4.07269 60.5437 3.75967" fill="#2C2B46"/>
<path d="M41.1403 3.23613C41.1403 2.6748 41.5953 2.21976 42.1566 2.21976H56.7554C57.3167 2.21976 57.7718 2.6748 57.7718 3.23613V7.97919C57.7718 8.54052 57.3167 8.99556 56.7554 8.99556H42.1566C41.5953 8.99556 41.1403 8.54052 41.1403 7.97919V3.23613Z" fill="#2C2B46"/>
<path fill-rule="evenodd" clip-rule="evenodd" d="M27.586 2.47348C29.6334 2.47357 31.6026 3.26028 33.0864 4.671C33.1982 4.77991 33.3768 4.77854 33.4868 4.66792L34.5549 3.58995C34.6107 3.53384 34.6417 3.45785 34.6413 3.37877C34.6408 3.2997 34.6088 3.22407 34.5525 3.16862C30.6578 -0.563815 24.5136 -0.563815 20.619 3.16862C20.5625 3.22403 20.5305 3.29963 20.53 3.37871C20.5295 3.45778 20.5605 3.5338 20.6162 3.58995L21.6846 4.66792C21.7946 4.77871 21.9733 4.78008 22.085 4.671C23.569 3.26019 25.5384 2.47348 27.586 2.47348ZM27.586 5.98058C28.7109 5.98051 29.7957 6.39864 30.6296 7.15372C30.7424 7.26088 30.92 7.25856 31.03 7.14848L32.0969 6.07051C32.153 6.01397 32.1842 5.93726 32.1834 5.85756C32.1826 5.77785 32.1499 5.7018 32.0925 5.64641C29.5533 3.28438 25.6209 3.28438 23.0816 5.64641C23.0243 5.7018 22.9916 5.77789 22.9908 5.85762C22.9901 5.93735 23.0213 6.01405 23.0776 6.07051L24.1442 7.14848C24.2542 7.25856 24.4318 7.26088 24.5446 7.15372C25.3779 6.39914 26.4618 5.98104 27.586 5.98058ZM29.7232 8.34024C29.7248 8.42017 29.6934 8.49723 29.6363 8.55323L27.7908 10.4156C27.7367 10.4704 27.663 10.5012 27.586 10.5012C27.5091 10.5012 27.4353 10.4704 27.3812 10.4156L25.5354 8.55323C25.4784 8.49719 25.447 8.4201 25.4487 8.34017C25.4504 8.26024 25.485 8.18455 25.5443 8.13097C26.7229 7.13411 28.4491 7.13411 29.6277 8.13097C29.687 8.18459 29.7215 8.26031 29.7232 8.34024Z" fill="#2C2B46"/>
<path fill-rule="evenodd" clip-rule="evenodd" d="M14.9612 0.679688H14.0372C13.5269 0.679688 13.1132 1.09336 13.1132 1.60366V9.61143C13.1132 10.1217 13.5269 10.5354 14.0372 10.5354H14.9612C15.4715 10.5354 15.8851 10.1217 15.8851 9.61143V1.60366C15.8851 1.09336 15.4715 0.679688 14.9612 0.679688ZM9.72531 2.83563H10.6493C11.1596 2.83563 11.5733 3.2493 11.5733 3.7596V9.61143C11.5733 10.1217 11.1596 10.5354 10.6493 10.5354H9.72531C9.21501 10.5354 8.80133 10.1217 8.80133 9.61143V3.7596C8.80133 3.2493 9.21501 2.83563 9.72531 2.83563ZM6.3374 4.99156H5.41343C4.90313 4.99156 4.48946 5.40524 4.48946 5.91554V9.61143C4.48946 10.1217 4.90313 10.5354 5.41343 10.5354H6.3374C6.8477 10.5354 7.26138 10.1217 7.26138 9.61143V5.91554C7.26138 5.40524 6.8477 4.99156 6.3374 4.99156ZM2.02553 6.83951H1.10156C0.591259 6.83951 0.177582 7.25319 0.177582 7.76348V9.61143C0.177582 10.1217 0.591259 10.5354 1.10156 10.5354H2.02553C2.53582 10.5354 2.9495 10.1217 2.9495 9.61143V7.76348C2.9495 7.25319 2.53582 6.83951 2.02553 6.83951Z" fill="#2C2B46"/>
</svg>
