<svg width="49" height="49" viewBox="0 0 49 49" fill="none" xmlns="http://www.w3.org/2000/svg">
<path d="M35.8913 28.953C35.3728 29.4555 35.1346 30.1822 35.2527 30.8949L37.0324 40.7445C37.1826 41.5793 36.8302 42.4241 36.1315 42.9066C35.4469 43.4071 34.536 43.4671 33.7893 43.0667L24.9227 38.4422C24.6144 38.2781 24.272 38.19 23.9217 38.18H23.3792C23.191 38.208 23.0068 38.2681 22.8387 38.3602L13.97 43.0067C13.5316 43.2269 13.0351 43.305 12.5487 43.2269C11.3635 43.0027 10.5728 41.8736 10.7669 40.6824L12.5487 30.8329C12.6668 30.1142 12.4286 29.3835 11.91 28.873L4.68103 21.8662C4.07645 21.2796 3.86624 20.3987 4.14251 19.604C4.41077 18.8112 5.09544 18.2326 5.92224 18.1025L15.8719 16.6591C16.6286 16.581 17.2933 16.1206 17.6336 15.4399L22.0179 6.45121C22.122 6.25102 22.2561 6.06684 22.4182 5.91069L22.5984 5.77055C22.6925 5.66645 22.8006 5.58037 22.9207 5.5103L23.1389 5.43022L23.4793 5.29008H24.3221C25.0748 5.36816 25.7375 5.8186 26.0838 6.49125L30.5261 15.4399C30.8464 16.0946 31.469 16.549 32.1877 16.6591L42.1374 18.1025C42.9782 18.2226 43.6809 18.8032 43.9591 19.604C44.2214 20.4068 43.9952 21.2876 43.3786 21.8662L35.8913 28.953Z" stroke="#FE9370" stroke-width="2.77192"/>
</svg>
