<svg width="49" height="49" viewBox="0 0 49 49" fill="none" xmlns="http://www.w3.org/2000/svg">
<path d="M36.3401 28.9947C35.8216 29.4972 35.5834 30.2239 35.7015 30.9366L37.4812 40.7861C37.6314 41.6209 37.279 42.4658 36.5803 42.9482C35.8957 43.4487 34.9848 43.5088 34.2381 43.1084L25.3715 38.4839C25.0632 38.3197 24.7208 38.2316 24.3705 38.2216H23.828C23.6398 38.2497 23.4556 38.3097 23.2874 38.4018L14.4188 43.0483C13.9804 43.2685 13.4839 43.3466 12.9975 43.2685C11.8123 43.0443 11.0215 41.9152 11.2157 40.7241L12.9975 30.8745C13.1156 30.1558 12.8773 29.4251 12.3588 28.9146L5.12983 21.9078C4.52524 21.3212 4.31504 20.4404 4.5913 19.6456C4.85956 18.8528 5.54423 18.2743 6.37103 18.1442L16.3207 16.7008C17.0774 16.6227 17.7421 16.1622 18.0824 15.4816L22.4666 6.49285C22.5707 6.29266 22.7049 6.10848 22.867 5.95233L23.0472 5.81219C23.1413 5.70809 23.2494 5.62201 23.3695 5.55194L23.5877 5.47186L23.9281 5.33173H24.7709C25.5236 5.4098 26.1863 5.86024 26.5326 6.53289L30.9749 15.4816C31.2952 16.1362 31.9178 16.5906 32.6365 16.7008L42.5862 18.1442C43.427 18.2643 44.1297 18.8448 44.4079 19.6456C44.6702 20.4484 44.444 21.3292 43.8274 21.9078L36.3401 28.9947Z" stroke="#FE9370" stroke-width="2.77192"/>
</svg>
