<svg width="49" height="49" viewBox="0 0 49 49" fill="none" xmlns="http://www.w3.org/2000/svg">
<path d="M36.1947 28.9947C35.6762 29.4972 35.438 30.2239 35.5561 30.9366L37.3358 40.7861C37.486 41.6209 37.1336 42.4658 36.435 42.9482C35.7503 43.4487 34.8394 43.5088 34.0927 43.1084L25.2261 38.4839C24.9178 38.3197 24.5754 38.2316 24.2251 38.2216H23.6826C23.4944 38.2497 23.3102 38.3097 23.1421 38.4018L14.2735 43.0483C13.835 43.2685 13.3385 43.3466 12.8521 43.2685C11.6669 43.0443 10.8762 41.9152 11.0703 40.7241L12.8521 30.8745C12.9702 30.1558 12.732 29.4251 12.2135 28.9146L4.98444 21.9078C4.37985 21.3212 4.16965 20.4404 4.44592 19.6456C4.71418 18.8528 5.39884 18.2743 6.22564 18.1442L16.1753 16.7008C16.932 16.6227 17.5967 16.1622 17.937 15.4816L22.3213 6.49285C22.4254 6.29266 22.5595 6.10848 22.7216 5.95233L22.9018 5.81219C22.9959 5.70809 23.104 5.62201 23.2241 5.55194L23.4423 5.47186L23.7827 5.33173H24.6255C25.3782 5.4098 26.0409 5.86024 26.3872 6.53289L30.8295 15.4816C31.1498 16.1362 31.7724 16.5906 32.4911 16.7008L42.4408 18.1442C43.2816 18.2643 43.9843 18.8448 44.2625 19.6456C44.5248 20.4484 44.2986 21.3292 43.682 21.9078L36.1947 28.9947Z" fill="#FE9370"/>
</svg>
