<svg width="49" height="49" viewBox="0 0 49 49" fill="none" xmlns="http://www.w3.org/2000/svg">
<path d="M36.481 28.9947C35.9625 29.4972 35.7243 30.2239 35.8424 30.9366L37.6221 40.7861C37.7723 41.6209 37.4199 42.4658 36.7213 42.9482C36.0366 43.4487 35.1257 43.5088 34.379 43.1084L25.5124 38.4839C25.2041 38.3197 24.8618 38.2316 24.5114 38.2216H23.9689C23.7807 38.2497 23.5965 38.3097 23.4284 38.4018L14.5598 43.0483C14.1213 43.2685 13.6249 43.3466 13.1384 43.2685C11.9532 43.0443 11.1625 41.9152 11.3567 40.7241L13.1384 30.8745C13.2565 30.1558 13.0183 29.4251 12.4998 28.9146L5.27076 21.9078C4.66617 21.3212 4.45597 20.4404 4.73223 19.6456C5.00049 18.8528 5.68516 18.2743 6.51196 18.1442L16.4616 16.7008C17.2183 16.6227 17.883 16.1622 18.2233 15.4816L22.6076 6.49285C22.7117 6.29266 22.8458 6.10848 23.008 5.95233L23.1881 5.81219C23.2822 5.70809 23.3903 5.62201 23.5105 5.55194L23.7287 5.47186L24.069 5.33173H24.9118C25.6645 5.4098 26.3272 5.86024 26.6735 6.53289L31.1158 15.4816C31.4361 16.1362 32.0587 16.5906 32.7774 16.7008L42.7271 18.1442C43.5679 18.2643 44.2706 18.8448 44.5489 19.6456C44.8111 20.4484 44.5849 21.3292 43.9683 21.9078L36.481 28.9947Z" fill="#FE9370"/>
</svg>
