<svg width="49" height="49" viewBox="0 0 49 49" fill="none" xmlns="http://www.w3.org/2000/svg">
<path d="M36.605 28.953C36.0865 29.4555 35.8483 30.1822 35.9664 30.8949L37.7461 40.7445C37.8963 41.5793 37.5439 42.4241 36.8452 42.9066C36.1606 43.4071 35.2497 43.4671 34.503 43.0667L25.6364 38.4422C25.3281 38.2781 24.9857 38.19 24.6354 38.18H24.0929C23.9047 38.208 23.7205 38.2681 23.5523 38.3602L14.6837 43.0067C14.2453 43.2269 13.7488 43.305 13.2624 43.2269C12.0772 43.0027 11.2864 41.8736 11.4806 40.6824L13.2624 30.8329C13.3805 30.1142 13.1422 29.3835 12.6237 28.873L5.39472 21.8662C4.79013 21.2796 4.57993 20.3987 4.8562 19.604C5.12446 18.8112 5.80912 18.2326 6.63592 18.1025L16.5856 16.6591C17.3423 16.581 18.007 16.1206 18.3473 15.4399L22.7315 6.45121C22.8356 6.25102 22.9698 6.06684 23.1319 5.91069L23.3121 5.77055C23.4062 5.66645 23.5143 5.58037 23.6344 5.5103L23.8526 5.43022L24.193 5.29008H25.0358C25.7885 5.36816 26.4511 5.8186 26.7975 6.49125L31.2398 15.4399C31.5601 16.0946 32.1827 16.549 32.9014 16.6591L42.8511 18.1025C43.6919 18.2226 44.3946 18.8032 44.6728 19.604C44.9351 20.4068 44.7089 21.2876 44.0923 21.8662L36.605 28.953Z" fill="#FE9370"/>
</svg>
