<svg width="49" height="49" viewBox="0 0 49 49" fill="none" xmlns="http://www.w3.org/2000/svg">
<path d="M36.746 28.953C36.2275 29.4555 35.9892 30.1822 36.1073 30.8949L37.8871 40.7445C38.0372 41.5793 37.6849 42.4241 36.9862 42.9066C36.3015 43.4071 35.3906 43.4671 34.6439 43.0667L25.7773 38.4422C25.469 38.2781 25.1267 38.19 24.7763 38.18H24.2338C24.0456 38.208 23.8615 38.2681 23.6933 38.3602L14.8247 43.0067C14.3863 43.2269 13.8898 43.305 13.4033 43.2269C12.2182 43.0027 11.4274 41.8736 11.6216 40.6824L13.4033 30.8329C13.5214 30.1142 13.2832 29.3835 12.7647 28.873L5.53568 21.8662C4.93109 21.2796 4.72089 20.3987 4.99716 19.604C5.26542 18.8112 5.95008 18.2326 6.77688 18.1025L16.7265 16.6591C17.4833 16.581 18.1479 16.1206 18.4882 15.4399L22.8725 6.45121C22.9766 6.25102 23.1107 6.06684 23.2729 5.91069L23.4531 5.77055C23.5472 5.66645 23.6553 5.58037 23.7754 5.5103L23.9936 5.43022L24.3339 5.29008H25.1767C25.9295 5.36816 26.5921 5.8186 26.9384 6.49125L31.3808 15.4399C31.7011 16.0946 32.3237 16.549 33.0424 16.6591L42.992 18.1025C43.8328 18.2226 44.5355 18.8032 44.8138 19.604C45.076 20.4068 44.8498 21.2876 44.2332 21.8662L36.746 28.953Z" fill="#FE9370"/>
</svg>
