<svg width="49" height="49" viewBox="0 0 49 49" fill="none" xmlns="http://www.w3.org/2000/svg">
<path d="M36.0538 28.9947C35.5353 29.4972 35.2971 30.2239 35.4152 30.9366L37.1949 40.7861C37.345 41.6209 36.9927 42.4658 36.294 42.9482C35.6094 43.4487 34.6985 43.5088 33.9517 43.1084L25.0851 38.4839C24.7768 38.3197 24.4345 38.2316 24.0842 38.2216H23.5416C23.3535 38.2497 23.1693 38.3097 23.0011 38.4018L14.1325 43.0483C13.6941 43.2685 13.1976 43.3466 12.7111 43.2685C11.526 43.0443 10.7352 41.9152 10.9294 40.7241L12.7111 30.8745C12.8293 30.1558 12.591 29.4251 12.0725 28.9146L4.84351 21.9078C4.23892 21.3212 4.02872 20.4404 4.30499 19.6456C4.57325 18.8528 5.25791 18.2743 6.08471 18.1442L16.0344 16.7008C16.7911 16.6227 17.4557 16.1622 17.7961 15.4816L22.1803 6.49285C22.2844 6.29266 22.4186 6.10848 22.5807 5.95233L22.7609 5.81219C22.855 5.70809 22.9631 5.62201 23.0832 5.55194L23.3014 5.47186L23.6417 5.33173H24.4846C25.2373 5.4098 25.8999 5.86024 26.2463 6.53289L30.6886 15.4816C31.0089 16.1362 31.6315 16.5906 32.3502 16.7008L42.2998 18.1442C43.1407 18.2643 43.8433 18.8448 44.1216 19.6456C44.3839 20.4484 44.1576 21.3292 43.5411 21.9078L36.0538 28.9947Z" fill="#FE9370"/>
</svg>
